
<svg class="race_border_current" viewBox="0 0 195 196" xmlns="http://www.w3.org/2000/svg">
    <path d="M181.6,120.8l12.9-23l-12.9-22.4l0-27L158.2,35l-12.5-21.6l-25.2,0L97.3,0L74.4,13.4l-25.9,0L35.7,36.1l-22.3,13l0,26.2L0.5,98l12.9,22.4l0,26.2l22.5,12.8l13.4,23.2l27.3,0L98.1,195l20.9-12.3l27.8,0l13.7-24.5l21-12.4L181.6,120.8z M193.3,97.8l-11.8,21l0-41.4L193.3,97.8z M180.6,120.5l-20.8,37l-41,24.2l-41.9,0l-40.2-23l-22.2-38.5l0-44.6l22-38.7l38.3-22.4l45.6,0l37.2,21.3l23.1,39.9L180.6,120.5z M180.6,49l0,24.7l-21.3-36.9L180.6,49z M145.2,14.4L156.5,34l-34.2-19.6L145.2,14.4z M97.3,1.2l21.3,12.2l-42.2,0L97.3,1.2z M49.1,14.4l23.6,0L37.4,35.1L49.1,14.4z M14.4,49.7l20.3-11.9L14.4,73.5L14.4,49.7z M1.7,98l11.8-20.7l0,41.1L1.7,98z M14.4,146l0-23.9l20.5,35.6L14.4,146z M49.8,181.7l-12.2-21.2l37.2,21.2L49.8,181.7z M98.1,193.8l-19.6-11.2l38.5,0L98.1,193.8z M146.2,181.7l-25.5,0l38.1-22.4L146.2,181.7z M161.5,156.5l19-33.9l0,22.7L161.5,156.5z"/>
    <path d="M175,119l11.9-21.2L175,77.1l0-24.9l-21.5-12.3L142,20l-23.2,0L97.3,7.7L76.2,20l-23.8,0L40.5,40.9L20,52.9L20,77L8.1,98L20,118.6l0,24.1l20.7,11.8L53.1,176l25.2,0l19.9,11.4l19.2-11.3l25.6,0l12.6-22.5l19.4-11.4L175,119z M185.7,97.7L175,116.9l0-37.8L185.7,97.7z M174,118.7l-19.1,34L117.1,175l-38.6,0l-37-21.1L21,118.4l0-41.1l20.2-35.7L76.5,21l42,0l34.2,19.6L174,77.4L174,118.7z M174,52.8l0,22.6l-19.5-33.8L174,52.8z M141.4,21l10.3,17.9L120.5,21L141.4,21z M97.3,8.8L116.8,20l-38.6,0L97.3,8.8z M53,21l21.5,0L42.3,39.9L53,21z M21,53.5l18.5-10.9L21,75.3L21,53.5z M9.3,98L20,79.1l0,37.6L9.3,98z M21,142.2l0-21.8l18.7,32.5L21,142.2z M53.6,175l-11.2-19.4l34,19.4L53.6,175z M98.1,186.2L80.2,176l35.1,0L98.1,186.2z M142.4,175l-23.3,0l34.8-20.5L142.4,175z M156.6,151.7l17.4-31l0,20.8L156.6,151.7z"/>
</svg>
