
<svg class="race_border_special" viewBox="0 0 195 196" xmlns="http://www.w3.org/2000/svg">
    <path d="M175,119l11.9-21.2L175,77.1l0-24.9l-21.5-12.3L142,20l-23.2,0L97.3,7.7L76.2,20l-23.8,0L40.5,40.9L20,52.9L20,77L8.1,98L20,118.6l0,24.1l20.7,11.8L53.1,176l25.2,0l19.9,11.4l19.2-11.3l25.6,0l12.6-22.5l19.4-11.4L175,119z M185.7,97.7L175,116.9l0-37.8L185.7,97.7z M174,118.7l-19.1,34L117.1,175l-38.6,0l-37-21.1L21,118.4l0-41.1l20.2-35.7L76.5,21l42,0l34.2,19.6L174,77.4L174,118.7z M174,52.8l0,22.6l-19.5-33.8L174,52.8z M141.4,21l10.3,17.9L120.5,21L141.4,21z M97.3,8.8L116.8,20l-38.6,0L97.3,8.8z M53,21l21.5,0L42.3,39.9L53,21z M21,53.5l18.5-10.9L21,75.3L21,53.5z M9.3,98L20,79.1l0,37.6L9.3,98z M21,142.2l0-21.8l18.7,32.5L21,142.2z M53.6,175l-11.2-19.4l34,19.4L53.6,175z M98.1,186.2L80.2,176l35.1,0L98.1,186.2z M142.4,175l-23.3,0l34.8-20.5L142.4,175z M156.6,151.7l17.4-31l0,20.8L156.6,151.7z"/>
	<polygon points="106.5,175.9 108.1,179.1 105,180.8 104.3,184.3 100.8,183.8 98.2,186.3 95.7,183.8 92.1,184.3 91.5,180.8 88.4,179.1 89.9,175.9 88.4,172.7 91.5,171.1 92.1,167.5 95.7,168 98.2,165.6 100.8,168 104.3,167.5 105,171.1 108.1,172.7 "/>
	<polygon points="106.9,182.5 106.3,182.8 105.7,186.3 102.1,185.8 100,187.9 104.7,196 106.9,191.3 112.2,191.7 "/>
	<polygon points="89.6,182.5 90.2,182.8 90.8,186.3 94.4,185.8 96.5,187.9 91.8,196 89.6,191.3 84.3,191.7 "/>
</svg>
