
<svg class="race_emblem" viewBox="0 0 386 360" xmlns="http://www.w3.org/2000/svg">
    <path d="M176.9,4.1c0,0-4,21.9-10.7,28.6c-6.7,6.7-28.6,10.7-28.6,10.7s21.9,4,28.5,10.7c1.6,1.6,9.5,11.9,6.3,33.4c-2.6,17-9.1,32.3-16.3,39.4c-4.7-5.1-43.6-47.3-49.3-53c-5.7-5.3,4.7-18.1,4.7-18.1s-15.7,1-31.7,13.8c6,7.3,69.3,76.8,69.3,76.8l34.6-0.1l0-14.3h0V4.1L176.9,4.1L176.9,4.1z M181.8,6.2v123.6h0l0,2.1l0,12.2l-31.6,0.1c-6.2-6.9-56.8-62.4-67.2-74.4c9.5-7,18.7-10,24.1-11.2c-3,4.8-6.3,12.3-1.6,16.7c5.7,5.7,44.8,48.1,49.2,53l1.5,1.6l1.6-1.5c7.7-7.6,14.4-23.5,16.9-40.6c3.6-24.3-6.5-34.8-6.9-35.2c-4.2-4.2-13.5-7.3-20.6-9.2c7.1-1.9,16.4-5,20.6-9.2c6-6,9.8-22.5,10.9-28L181.8,6.2z M202.1,146.3l34.6,0.1c0,0,63.3-69.5,69.3-76.8c-16-12.7-31.7-13.8-31.7-13.8s10.4,12.8,4.7,18.1c-5.7,5.7-44.6,47.9-49.3,53c-7.2-7.1-13.8-22.4-16.3-39.4c-3.2-21.5,4.7-31.8,6.3-33.4c6.7-6.7,28.5-10.7,28.5-10.7s-21.9-4-28.6-10.7c-6.7-6.7-10.7-28.6-10.7-28.6l0,0l-7,0V132h0L202.1,146.3z M204.2,6.2l3.2,0c1.1,5.4,4.9,22,10.9,28c4.2,4.2,13.5,7.3,20.6,9.2c-7.1,1.9-16.4,5-20.6,9.2c-0.4,0.4-10.6,10.9-6.9,35.2c2.6,17.1,9.2,33,16.9,40.6l1.6,1.5l1.5-1.6c4.4-4.8,43.6-47.3,49.2-52.9c4.7-4.4,1.4-12-1.6-16.7c5.4,1.2,14.6,4.1,24.1,11.2c-10.4,11.9-60.9,67.5-67.2,74.4l-31.6-0.1l0-12.2l0-1.4V6.2z M140.8,170.8l-78.9-90c-39.5,24.9-66.3,47.8-61.3,69.1c27.3-29.7,43.1-37.2,53.1-37.2c6.7,0,10.8,3.4,13.9,5.7c16.6,18.1,41.5,46.9,54,61.6c-12.6,14.6-37.5,43.4-54,61.6c-3.1,2.3-7.2,5.7-13.9,5.7c-10,0-25.8-7.5-53.1-37.2c-5,21.3,21.8,44.2,61.3,69.1l78.9-90h43.1l0-9.1l0-9.1H140.8z M181.8,186.9h-41.9l-0.6,0.7l-77.7,88.6C33,258.2,1.9,235.4,2.1,214.7C24,238,40.9,249.3,53.7,249.3c6.9,0,11.3-3.2,14.5-5.6l0.7-0.5L69,243l0.1-0.2c16.4-18,40.9-46.3,54.1-61.6l1.2-1.4l-1.2-1.4c-13.1-15.3-37.7-43.6-54.1-61.6l-0.1-0.2l-0.2-0.1l-0.7-0.5c-3.2-2.4-7.5-5.6-14.5-5.6c-12.8,0-29.6,11.3-51.5,34.6C1.9,124.4,33,101.6,61.5,83.5l77.7,88.6l0.6,0.7h41.9l0,7L181.8,186.9z M183.9,213.6l-34.6-0.1c0,0-63.3,69.5-69.3,76.8c16,12.7,31.7,13.8,31.7,13.8s-10.4-12.8-4.7-18.1c5.7-5.7,44.6-47.9,49.3-53c7.2,7.1,13.8,22.4,16.3,39.4c3.2,21.5-4.7,31.8-6.3,33.4c-6.7,6.7-28.5,10.7-28.5,10.7s21.9,4,28.6,10.7c6.7,6.7,10.7,28.6,10.7,28.6l0,0l7,0V227.9h0L183.9,213.6z M181.8,353.6l-3.2,0c-1.1-5.4-4.9-22-10.9-28c-4.2-4.2-13.5-7.3-20.6-9.2c7.1-1.9,16.4-5,20.6-9.2c0.4-0.4,10.6-10.9,6.9-35.2c-2.6-17.1-9.2-33-16.9-40.6l-1.6-1.5l-1.5,1.6c-4.4,4.8-43.6,47.3-49.2,52.9c-4.7,4.4-1.4,12,1.6,16.7c-5.4-1.2-14.6-4.1-24.1-11.2c10.4-11.9,60.9-67.5,67.2-74.4l31.6,0.1l0,12.2l0,1.4V353.6z M332.3,247.2c-6.7,0-10.8-3.4-13.9-5.7c-16.6-18.1-41.5-46.9-54-61.6c12.6-14.6,37.5-43.4,54-61.6c3.1-2.3,7.2-5.7,13.9-5.7c10,0,25.8,7.5,53.1,37.2c5-21.3-21.8-44.2-61.3-69.1l-78.9,90h-43.1l0,9.1l0,9.1h43.1l78.9,90c39.5-24.9,66.3-47.8,61.3-69.1C358.1,239.7,342.3,247.2,332.3,247.2z M324.5,276.3l-77.7-88.6l-0.6-0.7h-41.9l0-7l0-7h41.9l0.6-0.7l77.7-88.6c28.5,18.1,59.6,40.8,59.4,61.6c-21.9-23.2-38.8-34.6-51.5-34.6c-6.9,0-11.3,3.2-14.5,5.6l-0.7,0.5l-0.2,0.1l-0.1,0.2c-16.4,18-40.9,46.3-54.1,61.6l-1.2,1.4l1.2,1.4c13.1,15.3,37.7,43.6,54.1,61.6l0.1,0.2l0.2,0.1l0.7,0.5c3.2,2.4,7.5,5.6,14.5,5.6c12.8,0,29.6-11.3,51.5-34.6C384.1,235.4,353,258.2,324.5,276.3z M202.1,213.6l0,14.3h0v127.9l7,0l0,0c0,0,4-21.9,10.7-28.6c6.7-6.7,28.6-10.7,28.6-10.7s-21.9-4-28.5-10.7c-1.6-1.6-9.5-11.9-6.3-33.4c2.6-17,9.1-32.3,16.3-39.4c4.7,5.1,43.6,47.3,49.3,53c5.7,5.3-4.7,18.1-4.7,18.1s15.7-1,31.7-13.8c-6-7.3-69.3-76.8-69.3-76.8L202.1,213.6z M279,301.1c3-4.8,6.3-12.3,1.6-16.7c-5.7-5.7-44.8-48.1-49.2-53l-1.5-1.6l-1.6,1.5c-7.7,7.6-14.4,23.5-16.9,40.6c-3.6,24.3,6.5,34.8,6.9,35.2c4.2,4.2,13.5,7.3,20.6,9.2c-7.1,1.9-16.4,5-20.6,9.2c-6,6-9.8,22.5-10.9,28l-3.2,0V230h0l0-2.1l0-12.2l31.6-0.1c6.2,6.9,56.8,62.4,67.2,74.4C293.6,297,284.3,299.9,279,301.1z"/>
</svg>
