
<svg class="race_icon race_icon-trillarians" viewBox="0 0 386 360" xmlns="http://www.w3.org/2000/svg">
	<path d="M155.1,265.8c12-15.3,17-37.9,10.5-62.9c-8.1-31.4-30.4-53.3-33.5-55.9c-26.3-23-59.9-22.3-58.7-55.4
		c0.3-8.5,7-13.7,13.5-16.9c-0.7-1.7-1.3-3.4-1.8-5.2c-3.4-10.8-4.7-20.9-4.1-30.1c-14,2.5-32.1,9.4-42,27.6
		c-6.5,8.1-11.2,19.2-12,34.3c-0.5,9.9,2.5,20.7,11.5,32.3c9,11.5,19.6,18.7,30,24c0.8,0.4,11.4,5,23,10.9
		c2.9,1.5,50.5,20.5,49.3,67.6c-0.4,16.4-8.9,32.6-31.4,34.4c-0.8,0.1-1.6,0.1-2.4,0.1c-10.9,0-21.8-6-29.3-12.9
		c-12.8-12-16-27.8-15.9-27.8c0,0,0,0,0,0c-3.1-8.6-5.3-16.3-7.3-19.9c-8.3,4.3-18,78.8,57.8,82.8
		C130.6,292.2,146.1,281.8,155.1,265.8z M52.3,245.9c-3.2-14.8-0.6-27.7,1.7-32.4c1,2.3,2,5.5,3.2,8.9c0.8,2.5,1.8,5.3,2.8,8.2l0,0
		c0.4,2.8,2.7,8.4,3.2,9.6c2.3,5.1,6.4,12.6,13.2,18.9c9,8.4,20.4,13.4,30.5,13.4c0.9,0,1.7,0,2.6-0.1
		c20.2-1.7,32.6-15.2,33.1-36.3c1.1-41.3-34.2-62-49.5-68.9c-0.4-0.2-0.7-0.3-0.8-0.4c-9.3-4.8-18.2-8.8-21.5-10.3
		c-0.8-0.4-1.3-0.6-1.5-0.7C56.8,149.5,47.5,142,40,132.4c-7.9-10.2-11.7-20.7-11.1-31c0.7-13.4,4.6-24.6,11.6-33.3l0.1-0.1
		l0.1-0.1c9.1-16.6,25.4-23.4,38.4-26.2c-0.3,9,1.2,18.5,4.3,28.4c0.4,1.1,0.8,2.3,1.3,3.7c-8.4,4.5-12.7,10.5-13,17.8
		c-0.8,22.8,14.1,30.5,31.5,39.4c8.9,4.5,18.9,9.7,27.9,17.5c0.2,0.2,24.3,22,32.9,55c6,23,2.2,45.3-10.2,61.2l-0.1,0.1l-0.1,0.1
		c-9,15.9-24,25.4-41.2,26.1C68,288.6,55.7,261.7,52.3,245.9z M360.4,101.5c-0.8-15.1-5.5-26.1-12.1-34.2
		c-9.7-17.5-27.1-24.5-40.9-27.2c0.4,8.9-0.9,18.5-4.2,28.8c-0.7,2.1-1.5,4.3-2.3,6.4c6.3,3.2,12.5,8.4,12.8,16.5
		c1.2,32.9-32.5,32.2-58.9,55.1c-3.1,2.6-25.4,24.4-33.6,55.7c-6.5,24.8-1.4,47.4,10.6,62.6c9.1,15.9,24.6,26.2,43.1,27
		c76.1-4,66.4-78.1,58.1-82.4c-2,3.6-4.2,11.2-7.4,19.8c0,0,0,0,0,0c0.1,0-3.1,15.8-16,27.7c-7.4,6.9-18.4,12.8-29.4,12.8
		c-0.8,0-1.6,0-2.4-0.1c-22.6-1.9-31.1-18-31.5-34.3c-1.2-46.9,46.6-65.8,49.5-67.3c11.6-5.9,22.3-10.5,23.1-10.9
		c10.4-5.3,21.2-12.5,30.1-23.9C357.9,122.2,361,111.3,360.4,101.5z M347.4,132.5c-7.5,9.6-16.9,17-29.5,23.4
		c-0.2,0.1-0.7,0.3-1.5,0.7c-3.4,1.5-12.3,5.5-21.6,10.2c-0.1,0.1-0.4,0.2-0.8,0.4c-15.3,6.9-50.8,27.5-49.7,68.6
		c0.6,20.9,13,34.4,33.3,36.1c0.8,0.1,1.7,0.1,2.6,0.1c10.2,0,21.6-5,30.7-13.3c6.9-6.4,11-13.8,13.3-18.9c0.8-1.9,2.8-6.9,3.2-9.6
		l0,0c1-2.9,2-5.7,2.9-8.2c1.2-3.4,2.2-6.6,3.2-8.9c2.3,4.6,4.9,17.4,1.8,32.1c-3.4,15.8-15.7,42.7-60.3,45.1
		c-17.3-0.7-32.4-10.2-41.4-26l-0.1-0.1l-0.1-0.1c-12.5-15.8-16.2-38-10.2-60.9c8.6-32.8,32.8-54.5,33-54.7
		c9-7.8,19.1-12.9,28-17.5c17.4-8.8,32.4-16.5,31.6-39.2c-0.3-7-4.4-12.9-12.3-17.3c0.7-1.8,1.3-3.4,1.7-5
		c2.9-9.4,4.4-18.5,4.3-27.1c12.6,2.9,28.4,9.7,37.3,25.8l0.1,0.1l0.1,0.1c7,8.6,10.9,19.7,11.6,33.1
		C359.1,112,355.4,122.3,347.4,132.5z M87.5,178.9c-22.6,47.7,20.5,79.3,26.4,81c0.3,0.1,0.6,0.1,0.9,0.1c6,0,15.5-15.2,11.5-22.2
		c-13.3-5.9-17.7-23.8-16.7-43.6C98,183.5,87.5,178.9,87.5,178.9z M124.9,239.2c1.1,2.7,0.2,7.1-2.4,11.6c-2.7,4.7-6,7.3-7.7,7.3
		c-0.1,0-0.3,0-0.4,0c-2.6-0.7-18.3-11.2-26.6-29.5c-6.8-15.1-6.6-30.9,0.6-47.1c3.3,1.7,11,6,19.3,13.5
		C106.7,217.8,112.8,233.4,124.9,239.2z M260.2,238.3c-4,7.1,5.4,22.5,11.4,22.5c0.3,0,0.6,0,0.9-0.1c5.8-1.7,48.5-33.8,26.1-82
		c0,0-10.5,4.7-21.8,15.5C277.7,214.2,273.4,232.3,260.2,238.3z M278.7,194.9c8.1-7.5,15.7-12,19-13.7c7.2,16.6,7.3,32.9,0.3,48.3
		c-8.3,18.3-23.6,28.6-26,29.3c-0.1,0-0.2,0-0.3,0c-1.6,0-4.8-2.5-7.4-7c-2.7-4.6-3.7-9.4-2.5-12.2
		C273.6,233.9,279.6,218,278.7,194.9z M163.3,263.8c-2.8,14.4-12.1,22.6-12.1,22.6s2.3,11.3,2.1,15.4c3.6,21.8-19.1,38.3-39.8,38.3
		c-8.9,0-17.4-3-23.4-9.9c2.5,14.7,19.1,28.4,37.9,28.4c11.2,0,23-4.8,33.2-17.2c9.6-11.7,14.2-26.3,13.5-43.8
		C174.5,285.4,169.6,273.7,163.3,263.8z M159.6,340.2c-11.2,13.6-23.4,16.5-31.7,16.5c-14.5,0-28.6-8.9-34-20.5
		c5.4,3.8,12.1,5.8,19.5,5.8c12.9,0,26.4-6.2,34.5-15.7c6.2-7.3,8.7-15.8,7.3-24.6c0.1-3.7-1.4-11.8-1.9-14.6
		c2.1-2.1,7.8-8.5,10.8-18.4c5.7,10.1,8.6,19.8,8.6,29C173.3,314.5,169,328.8,159.6,340.2z M274.6,341.4
		c-20.8,0-43.4-16.6-39.7-38.5c-0.2-4.1,2.1-15.5,2.1-15.5s-9.3-8.3-12.1-22.8c-6.3,10-11.2,21.7-11.3,34
		c-0.7,17.6,3.8,32.3,13.4,44c10.1,12.4,22,17.2,33.1,17.2c18.7,0,35.4-13.8,38-28.6C292.1,338.4,283.5,341.4,274.6,341.4z
		 M260.1,358.1c-8.3,0-20.5-2.9-31.6-16.5c-9.3-11.4-13.7-25.8-13-42.8c0.1-9.2,3-19,8.7-29.1c3,10,8.7,16.4,10.8,18.5
		c-0.6,2.9-2,11-1.9,14.7c-1.4,8.9,1.1,17.5,7.3,24.8c8,9.5,21.5,15.6,34.3,15.6c7.4,0,14.2-2,19.6-5.8
		C288.7,349.2,274.6,358.1,260.1,358.1z M257,84c0,14.5-4.8,27.8-12.9,38.6c25.5-10.7,39.3-30.1,45.3-49.1
		c7.7-24.7,2.9-45.3-10.7-58.2c-9.5-9-23-14.7-36.2-14.7c-13.4,0-26.4,5.8-34.4,19.8c-0.2,0.4-0.4,0.8-0.7,1.2
		C235.8,28.2,257,53.6,257,84z M242.5,2.5c12.5,0,25.6,5.3,34.9,14.1c13.8,13.1,17.4,33.1,10.2,56.3c-6.1,19.7-19.5,35.5-38.1,45.1
		c6.2-10.2,9.4-21.8,9.4-34c0-30-19.8-55.8-48.5-63.6C217.3,8.8,228.7,2.5,242.5,2.5z M139.9,120c-7-10.3-11.1-22.7-11.1-36
		c0-31.5,22.7-57.6,52.6-63c-8-13.7-20.9-19.3-34.2-19.3c-13.2,0-26.7,5.6-36.2,14.5C97.3,29,92.5,49.4,100.3,73.9
		C105.8,91.4,118,109.1,139.9,120z M112.3,17.6c9.3-8.8,22.4-14,34.9-14c13.1,0,24.1,5.7,31.2,16.1C148.4,26.4,126.9,53,126.9,84
		c0,10.9,2.6,21.5,7.7,30.9c-19.7-12.1-28.6-29-32.6-41.6C94.8,50.4,98.5,30.6,112.3,17.6z M193,140c-15.3,0-27.7,12.4-27.7,27.8
		c0,15.4,12.4,27.8,27.7,27.8c15.3,0,27.7-12.4,27.7-27.8C220.7,152.4,208.3,140,193,140z M193,193.7c-14.2,0-25.8-11.6-25.8-25.9
		c0-14.3,11.6-25.9,25.8-25.9c14.2,0,25.8,11.6,25.8,25.9C218.8,182.1,207.2,193.7,193,193.7z M193.7,207.8
		c-7.1,0-12.8,5.8-12.8,12.9c0,7.1,5.7,12.9,12.8,12.9c7.1,0,12.8-5.8,12.8-12.9C206.5,213.6,200.8,207.8,193.7,207.8z
		 M193.7,231.7c-6,0-10.9-4.9-10.9-11c0-6,4.9-11,10.9-11c6,0,10.9,4.9,10.9,11C204.6,226.7,199.7,231.7,193.7,231.7z M148.7,84.1
		c0,24.6,20,44.5,44.6,44.5c24.6,0,44.6-19.9,44.6-44.5s-20-44.5-44.6-44.5C168.6,39.7,148.7,59.6,148.7,84.1z M193.2,41.6
		c23.5,0,42.7,19.1,42.7,42.6s-19.2,42.6-42.7,42.6c-23.5,0-42.7-19.1-42.7-42.6S169.7,41.6,193.2,41.6z"/>
</svg>
