
<svg class="race_emblem" viewBox="0 0 386 360" xmlns="http://www.w3.org/2000/svg">
    <path d="M329.9,186.4c0-28-8.7-54-23.5-75.6L285.9,131c-1.2,1.4-19.7,19.5-25.9,25.5l-22.3,21.9c0.5,2.6,0.8,5.2,0.8,8c0,24.8-20.4,45-45.6,45c-17.5,0-32.5-9.8-40.2-24.1l-20.4,20.1c13.3,19,35.3,31.7,60.5,31.7c39.3,0,71.3-30.3,73.5-68.5l31.7-31.2c2.3,8.7,3.6,17.7,3.6,27.1c0,59.2-48.7,107.2-108.8,107.2c-34.9,0-65.8-16.3-85.7-41.4l-20,19.7c25.1,30.1,63,49.5,105.6,49.5C268.6,321.3,329.9,260.9,329.9,186.4z M193,319c-39.6,0-76.9-17.1-102.6-47.1l16.7-16.4c21.2,25.7,52.4,40.3,85.9,40.3c61.2,0,111.1-49.1,111.1-109.5c0-9-1.2-18.3-3.7-27.6l-1-3.8l-2.8,2.8l-31.7,31.2l-0.6,0.6l0,0.9c-2.1,37.2-33.4,66.3-71.2,66.3c-22.7,0-44.1-10.9-57.6-29.1l16.9-16.6c8.7,14,24,22.6,40.7,22.6c26.4,0,47.9-21.2,47.9-47.2c0-2.2-0.2-4.5-0.6-7.2l21.4-21.1c5.7-5.5,24.2-23.6,25.9-25.6l18.4-18.1c14.1,21.5,21.6,46.3,21.6,72C327.6,259.5,267.2,319,193,319z M77.2,259c0,0,43-43,70.2-72.6c0-24.8,20.4-45,45.6-45c16.9,0,31.6,9.2,39.4,22.7l20.3-20c-13.4-18.3-35-30.4-59.7-30.4c-38.6,0-70.3,29.3-73.4,66.6l-32.5,30.2c-1.8-7.8-2.9-15.9-2.9-24.2c0-59.2,48.7-107.2,108.8-107.2c34.3,0,64.8,15.8,84.7,40.3l20-19.8C272.7,70.3,235.1,51.5,193,51.5c-75.6,0-136.9,60.4-136.9,134.9C56.1,221.4,71.7,250.9,77.2,259z M193,53.8c39.1,0,76,16.7,101.7,45.8l-16.8,16.5c-21.2-24.9-52-39.2-84.9-39.2c-61.2,0-111.1,49.1-111.1,109.5c0,8.1,1,16.4,2.9,24.7l0.9,3.8l2.9-2.7l32.5-30.2l0.6-0.6l0.1-0.9c1.5-17.5,9.5-33.8,22.6-45.8C157.8,122.7,175,116,193,116c22.1,0,43.2,10.4,56.7,27.9l-16.8,16.6c-8.8-13.2-23.9-21.4-39.8-21.4c-26.1,0-47.4,20.7-47.9,46.3c-23.5,25.5-58.8,61.1-67.5,69.9c-7.4-12.1-19.2-39.1-19.2-69C58.4,113.3,118.8,53.8,193,53.8z M35.1,217.5V79.2c0-25.1,13.6-52.9,33.8-69.1C30.7,10.8,0,41.4,0,79.2V259c0,38.2,52.5,89.9,91.2,89.9h28.1v-27.7C80.5,321.3,35.1,255.7,35.1,217.5z M117,346.7H91.2c-37.4,0-89-50.8-89-87.7V79.2c0-17.6,6.9-34.3,19.5-46.9c11-11,25.2-17.8,40.6-19.5c-17.9,17-29.6,42.8-29.6,66.4v138.3c0,40.1,45.4,103.5,84.2,105.9V346.7z M317.1,10.1c20.2,16.2,33.8,44,33.8,69.1v138.3c0,38.2-45.5,103.7-84.2,103.7v27.7h28.1c38.8,0,91.2-51.7,91.2-89.9V79.2C386,41.4,355.3,10.8,317.1,10.1z M383.7,259c0,36.9-51.5,87.7-89,87.7H269v-23.2c38.8-2.4,84.2-65.8,84.2-105.9V79.2c0-23.6-11.7-49.5-29.6-66.4c15.4,1.7,29.6,8.5,40.6,19.5c12.6,12.6,19.5,29.2,19.5,46.9V259z"/>
</svg>
