
<svg class="race_emblem" viewBox="0 0 386 360" xmlns="http://www.w3.org/2000/svg">
    <path d="M358,139.2c-0.7-4-1.3-8-2-11.9c-6.2-14.3-13.9-24.2-13.9-45.7c-4-1.3-7.9-2.7-11.9-4c-5.3-6-10.6-11.9-15.9-17.9h-4c-2.6-3.3-5.3-6.6-7.9-9.9h-4c-2-2.7-4-5.3-5.9-8h-4c-0.7-1.3-1.3-2.7-2-4c-4-1.3-7.9-2.7-11.9-4c-0.7-1.3-1.3-2.7-2-4c-2.6-0.7-5.3-1.3-7.9-2c-0.7-1.3-1.3-2.7-2-4h-4v-2h-5.9v-2H243v-2h-9.9c-9-2.9-20.9-7.2-29.7-9.9h-11.9V6h-7.9V4h-4V2h-5.9V0H130v2h-4v2h-4v2h-4v2h-4v2h-4v2h-4v2h-4v2h-4v2c-2,1.3-4,2.7-5.9,4c0.1,20.3,17,26.4,31.7,31.8h7.9v2h5.9v2h5.9v2h7.9c9,3.2,16.4,6.8,25.8,6.8c2.5,0,5.1-0.2,7.9-0.8v-4c15.5,0.3,28.1,2.3,39.7,6h9.9v2c4,0.7,7.9,1.3,11.9,2c1.3,4.2,1.5,4.7,2.1,4.7c0.2,0,0.4,0,0.7,0c0.6,0,1.5,0.2,3.1,1.3c0.7,1.3,1.3,2.7,2,4h5.9v2h4c1.3,2,2.6,4,4,6c2,1.3,4,2.7,5.9,4v2h4c4.6,5.3,9.3,10.6,13.9,15.9h4c2,2.7,4,5.3,5.9,8h2c1.3,4,2.6,8,4,11.9c1.3,0.7,2.6,1.3,4,2v6h2v4h2c1.3,4,2.6,8,4,11.9h2v6h2v4h2v6h2v6h2v6h2c1.3,9.3,2.6,18.6,4,27.8c2.2,7.2,7.4,28.2,4,39.8h-2v8h-2c-1.3,7.3-2.6,14.6-4,21.9h-2c-0.7,4.6-1.3,9.3-2,13.9h-2v6h-2v8h-2c-1.3,6-2.6,11.9-4,17.9h-2v4h-2v6h-2c-0.7,2-1.3,4-2,6c-1.3,0.7-2.6,1.3-4,2c-3.3,4.9-3,8.7-7.9,11.9v2c6.8-1.8,11.3-7.6,15.9-11.9c0.7-1.3,1.3-2.7,2-4h4c0.7-1.3,1.3-2.7,2-4h2v-4c1.3-0.7,2.6-1.3,4-2v-4c1.3-0.7,2.6-1.3,4-2c0.7-2.7,1.3-5.3,2-8c1.3-0.7,2.6-1.3,4-2c1.3-4,2.6-8,4-11.9c1.3-0.7,2.6-1.3,4-2v-4h2v-4h2v-4h2v-4h2v-4c1.3-0.7,2.6-1.3,4-2c0.7-2.7,1.3-5.3,2-8h2v-4c1.3-0.7,2.6-1.3,4-2v-4h2v-8h2v-15.9C378.4,209.2,367.5,163.4,358,139.2z M368,238.1l-0.1,0.3v14.2h-2v8h-2v4.7l-0.4,0.2l-2.5,1.2l-1.1,0.5v3.2h-1.5l-0.4,1.5l-1.3,5.1l-0.5,2l-3.2,1.6l-1.1,0.5v3.2h-2v4h-2v4h-2v4h-2v4.7l-0.9,0.4l-2,1l-0.7,0.4l-0.3,0.8l-2,6l-1.7,5.2l-3.2,1.6l-0.8,0.4l-0.2,0.9l-1,4l-0.8,3.1l-3.2,1.6l-1.1,0.5v4l-0.2,0.1l-2.6,1.3l-1.1,0.5v3.2h-1.2l-0.5,1.1l-0.7,1.3l-0.8,1.6h-4l-0.5,1.1l-1.8,3.7c-0.8,0.8-1.6,1.6-2.4,2.4c-2,2-4,4-6.2,5.7c0.6-1,1.1-2.1,1.6-3.2c0.6-1.3,1.2-2.7,2.1-4.2l0.8-0.4l2.6-1.3l0.7-0.4l0.3-0.8l0.4-1.2l1.1-3.4h2.5v-6h2v-4h1.6l0.3-1.6l1.6-7.3l2-9h2.4v-8h2v-6h1.7l0.2-1.7l1-7l0.7-5.3h1.9l0.3-1.6l2-10.9l1.7-9.3h2.3v-8h1.5l0.4-1.4c4-13.4-2.9-37.4-3.9-40.8l-3.9-27.7L334,181h-1.7v-6h-2v-6h-2v-6h-2v-4h-2v-6h-2.5l-0.7-2l-2.8-8.5l-0.5-1.4h-1.4v-4h-2V132l-1.1-0.5l-3.2-1.6l-3.7-11.2l-0.5-1.4h-2.4l-5.4-7.2l-0.6-0.8h-4.1l-8.7-9.9l-4.6-5.3l-0.6-0.7h-2.9v-1.1l-0.9-0.6l-5.6-3.8l-2-3.1l-1.7-2.6l-0.6-0.9h-3v-2h-6.7l-1.4-2.9l-0.2-0.5l-0.4-0.3c-1.6-1.1-2.9-1.6-4.1-1.7c-0.3-0.8-0.7-2.2-1-3.3l-0.4-1.2l-1.2-0.2l-8.6-1.4l-1.6-0.3v-2.3h-11.6c-12.3-3.8-25-5.7-39.9-6l-2,0V64c-2,0.3-4,0.5-5.9,0.5c-7.4,0-13.6-2.3-20.6-5c-1.5-0.6-2.9-1.1-4.5-1.7l-0.3-0.1h-6.3v-2h-5.9v-2H134v-2h-9.6C109.9,46.4,95,40.9,94.3,22.9l5-3.4l0.9-0.6v-1.1h4v-2h4v-2h4v-2h4v-2h4V8h4V6h4V4h4V2h39.7v2h5.9v2h4v2h7.9v2h13.6c4.6,1.4,10.1,3.3,15.3,5.1c4.8,1.7,9.8,3.4,14.1,4.7l0.3,0.1h8.2v2h9.9v2h5.9v2h4.7l0.1,0.2l1.3,2.7l0.4,0.8l0.9,0.2l5.3,1.3l1.8,0.4l1.6,3.2l0.4,0.7l0.8,0.3l11.1,3.7l1.6,3.2l0.5,1.1h4.2l5.4,7.2l0.6,0.8h4l7.3,9.2l0.6,0.7h4l15.3,17.2l0.4,0.4l0.5,0.2l10.5,3.5c0.2,16.5,4.9,26.1,9.9,36.4c1.3,2.7,2.7,5.5,4,8.5l1.9,11.7l0,0.2l0.1,0.2C365.5,163.7,376.3,209.4,368,238.1z M46.7,236.7h4v-2c2-1.3,4-2.7,5.9-4c2-2.7,4-5.3,5.9-8h4c4-4.6,7.9-9.3,11.9-13.9h4c4.6-5.3,9.3-10.6,13.9-15.9h4c7.3-8,14.5-15.9,21.8-23.9h4c4.6-5.3,9.3-10.6,13.9-15.9h4c0.7-1.3,1.3-2.7,2-4h2c3.3-9.9,6.6-19.9,9.9-29.8h2c3.3-6.8,5.5-12.6,5.9-21.9c-10.5,0.2-12.8,2.7-19.8,6v2H128c-3.3,4-6.6,8-9.9,11.9c-6.6,5.3-13.2,10.6-19.8,15.9v6c-1.3,0.7-2.6,1.3-4,2v4c-1.3,0.7-2.6,1.3-4,2v4c-1.3,0.7-2.6,1.3-4,2c-0.7,2-1.3,4-2,6h-2v4c-1.3,0.7-2.6,1.3-4,2v4c-1.3,0.7-2.6,1.3-4,2v4c-1.3,0.7-2.6,1.3-4,2v4c-1.3,0.7-2.6,1.3-4,2v4c-1.3,0.7-2.6,1.3-4,2v4c-1.3,0.7-2.6,1.3-4,2v4c-1.3,0.7-2.6,1.3-4,2v4h-2c-0.7,2-1.3,4-2,6c-1.3,0.7-2.6,1.3-4,2v4c-1.3,0.7-2.6,1.3-4,2c-0.7,2-1.3,4-2,6c-2,1.3-4,2.7-5.9,4v4c-2.6,2-5.3,4-7.9,6v4c-2,1.3-4,2.7-5.9,4c-3.2,4.5-3.9,8.5-7.9,11.9v2c11.8-1.2,22.9-11.2,29.7-17.9C44.1,240.6,45.4,238.7,46.7,236.7z M16.4,257.9c1.5-1.8,2.4-3.6,3.4-5.5c0.7-1.4,1.5-2.9,2.5-4.4l5.6-3.8l0.9-0.6v-4l2.3-1.7l4.9-3.7l0.8-0.6v-3.9l2.8-1.9l2.3-1.5l0.6-0.4l0.2-0.6l1.7-5.2l2.7-1.4l0.5-0.2l1.1-0.5v-4l2.9-1.4l0.7-0.4l0.3-0.8l1.5-4.6h2.5v-4.7l1.9-0.9l1-0.5l1.1-0.5v-4l2.9-1.4l1.1-0.5v-4l0.2-0.1l2.6-1.3l1.1-0.5v-4l1.4-0.7l1.5-0.7l1.1-0.5v-4l1.6-0.8l1.2-0.6l1.1-0.5v-4l0.1-0.1l2.7-1.4l1.1-0.5v-4l1.4-0.7l1.5-0.7l1.1-0.5v-3.2h1.4l0.5-1.4l0.7-2.1l1-3.1l2.4-1.2l0.8-0.4l1.1-0.5v-4l1.3-0.7l1.6-0.8l1.1-0.5v-4l1.7-0.8l1.2-0.6l1.1-0.5v-6.2l5.9-4.7l13.2-10.6l0.2-0.1l0.1-0.2l9.3-11.2h18.9v-2.7c0.9-0.5,1.8-0.9,2.6-1.3c4-2,6.7-3.5,13.2-3.8c-0.6,6.9-2.3,11.9-5.1,17.8h-2.2l-0.5,1.4l-9.5,28.5h-1.8l-0.5,1.1l-1.4,2.9H139l-0.6,0.7l-9.3,10.6l-4,4.6h-3.9l-0.6,0.6l-21.2,23.2h-4l-0.6,0.7l-4,4.6l-9.2,10.6h-4l-0.6,0.7l-0.2,0.2l-11.1,13h-4l-0.6,0.8l-3.2,4.2l-2.6,3.4l-5.7,3.8l-0.9,0.6v1.1h-3l-0.6,0.9l-3.9,5.8C35,247.5,26,255.4,16.4,257.9z M159.7,254.6h4c2-2.7,4-5.3,5.9-8h4c2-2.7,4-5.3,5.9-8h4c1.3-2,2.6-4,4-6h4c2-2.7,4-5.3,5.9-8h4c2.6-3.3,5.3-6.6,7.9-9.9h4c2.6-3.3,5.3-6.6,7.9-9.9h4c1.3-2.7,2.6-5.3,4-8h5.9c0.7-1.3,1.3-2.7,2-4h2v-4c1.3-0.7,2.6-1.3,4-2v-4c4-3.3,7.9-6.6,11.9-9.9c2-3.5,1.7-12.3,4-15.9c2-1.3,4-2.7,5.9-4c2.3-3.7-0.6-9.6,2-13.9h2c0.2-12.1-0.1-16.6-4-23.9c-7.3,2.7-14.5,5.3-21.8,8v2h-4v2h-4c-0.7,1.3-1.3,2.7-2,4h-4c-2,2.7-4,5.3-5.9,8h-4c-0.7,1.3-1.3,2.7-2,4c-5.9,2-11.9,4-17.8,6v2c-2.6,2-5.3,4-7.9,6v4c-3.3,2.7-6.6,5.3-9.9,8v4c-3.3,2.7-6.6,5.3-9.9,8v4c-3.3,2.7-6.6,5.3-9.9,8v4c-4.6,4-9.3,8-13.9,11.9v4h-2c-2,2.7-4,5.3-5.9,8c-2,1.3-4,2.7-5.9,4v4c-4,3.3-7.9,6.6-11.9,9.9v4c-3.3,2.7-6.6,5.3-9.9,8v4c-3.3,2.7-6.6,5.3-9.9,8v4c-2,1.3-4,2.7-5.9,4v4c-2,1.3-4,2.7-5.9,4v4c-2,1.3-4,2.7-5.9,4v4c-2,1.3-4,2.7-5.9,4v4c-2.6,2-5.3,4-7.9,6v4c-2.6,2-5.3,4-7.9,6c-8,8.1-17.1,18.9-19.8,31.8c7.1-0.7,11.8-2.3,15.9-6c0.7-1.3,1.3-2.7,2-4h4v-2c2-1.3,4-2.7,5.9-4c1.3-2,2.6-4,4-6h4c2.6-3.3,5.3-6.6,7.9-9.9h4c2-2.7,4-5.3,5.9-8h4c2.6-3.3,5.3-6.6,7.9-9.9h4c2-2.7,4-5.3,5.9-8h4c2-2.7,4-5.3,5.9-8h4c2.6-3.3,5.3-6.6,7.9-9.9h4c2-2.7,4-5.3,5.9-8h4C155.8,259.9,157.8,257.2,159.7,254.6z M148.8,260.5l-0.6,0.8l-3.5,4.6l-1.9,2.5H139l-0.6,0.7l-6.5,8.2l-0.8,1h-4l-0.6,0.8l-3.5,4.6l-1.9,2.5h-4l-0.6,0.8l-2.2,2.9l-3.2,4.2h-3.9l-0.6,0.7l-1.5,1.9l-5.8,7.3h-4l-0.6,0.8l-4.8,6.4l-0.5,0.7h-3.9l-0.6,0.7l-4.6,5.8l-2.7,3.4h-4.1l-0.6,0.9l-1.1,1.7l-2.6,4l-1,0.7l-4.6,3.1l-0.9,0.6v1.1h-3.2l-0.5,1.1l-1.8,3.6c-3,2.6-6.4,4-11.6,4.9c3.4-11.6,12-21.4,18.5-28l3.5-2.6l4.4-3.3l0.8-0.6v-4l0.9-0.7l6.2-4.7l0.8-0.6v-3.9l1.1-0.7l4-2.7l0.9-0.6v-4l5.1-3.4l0.9-0.6v-4l1.1-0.7l4-2.7l0.9-0.6v-4l5.1-3.4l0.9-0.6v-4.1l5.3-4.3l3.8-3.1l0.7-0.6v-4l8.2-6.6l1-0.8l0.7-0.6v-4l1.9-1.6l9.3-7.7l0.7-0.6v-3.8l1.1-0.7l4-2.7l0.3-0.2l0.2-0.3l2.5-3.3l2.9-3.8h3v-5.1l13.2-11.3l0.7-0.6v-3.9l3.3-2.7l5.9-4.7l0.7-0.6v-4l1.1-0.9l8.1-6.5l0.7-0.6v-4l3.3-2.7l5.8-4.7l0.7-0.6v-3.9l3.6-2.7l3.5-2.7l0.8-0.6v-1.5l7.6-2.5l8.9-3l0.8-0.3l0.4-0.7l1.4-2.9h3.7l0.6-0.8l5.4-7.2h4.2l0.5-1.1l1.4-2.9h4.7v-2h4v-2.6l11.3-4.1l7.6-2.8c2.7,5.5,3.1,9.5,3,19.4h-1.2l-0.6,1c-1.6,2.7-1.5,5.8-1.3,8.5c0.1,1.9,0.2,3.8-0.4,5.1l-0.9,0.6l-4.6,3.1l-0.3,0.2l-0.2,0.4c-1.4,2.2-2,5.8-2.5,9.2c-0.4,2.5-0.7,5.1-1.4,6.5l-11.6,9.7L241,182v3.7l-2.6,1.3l-0.3,0.1l-1.1,0.5v3.2h-1.2l-0.5,1.1l-0.9,1.8l-0.6,1.1h-5.9l-0.5,1.1l-0.7,1.5l-2.7,5.4h-3.7l-0.6,0.7l-4.3,5.4l-3,3.8h-4l-0.6,0.7l-5.5,6.9l-1.8,2.3h-4l-0.6,0.8l-5.4,7.2h-4l-0.6,0.9l-2.6,4l-0.7,1.1h-3.9l-0.6,0.8l-3,4l-2.4,3.2h-4l-0.6,0.8l-1.5,2l-3.9,5.2h-4l-0.6,0.8l-5.4,7.2H148.8z M290.6,206.8c-4.6,1.3-9.3,2.7-13.9,4v2h-4v2h-4c-0.7,1.3-1.3,2.7-2,4h-4c-1.3,2-2.6,4-4,6h-4c-1.3,2-2.6,4-4,6h-4c-2,2.7-4,5.3-5.9,8c-5.3,4.6-10.6,9.3-15.9,13.9v4c-3.3,2.7-6.6,5.3-9.9,8v4c-2.6,2-5.3,4-7.9,6v4c-2.6,2-5.3,4-7.9,6v4c-2.6,2-5.3,4-7.9,6v4c-2,1.3-4,2.7-5.9,4v4c-2,1.3-4,2.7-5.9,4v4h-2v4c-1.3,0.7-2.6,1.3-4,2c-1.3,4-2.6,8-4,11.9c-1.3,0.7-2.6,1.3-4,2c-0.7,2.7-1.3,5.3-2,8c-1.3,0.7-2.6,1.3-4,2v4c-1.3,0.7-2.6,1.3-4,2v4h-2c-0.7,2-1.3,4-2,6c4.4-0.6,5.2-0.2,7.9-2v-2h4c0.7-1.3,1.3-2.7,2-4c2-0.7,4-1.3,5.9-2c1.3-2,2.6-4,4-6h4c1.3-2,2.6-4,4-6h4c0.7-1.3,1.3-2.7,2-4c2-0.7,4-1.3,5.9-2c2-2.7,4-5.3,5.9-8h4c0.7-1.3,1.3-2.7,2-4c2-0.7,4-1.3,5.9-2c2-2.7,4-5.3,5.9-8h4c1.3-2,2.6-4,4-6h4c1.3-2,2.6-4,4-6c2-0.7,4-1.3,5.9-2c0.7-1.3,1.3-2.7,2-4c10-7,22.6-8,25.8-21.9c3.7,1.7,5.2,3.1,9.9,4c2-14.6,4-29.2,5.9-43.8h2v-4c3-5.9,7.1-9,7.9-17.9h-4V206.8z M157.8,356.9c-1,0.5-1.6,0.6-3.1,0.8l0.2-0.6l0.3-1h2.5V356.9z M292.3,210.8c-0.8,4.4-2.5,7.1-4.5,10.1c-1,1.5-2,3-2.9,4.9l-0.2,0.4v2.5h-1.7l-0.2,1.7l-3.9,29L277,272c-1.9-0.5-3.1-1.2-4.6-2c-0.8-0.4-1.7-0.9-2.8-1.4l-2.2-1l-0.5,2.4c-2,8.9-8.3,12-15.6,15.5c-3.1,1.5-6.4,3.1-9.4,5.2l-0.4,0.3l-0.2,0.5l-1.4,2.9l-0.2,0.4l-1.4,0.5l-3.8,1.3l-0.6,0.2l-0.4,0.6l-3.4,5.1h-4l-0.6,0.9l-3.1,4.6l-0.3,0.5h-3.9l-0.6,0.8l-3.5,4.7l-2,2.7l-2.2,0.7l-3.2,1.1l-0.8,0.3l-0.4,0.7l-0.5,1.1l-0.9,1.8h-3.7l-0.6,0.8l-1,1.3l-4.6,6.2l-1.3,0.4l-4.1,1.4l-0.8,0.3l-0.4,0.7l-1.4,2.9h-3.8l-0.6,0.9l-2.5,3.8l-0.9,1.3h-4L174,343l-0.4,0.7l-3.1,4.7l-5.3,1.8l-0.8,0.3l-0.4,0.7l-1.4,2.9h-4.7v-2.7l1.1-0.6l1.8-0.9l1.1-0.5v-4l1.3-0.6l1.6-0.8l0.8-0.4l0.2-0.9l0.4-1.5l1.4-5.6l1.2-0.6l1.9-1l0.7-0.4l0.3-0.8l3.7-11.2l1.9-0.9l1.4-0.7l1.1-0.5v-3.2h2v-4.9l5.1-3.4l0.9-0.6v-4l5.1-3.4l0.9-0.6v-4l4.8-3.6l2.3-1.8l0.8-0.6v-4l4.9-3.7l2.2-1.7l0.8-0.6v-4l2.9-2.2l4.2-3.2l0.8-0.6v-4l4.8-3.9l4.4-3.5l0.7-0.6v-4l5.4-4.8l9.8-8.6l0.2-0.1l0.1-0.2l1.5-2l3.8-5.1h4l0.6-0.9l3.4-5.1h4l0.6-0.9l2.7-4.1l0.7-1h4.1l0.5-1.1l1.1-2.2l0.3-0.6h4.7v-2h4v-2.5l9.2-2.6l0.7-0.2v1.3H292.3z"/>
</svg>
