<svg viewBox="0 0 700 551" xmlns="http://www.w3.org/2000/svg">
  <g fill="none">
    <path d="M0 0h700v551H0V0m519.54 28.44c-5.53 1.3-11.22 2.05-16.53 4.13-4.7 1.86-8.3 5.58-13 7.45-2.4 2.55-4.9 5.1-8 7-3.1 2.03-4.3 5.7-6.3 8.66-4.3 5.2-6.3 11.74-9.5 17.6-2.8 6.87-5.4 13.84-8.5 20.6-3.7 8.12-10.1 14.48-14.8 21.92-4.6 5.04-8.4 10.85-13.2 15.75-2.1 2.7-4.2 5.6-7.3 7.18l-3.2 3.1-1.8 1c-6.9 7.2-14.3 13.94-21.1 21.3-7.1 7.2-14.9 13.8-21.1 21.93-10.7 9.02-17.3 21.6-25.4 32.77-1.4 1.25-.3 2.96.3 4.28-3.4 3.5-6.6 7.2-10 10.6-3.3 5.4-8.5 9.1-12 14.3-6.9 8.1-13.2 16.8-19.2 25.6l-2.5.8c-3.1 4.8-7.1 8.8-10.6 13.3-6.8 5.4-13.3 11.9-15.8 20.4-.1 1.5.7 3.6-1.1 4.4-9.5 7.9-20.2 14.4-29 23.2-1.2 1.3-2.6 2.4-4.1 3.3l-1 1.4c-3.9 3.2-8.2 6.1-10.6 10.7-2.6 1.7-5.2 4.5-4.2 7.9 1-.7 1.9-1.6 2.7-2.5-1 2-.5 4.2-.7 6.3l-3.7 1.4c-.8.9-1.6 1.8-2.5 2.5-5.7 3.8-11.1 8-16.6 12-3.2 1.5-6 3.6-8.8 5.8-3.8 3-8.4 4.7-12.2 7.5-1.3 1.1-2.9 1.9-4.5 2.4l-1.5 1.4c-5.3 1.8-9.4 5.9-14.3 8.6l.4 1.7c-.9-.9-2.6-1.4-3.6-.1-3.2 2.3-7 3.6-9.7 6.6-5.5 4.7-12.3 7.9-17.6 12.9-12 7.9-23.5 16.6-35.2 24.9-7.8 6.6-17 11.2-25.6 16.7-5.6 2.5-10.1 6.7-15.3 9.8-3.4 2.2-6.4 5.2-10.2 6.8 1.1.7 2.2 1.4 3.3 2.2 7-5.3 14.5-9.8 21.8-14.6 8.9-5.4 18.3-10.2 26.4-16.8 17-12.5 34.5-24.1 51.3-36.9 7.3-5.8 16-9.6 23.6-15.1 9.3-5.3 18.7-10.3 27.5-16.5 5.4-2.8 9.6-7.2 14.7-10.4 5.1-3.5 9.6-7.8 15.2-10.5 3.1 1.1 6.3.2 9.4-.3 12.9-2.4 25.9-4 38.2-8.5 7-2 13.7-4.6 20.4-7.4 11.4-5.1 23.2-9.6 33.9-16.2 4.8-3.4 10.6-5 15.7-8.1 7.6-4.7 16.2-7.8 23.9-12.3l.7-.9 1.5.7c1.3-1.6 3.1-2.3 4.8-3.3 3.9-1.6 7.6-3.7 11.1-5.9 3-1.5 6-2.9 8.7-5 4-2.4 8.2-4.2 12.2-6.6 9.9-6.2 20-11.9 30-17.8 6.1-2.6 10.9-7.5 16.8-10.5 13.1-9.7 26.6-19.1 38.3-30.5 2.9-2.6 6.3-5 7.3-8.8 1-3 4.3-4.3 6.6-6.1 1.7-1.9 2.5-4.4 2.2-6.9 3-3.4 5.9-6.7 8.3-10.5 2.3-3.9 6.8-6.3 8.4-10.7.6-2.1 2.8-4.8-.2-6.1 5-4.7 6.6-11.5 9.7-17.5.6-1.2 1.1-2.4 1.4-3.7-.4-1.6-2.1-2.3-3.1-3.5-.3-1.2.4-2.4.8-3.6 2.1-5.3 3.7-10.8 5.6-16.2 2.2.1 4.5.2 6.7-.2.7-.1 3.8-.5 2-1.7-3-1-6.2-.1-9.4-.4-9.2-.4-18.3-2.8-26.7-6.5-4.3-1.2-8.4-3.1-11.9-6-8.1-7-15.9-14.8-20.2-24.8-1.3-4.2-1.4-8.7-2-13 0-3.1-1.8-6-4.4-7.7-4.1-1.3-8.5-1.7-12.8-1.8 3.5-5.8 5.1-12.7 9.4-18 2.4-3 4.4-6.3 7.2-9 6.8-5.4 13.8-11 22.1-14 4.6-1.8 9.6-2.2 14.4-3.3 8.3-1.5 16.5-3.8 25-3.8 2.9 0 5.9-.6 8.5 1 2.1-1.6 4.7.1 7 .2.5-.6 2.6-1.8 1-2.5-7.8-1.9-15.8-1.3-23.8-1.4-6.2 1.8-12.8 2.3-19.1 3.9m44.3-1.3l-.1 1.7c6.9 2.4 14.5 1.9 21.3 5 5.2.6 9.1 4.2 13.4 6.6 6.2 5.4 11.6 11.7 15.2 19.1 3.1 4.2 5.7 8.9 6.8 14 1 1.2 2 2.3 3.3 3.2l-6.3 6.9c-1.6 1.9-3.2 4.9-1.5 7.2 2.5 3 5 6 8.2 8.2-1.2.9-2.5 1.3-3.9 1.2-2.9 2.8-6.7 5.1-8 9.2-1.9 5-3 10.3-3.5 15.7-.2 3.5 2.3 6.5 2.1 10 0 1.4-.2 2.7 0 4 1.7 6.9 1.7 14.1 3.2 21 .5 1.9.6 3.9.4 5.9l1.3-.5c-.3 2.2-.4 4.5-.1 6.7 1.1 9.5 1.1 19.1.7 28.7-1.2 4-1 8.2-1.6 12.3h-.5c0-2.6.4-5.4-.9-7.7.9-6.4 1.6-12.9.2-19.3-1.3-4.9-2.7-9.9-4.9-14.5-2.1-3.7-3-8-5.6-11.5-4.3-7.8-7.6-16.5-14.3-22.7.1 1.2.1 2.3.2 3.5 2.4 2.5 4.1 5.6 5.6 8.8 2.7 3.7 4.7 7.7 6.1 12.1l2.6 3.2c1.6 4.9 4 9.5 6 14.3 1.3 5.9 2.7 11.9 2.6 17.9-2 7.8-1.5 16-.3 23.9l1.6-.8c.2 4.8-1.3 9.4-2.9 13.9-1.2 7.2-4 14-6 21-1 3.7-2.5 7.2-4.3 10.6-3.2 6.6-5 13.8-9.1 19.9-4 4.8-8.8 8.9-14.4 11.7-6.8 5-15 7.8-21.4 13.4-5.6 2.9-10.5 6.9-16.3 9.6-5.2 3.2-11.3 5-16.1 9-8.8 3.3-15.7 10-24.2 14-5.6 4.5-12.4 7.4-17.6 12.4-4.3 2.8-8.3 6.2-12.8 8.6 0 .5.1 1.3.1 1.8l3.7-1.1 1.7 1.5c12.6-2.8 25.5-4.9 37.4-10.3 7.8-2.8 14.9-7.1 22.3-10.9 4.5-4 10.5-5.9 14.6-10.3 8.4-5.5 15.6-12.5 22.7-19.5 2.9-3.7 6.9-6.2 9.4-10.1 4.8-5.1 9.2-10.6 12.4-16.9 2.8-4.3 5.3-8.7 7-13.6 2.1-6.3 5.9-12 7.3-18.6 3.9-10.7 7.3-21.7 9-33l1.1-1.4c0-8.3 2.5-16.3 2.7-24.5.8-21.9-3.9-43.4-6.4-65.1-.6-3.4-2.4-6.8-1.4-10.3 1.5-5.3 2.7-10.9 6-15.5 3.1-4 8.3-5.4 11.8-9 6.4.8 12.6-1.3 18.8-2.1 5.6-1.1 11.6-1 16.4-4.4-1.8-3.3-5.8-3.4-8.8-4.7-9.9-4.2-20.2-7.4-30.1-11.4-2.6-2.6-3.8-6.3-5.2-9.6-4.6-10-11.4-18.6-19.2-26-6.1-3.5-11.9-8.6-19.3-8.7-5.6-1.9-11.4-2.3-17.2-3.5l-.8.3m19.4 36c.3 3.2 3.7 4 5.7 5.9 3.3 2.4 3.3 6.7 4 10.3 3.6.5 1.7-4.5 1.2-6.5-.5-5.6-6.3-8.1-10.9-9.9m-8.6 7.2c1.7.3 3.9-.1 5.2 1.3.2 1.1.3 2.2.4 3.3l-3.9-.3c2.9-1.5-.7-3.3-2-4.3-1.3 4.1-.35 8.7 2.4 11.9l1.8.6c-2.3-.5-4.55-1.6-6.2-3.4-.1-3.2-.5-6.6.9-9.6-.8-.6-1.5-1.3-2.3-1.9-1.6 3-2.4 6.4-1 9.7l-.6 3.4c8.5 7.8 20.8 6.3 31.4 7.6 2 .9 3.8 2.1 5.13 3.8-.1 1.6.5 3.6-1.1 4.6-2.8 2.1-5.7 4.2-8.5 6.3-3.8 1.9-8 2.9-11.9 4.5-4.5 1.4-8.7 3.6-13.5 4.1-5.6 1.4-11.3 2.7-17.1 2.7-7.6-.2-15.2 1.6-22.7-.1-6.3-.8-11.2-5.1-16.4-8.4-4.5-3.1-6.6-8.2-8.9-12.9-.8.8-1.7 1.6-2.5 2.3l4.6 7.5c3.9 5.4 9.6 8.9 15.3 12.3 5.6 1.3 11.3 3.3 17.1 2.1l.9 1 1.3-1.3c6.8.3 13.5-.2 20.2-1 7.3-.9 14.3-3.4 21.2-5.9 4.6-2.3 10-2.9 14.1-6 3.2-2.4 6.7-4.6 9.8-7.2.9-3.5-.2-7.6-3.3-9.7-7.2-2.1-14.7-1.7-22.1-2.7 3.4-1.5 7.6-3.4 7.8-7.7-1.4-4.8-5.8-8.2-10.5-9.4-2.4-1-4.2.9-5.4 2.7M504 78c-1.1 2.6-2.3 5.1-3.5 7.6-.7 4.2 1.4 8.2 3.4 11.7.5-1 1.1-2 1.7-3-1.7-2.7-3.4-5.6-2.9-8.9 3.5-1.6 4.7-5.9 7.2-8.7 3.2-1.7 6.8-2.9 10.5-3 9.2-1.3 18.6-.3 27.9-1 4.4.8 8.9 2 12.9 4 2.7 2.1 5.2 4.4 8.3 6V79c-5.4-4.8-12.2-7.9-19.3-8.7-9-.4-18 0-27 .1-7.1.3-13.9 2.9-19.4 7.3m54.6 57.1l-.7 2.6c9.9 0 20.3-1.1 29.6 2.7l1.7-1.7c-9.5-4.9-20.5-2.7-30.7-3.6M314.4 351.3c-6.52 5.04-13.24 9.8-20 14.5-3.73 1.77-6.36 5.16-10.15 6.87-13.73 8.34-28.33 15.13-41.66 24.12-8.2 3.9-15.6 9-23.5 13.3l2.1 1.3c-1.1.2-2 0-2.9-.6-4.4 1.9-8.4 4.7-12.7 6.9-6.9 4.9-13.7 9.9-21.1 14-3.2 2.9-7.2 4.5-10.7 7.1l1.8.7-2.5-.6-.6 4.4c3.8-2.5 8.6-3.7 11.2-7.8h1.7c11.7-8.1 23.7-15.9 36.1-22.9 5.7-3.8 11.6-7.3 17.7-10.5 3.7-2.7 9.2-3.7 11.3-8v1.2c7.3-4.5 15-8.4 22.6-12.2 4.3-3.2 9.3-5.2 13.3-8.6 3.5-3 7.9-4.6 11.5-7.5 4.7 2.2 9.8.4 14.7.2 6.4-.6 12.9.2 19.4-.4 10.2-1.6 20.6-1.4 30.8-3.1 7.9-1.5 15.5 1.6 22.8 4.1 4.2 1.6 8.7 2.1 13 3.4l-1.8 4.5c.4 4.9 3.2 9 4.3 13.8 4.2 11.6 6.4 23.9 8.3 36.1 1.2 11.8 4.1 23.8 1.5 35.6-3.8 7.1-12.6 6.9-19 10.1-.5.9-.9 1.9-1.3 2.8-2.6.3-5.2.3-7.7 1.1-.4.8-.2 1.6.5 2.3 2.4-.1 4.7-.3 7-.9-1 1.8-1.3 3.8-.6 5.8.1 8.1-2.9 17 1.4 24.6-4.3.1-8.5.8-12.7 1.5l-1.2 1.8-.4-1.5-6.9 1.6c0 .7-.1 2.3-.1 3.1 7.1-1.6 14.3-2.5 21.3-4.2 3.5-.4 7.4-3 10.7-.7.5 2.2.5 4.4.8 6.6l2.4-1c.8-2.9 2-5.7 2.9-8.5 1.7-.6 3.3-1.1 5-1.6 4.8-.6 9.6-1.1 14.4-2-.5 1.7-1.2 3.4-2.7 4.5-3.1 3.5-8.2 2-12.3 2.7-.4.8-.8 1.6-1.1 2.5 3.3.1 6.5.3 9.7.7 3.5-.1 6.5-2.2 9.4-3.8 3-1.6 3.6-5.3 4.8-8.1l2.4-.2c1.6 2.7 3.8 5.3 3.6 8.7 4.6-1.7 3.8-7.7 4.8-11.6l2.7-.3.1-3.2c-5.4 1.7-11.1 2.7-16.6 4.1-7.9 1.8-16.1 1.5-23.8 3.8-4.8 1.5-10 1.7-14.6 4 .1-7.3 4.3-13.4 5.6-20.4l1.7-.6c3.4-3.9 4-9.7 7.7-13.4 1.5-1.1 4.3-2.9 5.4-.3 6.2-2.1 12.8-2.9 19.2-4.7 5.9-1.3 11.8-2.9 17.8-3.7 9.9-1.5 19.3-4.8 29.1-6.8 8.2-2.4 16.7-3.8 24.9-6 6.1-.7 11.9-3.3 18.1-3.3 1.6 4.9-.2 10.1-1.1 15-.9 5.2 1.6 10.2 1.9 15.3-4.6-.3-8.6 2.6-13.2 2.7 0 .7-.1 2.1-.1 2.8 5-1.4 10-2.4 15-3.5 2.2 3.4 3.6 7.5 7.1 9.9 5.3 4.2 11.1 9.1 18.3 9.1-2.8-2.7-6.8-4-9.1-7.3-1.9-2.6-4.2-5.5-4.3-8.8 1.6-2.1 2.8-4.4 2.1-7.1 2.6 1.8 2.9 5.2 3.7 8 3.8-1.5 4.2-6.5 3.2-10 1.4-.3 2.8-.6 4.2-1 .4 3.9 3.2 7.6 1.7 11.6-.7 2.5-3 4.2-3.2 6.8 1.6-.6 3.3-1.3 4.4-2.7 3.7-4.6 8.4-9.8 7-16.2h-3c.6 1.7 1 3.4 1.2 5.2-1 1.6-2 3.4-2.9 5.1.5-3.7-1.4-7-2.6-10.4l3.9-.6c3.8-1.8 8-2.5 12.1-3.1 2.4 2.2 3.9 5 5 8 3.2-2.2 3-6.5 3.4-10 1.6-1 3.5-1.1 5.4-1.4 3.6-1.1 7.3-2.4 11.2-1.9l.4-2.7c-6.1-.5-11.5 2.9-17.6 3-6.4 1.6-12.9 2.3-19 4.7-7.1.5-13.3 4.4-20.4 4.7-6.7-8-6.4-21.2 1-28.7 4.7-4.3 11.5-3.3 17.4-3.8 2.3-3.2 6.6-2.3 9.9-3.4 9.5-1.6 18.4-5.7 28.1-6.2 3.6-.2 7-1.6 10.5-2.7 4.4-.9 9.3-1 13.2-3.8.9-.5 1.3-1.3 1-2.4-5.9 3.1-12.6 3.4-18.9 5.5-4.4 1.5-9.3.6-13.7 2.3-8.8 1.8-17.3 4.6-26.1 5.9-3.5-2.5-7.7-4.3-12-4.7-6.2 1.2-12.6.6-18.7 2.4-2.4-1.2-5-2.1-7-3.9-10.3-8.8-20.1-18.1-29-28.4-8.4-6.9-16.1-14.6-22.7-23.3-1.7-2.4-3.1-4.9-4.5-7.4l1.4-3.1c-3 .5-5.9 1.4-8.8 2.1-6.1-1-11.8-5-18.2-4-.9 2.7-1.6 5.6-1 8.5l-1 1.8c6.9 5.8 14.6 10.7 22.8 14.6 17.1 9.9 32.5 22.5 46.7 36.2 5.3 3.8 9 9.4 14.7 12.7-1.9 1.5-.4 3.5-.1 5.3-3.3.9-6.6 1.4-9.8 2.6-3.3 1.3-7 1-10.3 2.2-7.7 2.5-15.8 3-23.5 5.6-6.3 2-13.1 2.2-19.4 4.5-9.4 1.9-18.9 3.2-28 6-5.7.8-11.1 3.1-16.9 2.6-3.5.6-7.7.8-9.9 4-2.1 3.3-4.6 6.6-5.1 10.6-.1-1.6 0-3.6-2-4-2.4-1.1-4.2 1.4-6.3 2.4.4-3.1 2.5-5.6 2.7-8.7 4.1-1.4 8.5-1.7 12.2-4 4.3-2.3 8-6.6 7.3-11.7.9-9.3-1.3-18.5-2.3-27.7-.2-6.8-2.5-13.3-3.2-20-2.2-10.1-5.7-19.9-8.8-29.8-1.1-2.6.1-5.2.7-7.7 5.2 0 10.5 2 15.7.5l1.4 1 2.9-.5c-2.6 4.5-7.2 8-8 13.3-.5 7-1.4 14.1-.1 21 1.8 9.6 3.7 19.2 4.8 29 .2 5 1.5 9.9 2 14.9 1.4 3.3 2 6.8 3.3 10.2 1.8 2.4 4.9 4.6 8 4-1.2-2-3.2-3.4-5.3-4.5-1.7-5.8-3.3-11.7-4.7-17.6-.2-5.1-.8-10.2-1.5-15.2-3.1-14-6.2-28.5-3.9-42.8 1.3-4.4 6.6-6.8 6.4-11.7 4.9.2 9.7.3 14.6.5 1.5.1 2.3-.6 2.6-2.3-2.5-.7-5-.8-7.6-.7-8.5.3-16.8-1-25.2-1.4-8.4-.3-16.3-2.9-24.3-5.2-3.1-.9-6-2.8-9.4-2.9-5.7-1.3-11.4.2-17 1.3-6.5-.3-12.9.64-19.3 1.54l-1.5-.2c-9.1.8-18.2.6-27.3 1.3-2.3.2-4.6 1-6.9.3 4.5-3.7 9.3-7 14.1-10.3 4-3.2 8.4-5.9 12.9-8.4 2.6-1.2 3.9-4 4.4-6.7-6.4 3.1-12 7.5-18.1 11.1m-153.1 95v1.9l-1.2-1.8c-1.5 1.4-3.1 2.7-4.7 4-2.5-.1-5.2 1.3-3.8 4.2l-.8-2.7c-1 .9-2.1 1.8-3.1 2.7-5.9 1.5-11.1 4.9-16.3 7.8l.2 1.5c-.7-.9-1.4-1-2.2-.3-2.5 1.7-5.2 3.2-8.2 4.3-8.8 3.2-16.4 8.9-25.3 12.1-5.5 2.8-11.3 5.2-16.7 8.2-6.1 3.3-12.5 5.8-18.6 9.2-5.9 2.2-12.1 4-18.1 5.8 1.6-.9 3.3-3.7.9-4.8-2.8.9-5.8 2-8.8 1.1 4.3-4 9.7-6.6 14.1-10.4l.1-1.6.1 1.6c.7-.3 2.1-.9 2.8-1.3-.5-1.3-.9-2.54-1.2-3.83-2.2 1.6-5 2.8-6.4 5.4-1.4.4-2.8.9-4.1 1.5-2.1 3.7-6.8 4.6-9.1 8.1.7 1.2 1.4 2.5 2.1 3.7 2.1.4 4.2.7 6.3.7l1 3.4c11.4-1.7 21.8-7.1 32.2-11.5 12.4-7 25.6-12.2 38-18.9 7.8-4 16-7 23.4-11.6 4.4-1.8 8.2-4.9 12.6-6.6 4.6-1.9 9-4.2 13.1-7.1 4.6-2.4 9.1-5 13.5-7.8l.1-4c-3.7 2.6-8 4-11.4 6.9m434.8 15l-.2 3.2c6.4-2.13 13.2-2.73 19.5-5.4 4-1.8 8.5-1.5 12.6-2.6.4-.8.7-1.7 1-2.5-11.2.8-21.7 5.6-32.8 7.3M357.2 481c-6.54 1.4-13.4 1.42-19.8 3.73-8.3 2.28-16.3 6.6-25.2 6.2l-1 3.2c1.8.1 3.8.5 5.5-.4 5.77-.2 10.98-3.04 16.36-4.8 9.3-3.7 19.4-4.23 29.02-6.43 6.9-1.1 13.3-4.1 20.3-4.5l-1.08-1.7-1.53-.7c-7.4 2-15 4-22.6 5.4m154.3-.4c-8.1 3-16.9 3.6-25.1 6l-1.1-.4c-5.2 1.42-10.5 2-15.7 3.4-6.6 1.2-12.76 4.43-19.5 4.54l-.4 3.3c6.3-.42 12.1-3.33 18.3-4.22 4.1-.7 8.1-2.1 12.2-3 10.45-1.3 20.7-4 31-6.1.1-1.1.2-2.3.35-3.4M355 514.3c-7.7 1.63-15.2 4.16-22.98 5.3-.87.93-1.66 1.95-1.94 3.24 4.8-.15 9.2-2.32 13.9-3.23 8.35-2.6 17.25-3.1 25.6-5.6l.7.8c.1-1.3.2-2.6.33-3.9-5.1 1.5-10.3 2.6-15.6 3.5z"/>
    <path d="M466.56 78.52c4.33-.98 8.67.27 12.85 1.38 2.8 1.1 2.7 4.6 3.4 7.02 1.4 4.95.6 10.5 3.3 15.03 4 6.72 8.7 13.03 14.6 18.18 4.5 4.82 10.1 8.5 16.3 10.56 8.6 3.8 17.8 6 27.1 6.9-1.4 6.7-4 13-6.1 19.5-.8 2.5 3.2 2.5 3.2 4.7-2.4 4.4-4.1 9.1-6.4 13.5-1.5 3.7-6.5 4.1-8 8-3.3 1.7-6.6 3.8-10.3 4.7-5.1 2.3-10.2 4.8-15.4 7 1.2.6 2.5.9 3.8 1.1 1.7-.9 3.4-1.8 5-2.9 1.1-.1 2.1-.2 3.2-.2 1.8-2.7 5.2-3.4 8-4.5-1.1 5.2-4.9 9-9.3 11.7.4-2 .9-4 1.4-6-.9-.4-1.9-.3-2.5.5-3.4 3.8-5.8 9.4-11.3 10.5 1-2.8 3.4-5.2 2.7-8.4-1.7 1.4-3.3 3-5.1 4.3-2.1 2.8-5 5-7.6 7.4-.2-.4-.5-1.2-.7-1.7-1.2 1.6-2.6 3.1-4.5 4 .8-2.8 1.9-5.5 2.2-8.4-2 .3-2.4 2.1-3.2 3.5-3 .7-4.5 3.6-6.8 5.4-1.8 1.5-3.7 2.9-5.9 3.8-.1-2.9 1-5.6 2-8.2 8.1-2.5 16.1-5.5 24.1-8.2 1.7-.6 3.2-1.6 4.8-2.4l-.2-1.9c-5 1.9-10 3.7-15.1 5.6-3.4 1.4-7.3 1.5-10.6 3.3-7.2 2.6-14.8 3.9-22.3 5.6-12.2 3.4-24.7 6-37.4 6.6-6 .4-12.1.1-18 1.4-7.4.2-14.7 1.6-22.1 2.5-7.2-.1-14.3.7-21.4 1.5-.6-1-1.1-2.1-.1-3 3.4-4.7 6.5-9.7 9.8-14.5 3.6-4.3 6.7-9.1 10.8-13 5-4.8 9.4-10.1 14.1-15.1 3.4-3.7 7.5-6.6 10.7-10.4 3.6-4.1 7.8-7.5 11.5-11.4 5.6-5.4 11-11.1 17.1-15.9 7.1-7 13.4-14.9 19.2-23 5.8-7.7 12.3-15.3 15.5-24.5 1.9-4 3.3-8.2 4.6-12.4zM618.74 90.1c-1.96-5.33 4.54-8.5 7.1-12.3 10.88 4.32 22.13 7.6 33.05 11.82-7.2 1.05-14.4-.46-21.5.65-6.3.4-12.5-.05-18.7-.18zm11.7 2.4c2.16.48 4.36.2 6.55-.05 4.3-.57 8.6-.06 13 .02-5.9-.2-11.3 2.6-17.1 2.1-2.8.16-6.5-.18-7.6 3.15-1.4-1.63-2.7-3.28-3.9-5 2.9-.1 5.9-.1 8.8-.23z"/>
    <path d="M524.64 186.77c2.25-1.18 4.42-2.5 6.67-3.7-.9 5.72-5 10.8-10.2 13.2.7-3.35 1.8-6.58 3.6-9.5zm-6.18 10.56c1.54-.3 1.96 2.3 3.72 1.17-3.4 4.3-6.4 9.2-11.13 12.2.52-1.9 1.03-3.84 1.46-5.78-2.7 1.34-3.4 4.48-4 7.17 1.8.2 3.6.2 5.3-.1-1.1 3.3-4.4 4.7-6.8 6.9-2.1 1.4-4.5 2.4-6.9 3.3.8-2.6.7-5.6 2.8-7.4 2.6-2.5 4.7-5.4 6.9-8.2-.9-.3-1.9-.6-2.8-.8-.3 3.2-3.5 6.1-6.6 6.9-.1-5.6 6.2-8.3 8.9-12.5 0 1.9-.3 3.9.4 5.8 2.2-3.8 6.9-5.1 8.9-8.9zm-30.14 15.04c3-2.2 5.7-4.75 8.18-7.52l.4 3.8c-2.62 3.36-5.76 6.24-9.7 7.98l1.12-4.26zm-26.62-2.5c2.9-.8 5.97-1.03 8.77-2.23 0 .2 0 .6-.02.82-3.93 2.2-7.48 4.95-11.2 7.46.47-2.07.06-5.07 2.44-6.05zm11.48 7.4c2.9-1.54 5.16-4.03 7.52-6.27l.9 3.2c-3.76 4.12-8.75 6.83-13.65 9.33-.1-1.4-.5-2.98.62-4.12.9-1.6 3.12-1.3 4.6-2.1zM451 214.9c1.15-3.05 4.23-3.33 7.03-3.6-1.08 1.54-1.8 3.35-3 4.8-2.9 1.57-5.8 3.1-8.72 4.57 1.5-2.5 3.1-6.53 6.7-5.16l-2-.6zm7.6 3.8c3.88-.85 6.63-3.7 9.15-6.56-.1 1.32-.06 2.68-.4 4-6.02 2.38-9.34 8.74-15.46 11 0-3.77 3.6-5.8 4.5-9.2l2.2.77zm31.73-.52c3.02-1.25 5.15-3.78 7.08-6.32.2 1.6 1.1 2.4 2.7 2.4-1.5 4.48-5.8 6.72-9.1 9.76-2.2 1.13-4.6 1.93-6.9 2.85.5-3.68 2.7-7.35 6.3-8.7zm-46.83-3.86c1.98-1.1 4.27-1.06 6.5-1.14-4.4.9-7.22 4.6-9.93 7.8-4.87 6.48-10.2 12.8-17.67 16.35-4.25 4.24-9.8 6.87-13.93 11.24-1.78 2-4.53 2.63-6.48 4.4-3.7 3.03-7.5 6.1-11.8 8.2-3.3 1.97-6 4.8-9.3 6.66-7.2 4.04-13.5 9.32-20.4 13.58-4.3 2.3-8 5.2-12.1 7.7-6.1 3.3-11.9 6.9-17.7 10.6-8.8 4.3-17.9 8.1-27.6 9.8-5.1 1-10.2 1.3-15.2 2.4-1.8.1-3.5-.5-5.2-.8-.9-6.9 5.1-12.1 9.2-16.8 1.2.6 2.2.3 3-.7.5 4 5.2 2.3 7.9 2.5 7.9-1.4 15.4-4.7 23.1-7 6.2-1.3 11.9-4.3 17.7-6.6 7.9-4.2 15.9-8.4 23.2-13.7 16.2-10.5 30.5-23.5 45.1-36.2 4.1-4.8 10.3-8.1 12.8-14.2 6.2-.9 12.4-1.8 18.4-3.6zm30.98 9.46c4.02-3.16 7-7.4 11-10.55-.96 2.14-1.05 4.47-1.43 6.73-2.1 2.48-5.05 4-7.92 5.4-.4-.4-1.24-1.18-1.65-1.58z"/>
    <path d="M403.3 219.5c6.64-.05 13.24-.83 19.83-1.57-4.1 5-9.04 9.14-13.68 13.63-8.24 6.55-15.74 14.04-24.1 20.47-2.43 1.7-4.74 3.58-6.92 5.6-10.74 6.86-20.7 15.02-32.3 20.5-5.52 3.2-11.72 4.82-17.63 7.1-10.5 2.22-20.25 8.44-31.28 7.57.6-5.75 5.06-9.5 8.5-13.67.4.6.78 1.22 1.17 1.83l2.6.97c1.9-2.04 4.6-2.46 7.1-3.38 4.3-2.42 8.9-4.25 12.9-7.1 17.6-10.5 35.1-21.16 52.1-32.6 6.6-6.28 14-11.57 21.3-17.05l.2-2.3zm51.5 9.68c4.1-3.57 7.8-7.5 11.43-11.54-.93 2.9-1.68 6.97.83 9.2 1.7-.45 3.15-1.5 4.74-2.2 1 1.03 1.8 2.3 3.07 3 2.72.2 4.82-1.93 6.94-3.3.1.7.2 2.1.3 2.8l1.4 1c-2.8 2.77-6.5 4.33-10.4 4.76l-1.6-1.53c.3-1.22 1.5-2.44.9-3.77-1.6-.23-2.8 1.52-4.4.62-2.3.22-4.3 1.84-6.7 2.07-1-.9-1.9-1.9-2.9-2.9-1.1.6-2.3 1.1-3.4 1.7z"/>
    <path d="M387.06 221.42c4.8-1.37 9.94-.77 14.84-1.83-6.46 5.6-13.54 10.6-20.03 16.2-7.54 4.7-14.88 9.8-22.42 14.6-6.26 3.1-11.62 7.8-17.9 10.9-10.63 6.5-21.36 12.9-32.95 17.5 1.72-6.4 7.06-10.6 10.42-16 3.67-6 9.2-10.6 12.57-16.7-.2 1.9-.7 4.2 1.5 5.2 4.3.2 8.1-2.1 12-3.6 4.8-3 9.3-6.3 14.7-8.3 9.4-5.5 18.2-12.1 27.2-18.4zm52.24 6.08c.27-2.56 3.36-4.08 4.4-6.52l1.26 2.65c2.4-.57 4.78-1.27 7.04-2.3-1.22 1.66-3.15 3.33-2.62 5.6.1 2.36 3.15 1.93 3.87 3.87-1.7-.2-3.6 0-5.04-1.08-.7-1.4-1.3-2.97-2.5-4.06-1.1 2.55-4.1 2.36-6.3 1.84z"/>
    <path d="M484.53 228.72c5.2-.67 9.2-4.07 12.65-7.76 0 2.3 1.8 2.86 3.73 3.15l3.8-1.7c-2.3 4.3-6.4 7.1-9.7 10.6-4.6 4.8-10.4 8.2-15.3 12.7-7.8 4.6-14.4 11.1-22.4 15.5-5.7 3.2-10.6 7.6-16.7 10.1-21.9 13.2-43.8 26.6-66.7 38.1l-1.9-1-.1 2.5c-5.4 2-10.8 4.2-15.8 7.1-6.4 4-13.5 6.8-20.1 10.7-6.6 4.8-14.4 7.5-21.6 11.3-4 2.3-8.8 2.7-12.5 5.5-12.5 4.8-25.1 9.6-38.3 11.8-9 2.3-18.2 5-27.6 4.3-3.2-.6.6-4.7-2.2-6.2 3.4-3.8 6.7-7.8 10.7-11.1 7.8-6.1 14.8-13.3 22.9-19.1 4.8-3.4 9.3-7.2 14.1-10.6 9.4 1.3 18.8-1.1 28-2.7 8.4-2.9 16.9-5.6 24.6-9.9 5.2-3.7 10.8-6.6 16.2-9.9 4.9-3.9 10.7-6.5 15.9-10 10.7-8.5 22.9-14.9 33.9-22.9 4.1-4.1 9.5-6.5 13.5-10.6 2.5-2.6 5.8-4.2 8.5-6.6 5.2-4.4 11.9-7.2 15.7-13 2.2 2 5.4 2.4 8.1 1.2 2.3 4.2 7.6 2.9 10.9.8 3.1 2.1 6.8 2.9 10.5 2.7l-.3-2.1 3.8-1.9-.5 3.1c1.3 1.1 2.5 2.7 4.3 2.3 3.9-.9 8.5-2.1 10.7-5.8zm-132.9-4.42c10.15-.96 20.37-1.3 30.5-2.15-2.6 1.74-4.86 4-7.6 5.57-5.67 3.02-10.26 7.8-16.36 10.1-7.78 2.84-13.98 9.08-22.14 11-.55-.05-2.6.38-2.07-.85 2.37-3.7 3.94-7.87 6.7-11.33 3.18-4.53 8.24-7.42 10.96-12.33zm211.8 83.22c6.95-2.82 12.73-7.78 19.48-11-1.9 2.46-3.9 4.94-5.8 7.45-11 11.7-22.4 23.3-35.9 32.03-3.5 1.92-6.7 4.48-10.2 6.53-9.6 4.56-18.8 10.1-28.9 13.4-3.2.9-6.3 1.97-9.4 3.15-1.6 0-3.1.18-4.6.73-4.3 1.6-8.9 1.7-13.2 3 8.6-5.8 16.9-12.2 25.7-17.7 10.2-6.2 20.5-12.3 30.7-18.4 6-2.1 11.3-5.7 16.7-8.9 5.7-2.6 10.5-6.9 15.8-10.2zM443.9 368.25c7.36-1.42 14.17 6.6 21.4 2.82 1.36 4.66 5.2 7.83 7.78 11.77 5.07 6.54 10.97 12.4 17.15 17.87 8.97 7.8 15.93 17.8 25.53 24.8 4.42 4.8 9.48 9.9 16.27 10.7 2.73.3 5.05-2.7 7.67-.8 6.2-.5 12.74-2 18.5 1.2-3.52 3-8.2 1.2-12.27 2.4-8.92 1.6-14 10.9-14.95 19.2.62 3.3-.14 6.7.8 10 .7 4 3.5 7 6 10l.24 2.9c-2.44-1.1-5.12-1.3-6.94 1-4.78-6.5-6.1-15.2-4.48-23 2.26-5.9.35-12.3 1.12-18.3-3.43-2.7-6.42-5.8-9.74-8.7-9.55-7.6-17.86-16.6-27.43-24.2-6.8-6.5-15.55-10.4-22.7-16.4-2.83-2.1-6.36-2.9-9.25-4.9-5.83-3.8-12.56-6.7-17.2-12.1 1.2-1.8 1.75-3.9 2.5-6zM394 483.02c1.15-.76 2.4-1.37 3.6-2.05.05 1.5.57 2.92 1.3 4.26l-1.6.8c-1.14 4.88-3.5 9.36-4.73 14.22-.86-5.76-.05-11.65 1.42-17.23zm139.25-.87c1.04.56 2.1 1.13 3.12 1.74.14 2.2.87 4.3 1.6 6.4-2.13-2.2-6.3-4.6-4.72-8.2zm-104.4 24.7c1.23-1.8 1.47-4.82 4.2-4.96-1.07 3.8-3.8 6.9-7.74 7.9 1.3-1 2.5-1.9 3.6-3z"/>
  </g>
  <g fill="#000">
    <path d="M519.54 28.44c6.3-1.63 12.85-2.1 19.1-3.94 7.98.06 16-.52 23.84 1.4 1.57.7-.52 1.92-1.02 2.56-2.3-.16-4.86-1.83-6.98-.22-2.58-1.6-5.62-1-8.45-.94-8.5-.04-16.76 2.26-25.06 3.76-4.8 1.1-9.8 1.53-14.4 3.35-8.34 3-15.35 8.6-22.17 14.1-2.8 2.7-4.75 6-7.15 9-4.28 5.4-5.86 12.2-9.35 18.1 4.3.1 8.7.5 12.82 1.8 2.56 1.7 4.4 4.6 4.37 7.7.5 4.4.7 8.8 2 13.1 4.2 10 12.1 17.8 20.2 24.8 3.5 2.9 7.5 4.8 11.9 6.1 8.4 3.8 17.5 6.1 26.7 6.6 3.1.2 6.3-.6 9.4.4 1.7 1.2-1.3 1.6-2.1 1.7-2.3.5-4.5.3-6.8.3-2 5.4-3.6 10.9-5.7 16.3-.4 1.2-1.2 2.4-.8 3.7 1 1.2 2.7 1.9 3.1 3.5-.4 1.3-.9 2.5-1.4 3.7-3.1 6-4.7 12.8-9.7 17.6 3 1.2.8 4 .2 6.1-1.6 4.4-6.1 6.8-8.4 10.7-2.4 3.8-5.4 7.1-8.3 10.5.2 2.5-.6 5.1-2.3 7-2.3 1.9-5.6 3.1-6.6 6.1-1.1 3.9-4.5 6.3-7.3 8.9-11.7 11.5-25.2 20.8-38.3 30.6-5.9 3-10.7 7.9-16.8 10.5-10.1 5.9-20.2 11.6-30 17.9-4 2.3-8.3 4.2-12.2 6.6-2.7 2-5.7 3.5-8.7 4.9-3.5 2.3-7.2 4.3-11.1 5.9-1.7 1-3.5 1.7-4.8 3.3l-1.6-.7-.8.9c-7.7 4.6-16.3 7.6-23.9 12.4-5.1 3-10.9 4.7-15.7 8.1-10.7 6.5-22.5 11.1-33.9 16.2-6.7 2.7-13.5 5.4-20.4 7.4-12.3 4.5-25.4 6.2-38.2 8.6-3.1.5-6.3 1.4-9.4.4-5.7 2.7-10.2 7-15.3 10.5-5.1 3.2-9.4 7.6-14.7 10.4-8.7 6.3-18.2 11.3-27.5 16.6-7.6 5.4-16.3 9.2-23.6 15.1-16.7 12.8-34.3 24.4-51.2 36.9-8.1 6.6-17.5 11.4-26.4 16.8-7.3 4.8-14.9 9.3-21.8 14.6-1.1-.8-2.2-1.4-3.3-2.1 3.8-1.5 6.8-4.5 10.2-6.7 5.2-3.1 9.7-7.3 15.3-9.8 8.6-5.4 17.8-10.1 25.6-16.7 11.7-8.2 23.2-16.9 35.2-24.8 5.3-4.9 12.1-8.1 17.7-12.8 2.6-3 6.5-4.3 9.7-6.6 1-1.3 2.6-.8 3.6.1l-.4-1.7c4.9-2.7 9-6.7 14.3-8.5l1.5-1.4c1.6-.6 3.2-1.3 4.6-2.4 3.8-2.9 8.4-4.5 12.2-7.5 2.7-2.2 5.6-4.3 8.8-5.8 5.6-4 11-8.2 16.6-12 .9-.7 1.7-1.6 2.5-2.5l3.7-1.4c.1-2.1-.3-4.3.6-6.3-.8.9-1.7 1.8-2.6 2.5-1-3.4 1.5-6.2 4.2-7.9 2.4-4.5 6.7-7.5 10.6-10.6l1-1.3c1.5-.9 2.9-2 4.1-3.3 8.8-8.7 19.4-15.2 29-23.1 1.7-.8 1-2.9 1.1-4.3 2.4-8.5 9-15 15.8-20.4 3.5-4.5 7.5-8.5 10.7-13.2l2.5-.8c5.9-8.8 12.2-17.5 19.2-25.6 3.5-5.2 8.7-8.9 12-14.3 3.4-3.4 6.6-7 10-10.5-.7-1.3-1.8-3-.4-4.2 8.1-11.2 14.7-23.7 25.4-32.7 6.2-8.1 14-14.7 21.1-21.9 6.8-7.3 14.2-14.1 21.1-21.3l1.9-1 3.2-3.1c3.1-1.6 5.2-4.5 7.3-7.2 4.8-4.9 8.6-10.7 13.2-15.7 4.8-7.5 11.2-13.8 14.9-22 3.1-6.7 5.7-13.7 8.5-20.6 3.1-5.8 5.2-12.4 9.5-17.6 2-3 3.1-6.6 6.3-8.7 3-1.9 5.5-4.4 8-7 4.7-1.9 8.3-5.6 13-7.4 5.3-2.1 11-2.8 16.5-4.1m-53 50.1c-1.2 4.2-2.7 8.4-4.6 12.3-3.2 9.3-9.6 16.8-15.5 24.5-5.8 8.1-12.1 16-19.1 23-6.1 4.9-11.5 10.5-17 15.9-3.8 3.9-8 7.3-11.5 11.4-3.3 3.8-7.3 6.8-10.7 10.4-4.7 5.1-9.2 10.4-14.1 15.2-4.2 3.9-7.2 8.7-10.8 13-3.3 4.8-6.4 9.8-9.8 14.5-1 .9-.5 2 .1 3 7.1-.8 14.3-1.6 21.4-1.5 7.4-.9 14.7-2.3 22.2-2.5 5.9-1.3 12-1 18.1-1.4 12.6-.6 25.1-3.2 37.4-6.6 7.5-1.7 15.1-3 22.3-5.6 3.3-1.8 7.1-1.9 10.6-3.3 5-1.9 10.1-3.6 15.1-5.6l.2 1.9c-1.6.9-3.1 1.9-4.8 2.5-8 2.7-16 5.7-24.1 8.1-1 2.7-2.1 5.3-1.9 8.2 2.2-.9 4.1-2.3 5.9-3.8 2.3-1.8 3.7-4.6 6.8-5.4.8-1.4 1.2-3.3 3.2-3.6-.3 2.9-1.4 5.6-2.2 8.4 1.9-.8 3.3-2.3 4.5-4l.7 1.6c2.5-2.4 5.4-4.5 7.5-7.4 1.8-1.3 3.4-2.9 5.1-4.3.7 3.2-1.7 5.6-2.7 8.4 5.6-1.1 7.9-6.7 11.4-10.5.6-.8 1.6-.9 2.5-.5-.6 2-1.1 4-1.5 6 4.4-2.7 8.2-6.6 9.3-11.8-2.8 1.2-6.2 1.8-8 4.5-1 0-2.1.1-3.1.2-1.6 1.1-3.3 1.9-5 2.8-1.3-.2-2.6-.5-3.8-1.1 5.2-2.1 10.2-4.7 15.4-7 3.7-.8 7-2.9 10.3-4.7 1.4-3.9 6.4-4.2 8-8 2.2-4.4 4-9.1 6.4-13.5 0-2.2-4-2.2-3.2-4.7 2.1-6.5 4.7-12.8 6.1-19.5-9.3-1-18.5-3.2-27.1-7-6.3-2.1-11.9-5.8-16.3-10.6-5.9-5.2-10.6-11.5-14.6-18.2-2.8-4.6-2-10.1-3.3-15.1-.8-2.4-.6-5.9-3.4-7-4.2-1.1-8.5-2.4-12.9-1.4m58 108.2c-1.8 2.9-3 6.2-3.6 9.5 5.2-2.4 9.3-7.5 10.3-13.2-2.3 1.2-4.4 2.5-6.7 3.7m-6.1 10.6c-2.1 3.8-6.8 5-8.9 8.8-.7-1.9-.4-3.9-.4-5.9-2.7 4.3-9 7-8.9 12.5 3.1-.8 6.3-3.7 6.6-6.9 1 .2 1.9.5 2.9.8-2.3 2.8-4.3 5.7-6.9 8.2-2.2 1.8-2.1 4.9-2.8 7.4 2.4-.8 4.8-1.9 6.9-3.3 2.4-2.2 5.7-3.6 6.8-6.9-1.8.3-3.5.3-5.3.1.6-2.7 1.3-5.9 4-7.2-.4 1.9-.9 3.8-1.5 5.8 4.7-3.1 7.7-7.9 11.1-12.3-1.8 1.2-2.2-1.4-3.7-1.1m-30 15l-.7 4.2c3.9-1.8 7-4.6 9.7-8l-.4-3.8c-2.5 2.7-5.2 5.3-8.2 7.5m-26.6-2.7c-2.4 1-2 4-2.5 6 3.7-2.5 7.3-5.3 11.2-7.5v-.9c-2.8 1.2-5.9 1.4-8.8 2.3m11.5 7.4c-1.5.8-3.7.5-4.6 2.1-1.1 1.2-.7 2.8-.6 4.2 4.9-2.5 9.9-5.2 13.6-9.3l-.9-3.2c-2.3 2.3-4.6 4.7-7.5 6.3m-22.2-2.4l2 .6c-3.6-1.4-5.2 2.6-6.7 5.1 3-1.5 5.9-3 8.8-4.6 1.2-1.4 2-3.3 3-4.8-2.8.3-5.8.6-7 3.6m7.6 3.8c-.7-.2-1.4-.5-2.2-.8-.8 3.4-4.5 5.4-4.5 9.2 6.1-2.3 9.5-8.7 15.5-11 .3-1.4.3-2.7.4-4-2.5 2.8-5.3 5.7-9.2 6.5m31.8-.5c-3.6 1.3-5.8 5-6.3 8.7 2.3-1 4.7-1.8 6.9-2.9 3.3-3.1 7.6-5.3 9.1-9.8-1.6 0-2.5-.8-2.6-2.4-1.9 2.5-4 5.1-7 6.3m-46.8-3.9c-6 1.8-12.2 2.7-18.4 3.6-2.4 6.2-8.6 9.4-12.8 14.3-14.6 12.6-28.9 25.6-45.1 36.2-7.2 5.3-15.2 9.5-23.1 13.7-5.9 2.3-11.5 5.3-17.7 6.6-7.7 2.3-15.1 5.6-23.1 7.1-2.7-.2-7.4 1.5-7.9-2.5-.8.9-1.9 1.3-3.1.7-4.1 4.7-10.1 9.9-9.2 16.9 1.7.3 3.4.9 5.2.8 5-1.1 10.2-1.4 15.2-2.4 9.7-1.6 18.8-5.5 27.6-9.8 5.8-3.7 11.6-7.2 17.7-10.5 4.1-2.5 7.8-5.4 12.1-7.7 7-4.2 13.3-9.5 20.4-13.5 3.4-1.83 6.1-4.7 9.3-6.6 4.3-2.1 8.1-5.2 11.8-8.2 2-1.8 4.7-2.4 6.5-4.4 4.2-4.4 9.7-7 14-11.3 7.5-3.5 12.8-9.9 17.7-16.3 2.7-3.2 5.5-6.9 9.9-7.8-2.2.1-4.5 0-6.5 1.1m31 9.48l1.6 1.6c2.8-1.4 5.8-3 7.9-5.5.4-2.2.4-4.6 1.4-6.7-4 3.16-7 7.4-11 10.5m-71.2-4.3l-.3 2.3c-7.3 5.5-14.7 10.8-21.3 17.1-17 11.46-34.5 22.1-52.2 32.6-4.1 2.87-8.7 4.7-13 7.1-2.5.9-5.3 1.36-7.2 3.4l-2.7-.8c-.4-.6-.8-1.2-1.1-1.8-3.4 4.1-7.9 7.9-8.5 13.66 11.1.9 20.8-5.33 31.3-7.54 5.9-2.3 12.1-3.9 17.6-7.1 11.6-5.5 21.6-13.7 32.3-20.5 2.2-2 4.5-3.9 7-5.6 8.4-6.5 15.9-13.9 24.1-20.5 4.7-4.5 9.6-8.6 13.7-13.6-6.6.8-13.2 1.5-19.9 1.6m51.5 9.7c1.2-.5 2.3-1.1 3.5-1.7.9.9 1.8 1.9 2.9 2.8 2.3-.2 4.3-1.8 6.7-2.1 1.6.9 2.8-.8 4.4-.6.6 1.4-.7 2.6-.9 3.8l1.6 1.6c3.9-.4 7.6-2 10.4-4.7l-1.4-1c-.1-.7-.2-2.1-.3-2.8-2.1 1.4-4.2 3.5-7 3.3-1.3-.7-2.1-2-3.1-3-1.6.7-3.1 1.8-4.8 2.2-2.5-2.2-1.8-6.3-.9-9.2-3.7 4-7.4 8-11.5 11.5m-67.7-7.7c-8.9 6.3-17.7 12.9-27.2 18.4-5.3 2-9.9 5.3-14.7 8.3-3.9 1.4-7.7 3.8-12 3.5-2.1-1-1.6-3.3-1.5-5.3-3.3 6.2-8.9 10.8-12.6 16.7-3.3 5.5-8.7 9.7-10.4 16.1 11.6-4.7 22.4-11.1 33-17.6 6.3-3.1 11.7-7.8 17.9-11 7.6-4.7 14.9-9.8 22.4-14.6 6.5-5.6 13.6-10.6 20-16.2-4.9 1-10 .4-14.8 1.8m52.2 6.04c2.2.5 5.2.7 6.3-1.9 1.2 1.1 1.8 2.7 2.6 4.1 1.4 1.1 3.3.9 5 1.1-.7-1.9-3.8-1.5-3.9-3.9-.5-2.2 1.4-3.9 2.6-5.6-2.3 1.1-4.7 1.8-7.1 2.3l-1.3-2.6c-1.1 2.5-4.1 4-4.4 6.6m45.2 1.2c-2.3 3.6-6.8 4.9-10.7 5.8-1.9.4-3.1-1.2-4.3-2.3.1-.8.4-2.4.5-3.2l-3.8 1.8.3 2.1c-3.7.3-7.3-.6-10.4-2.65-3.3 2-8.6 3.4-10.9-.8-2.7 1.2-5.8.8-8.1-1.2-3.8 5.8-10.5 8.6-15.7 13-2.7 2.4-6 4-8.5 6.6-4 4.1-9.4 6.5-13.5 10.5-11.1 8-23.3 14.4-34 22.94-5.2 3.5-11 6.06-15.9 10-5.4 3.3-11 6.27-16.1 9.96-7.8 4.3-16.3 7-24.6 9.9-9.2 1.6-18.6 4.1-28 2.8-4.8 3.4-9.3 7.2-14.2 10.6-8.1 5.8-15.1 13.08-22.9 19.2-4 3.3-7.3 7.3-10.7 11.1 2.8 1.5-1 5.6 2.2 6.2 9.4.7 18.6-2 27.6-4.3 13.2-2.2 25.8-7.1 38.3-11.8 3.7-2.8 8.5-3.2 12.5-5.5 7.17-3.8 15-6.5 21.6-11.3 6.6-3.9 13.7-6.7 20.1-10.7 5.1-2.8 10.5-5 15.9-7l.2-2.5 2 1c22.9-11.6 44.8-25 66.8-38.1 6.1-2.5 11-7 16.7-10.1 8-4.4 14.6-10.9 22.5-15.5 4.8-4.5 10.6-7.9 15.3-12.7 3.3-3.4 7.4-6.2 9.7-10.5-1.2.6-2.5 1.1-3.7 1.7-1.9-.3-3.7-.8-3.7-3.1-3.45 3.7-7.4 7.1-12.6 7.8m-132.6-5c-2.7 4.9-7.8 7.8-11 12.3-2.7 3.4-4.3 7.6-6.7 11.3-.5 1.3 1.6.8 2.1.9 8.2-1.9 14.4-8.2 22.2-11 6.1-2.3 10.7-7.1 16.4-10.1 2.8-1.6 5-3.8 7.6-5.6-10.1.9-20.3 1.2-30.5 2.2z"/>
    <path d="M563.83 27.1l.8-.28c5.72 1.2 11.6 1.6 17.16 3.48 7.4.1 13.1 5.16 19.2 8.68 7.8 7.42 14.6 16.08 19.1 25.92 1.4 3.33 2.6 7 5.2 9.6 9.9 4.04 20.2 7.15 30.1 11.35 3 1.36 7 1.42 8.8 4.7-4.8 3.46-10.9 3.34-16.4 4.4-6.3.8-12.4 2.87-18.8 2.07-3.5 3.6-8.7 5.06-11.8 9.06-3.3 4.57-4.6 10.18-6 15.52-1.1 3.5.7 6.9 1.3 10.3 2.5 21.63 7.2 43.2 6.3 65.1-.1 8.25-2.7 16.24-2.7 24.5l-1.1 1.42c-1.7 11.35-5.1 22.3-9.1 33.05-1.5 6.58-5.3 12.26-7.4 18.6-1.7 4.86-4.2 9.32-7 13.6-3.2 6.3-7.6 11.8-12.4 16.9-2.5 3.9-6.5 6.4-9.4 10.02-7 7-14.3 14-22.7 19.5-4.2 4.3-10.1 6.3-14.6 10.2-7.4 3.8-14.5 8.1-22.3 10.9-11.9 5.4-24.8 7.5-37.5 10.3l-1.7-1.6c-1.3.4-2.5.7-3.7 1.1l-.1-1.7c4.5-2.5 8.5-5.8 12.8-8.7 5.2-5 12-7.9 17.6-12.4 8.4-4 15.4-10.7 24.2-14 4.7-4 10.8-5.7 16.1-9 5.7-2.7 10.7-6.7 16.3-9.6 6.4-5.6 14.5-8.4 21.3-13.4 5.6-2.8 10.4-7 14.4-11.7 4.1-6.2 5.9-13.4 9.1-20 1.8-3.4 3.3-6.9 4.3-10.6 2-7 4.8-13.8 6-21 1.6-4.5 3.1-9.1 2.9-13.9l-1.6.8c-1.3-7.9-1.8-16.1.2-23.9.1-6.1-1.3-12-2.6-17.9-2-4.8-4.4-9.4-6-14.3-.9-1.1-1.7-2.2-2.6-3.3-1.3-4.4-3.4-8.4-6-12.1-1.5-3.2-3.2-6.3-5.6-8.8-.1-1.2-.2-2.3-.2-3.5 6.7 6.2 10 14.9 14.3 22.7 2.5 3.5 3.5 7.7 5.5 11.5 2.2 4.6 3.6 9.6 4.9 14.5 1.3 6.4.7 12.9-.2 19.3 1.3 2.4.9 5.1.9 7.7h.5c.6-4.1.4-8.3 1.5-12.3.4-9.6.3-19.2-.8-28.7-.3-2.2-.1-4.5.1-6.7l-1.2.5c.2-2 .1-4-.4-5.9-1.5-7-1.5-14.1-3.3-21-.3-1.4-.1-2.7-.1-4.1.2-3.5-2.3-6.5-2.1-10 .6-5.3 1.6-10.6 3.6-15.6 1.2-4.1 5.1-6.3 8-9.2 1.4.1 2.7-.3 3.9-1.2-3.2-2.2-5.7-5.2-8.2-8.2-1.6-2.4 0-5.4 1.6-7.3l6.3-6.9c-1.3-.8-2.3-2-3.3-3.2-1.1-5.1-3.7-9.8-6.8-14-3.6-7.4-9-13.7-15.2-19.1-4.4-2.5-8.3-6.1-13.5-6.6-6.8-3.1-14.4-2.5-21.3-5l.1-1.7m54.9 63c6.2.1 12.5.6 18.7.2 7.1-1.1 14.3.4 21.5-.7-10.9-4.2-22.2-7.5-33-11.8-2.6 3.8-9.1 7-7.1 12.3m11.7 2.4l-8.9.3c1.2 1.7 2.5 3.3 3.8 5 1-3.4 4.7-3 7.5-3.2 5.8.5 11.2-2.3 17-2.1-4.4-.1-8.7-.6-13-.1-2.2.3-4.4.6-6.6.1m-67 215c-5.4 3.3-10.1 7.6-15.8 10.2-5.4 3.3-10.7 6.8-16.7 9-10.3 6.1-20.6 12.1-30.7 18.4-8.8 5.4-17.1 11.8-25.7 17.7 4.3-1.4 8.9-1.5 13.2-3 1.5-.6 3.1-.7 4.7-.8 3.1-1.2 6.2-2.3 9.4-3.2 10.1-3.3 19.3-8.9 28.9-13.4 3.5-2.1 6.6-4.6 10.2-6.5 13.6-8.8 25-20.4 36-32.1 1.9-2.5 3.9-5 5.8-7.5-6.8 3.2-12.6 8.2-19.5 11z"/>
    <path d="M583.4 64.1c4.6 1.7 10.34 4.26 10.86 9.82.5 1.92 2.38 6.96-1.27 6.45-.7-3.57-.7-7.95-4-10.33-2-1.93-5.4-2.7-5.7-5.95z"/>
    <path d="M574.82 71.24c1.13-1.82 3-3.7 5.33-2.7 4.75 1.13 9.12 4.58 10.56 9.37-.2 4.3-4.4 6.2-7.7 7.7 7.4 1.1 14.9.7 22.1 2.8 3.1 2.1 4.3 6.2 3.4 9.7-3.1 2.6-6.6 4.8-9.8 7.3-4.2 3.2-9.5 3.8-14.1 6.1-6.9 2.5-13.9 5-21.2 5.9-6.7.8-13.4 1.3-20.2 1l-1.2 1.3-.9-1c-5.8 1.2-11.5-.8-17.1-2.1-5.6-3.3-11.4-6.9-15.3-12.3l-4.7-7.4 2.5-2.2c2.3 4.7 4.4 9.8 8.9 12.9 5.1 3.3 10 7.6 16.3 8.4 7.6 1.8 15.2 0 22.8.2 5.8 0 11.5-1.3 17.1-2.7 4.7-.5 9-2.6 13.5-4.1 4-1.6 8.1-2.6 11.9-4.5 2.9-2.1 5.7-4.2 8.6-6.3 1.6-1 1.1-3 1.2-4.6-1.3-1.7-3.2-2.9-5.1-3.8-10.6-1.3-22.9.2-31.4-7.6l.6-3.5c-1.4-3.2-.6-6.7 1-9.7l2.3 2c-1.3 3-.9 6.4-.8 9.6 1.6 1.8 3.9 2.9 6.2 3.4l-1.8-.6c-2.8-3.3-3.7-7.8-2.4-12 1.2 1 4.8 2.8 2 4.3l3.9.3c-.1-1.1-.2-2.2-.4-3.2-1.3-1.4-3.5-1-5.1-1.3z"/>
    <path d="M503.48 77.24c5.57-4.34 12.35-6.94 19.43-7.26 9-.1 18-.5 27-.08 7.2.76 13.9 3.86 19.3 8.5l.1 3.53c-3-1.57-5.5-3.9-8.2-5.94-4-2.1-8.5-3.2-12.9-4.1-9.3.7-18.7-.4-27.9 1-3.7.1-7.2 1.3-10.5 2.9-2.5 2.8-3.7 7.1-7.2 8.7-.5 3.3 1.3 6.2 2.9 8.9-.6 1-1.2 2-1.7 3-2-3.5-4.1-7.5-3.4-11.7 1.2-2.6 2.4-5.1 3.5-7.6zm54.48 57.14c10.22.83 21.22-1.35 30.7 3.6l-1.74 1.72c-9.37-3.83-19.76-2.7-29.65-2.7l.7-2.62zM314.4 351.28c6.12-3.58 11.72-8.05 18.14-11.12-.57 2.67-1.83 5.47-4.44 6.7-4.48 2.47-8.86 5.17-12.83 8.42-4.8 3.3-9.64 6.56-14.1 10.32 2.25.7 4.55-.1 6.82-.3 9-.77 18.2-.5 27.2-1.3l1.5.23c6.4-.9 12.8-1.83 19.3-1.52 5.6-1.1 11.3-2.6 17-1.3 3.3.1 6.2 2 9.4 2.9 7.9 2.3 15.9 4.9 24.2 5.2 8.4.3 16.7 1.6 25.2 1.4 2.5 0 5.1 0 7.5.7-.3 1.7-1.1 2.4-2.6 2.3-4.9-.2-9.8-.2-14.6-.5.2 4.9-5.1 7.3-6.4 11.7-2.4 14.4.7 28.9 3.9 42.9.6 5.1 1.3 10.2 1.5 15.3 1.4 6 2.9 11.8 4.7 17.7 2.1 1.1 4 2.5 5.3 4.5-3.1.6-6.2-1.6-7.9-4-1.4-3.3-1.9-6.9-3.4-10.2-.6-4.9-1.8-9.8-2-14.9-1.1-9.7-3.1-19.3-4.9-28.9-1.3-6.9-.4-14 .1-20.9.7-5.4 5.3-8.8 7.9-13.3l-3 .5-1.5-1c-5.2 1.5-10.5-.5-15.7-.5-.6 2.5-1.8 5.1-.7 7.6 3.2 9.9 6.6 19.7 8.8 29.8.7 6.7 3 13.2 3.2 19.9 1 9.2 3.3 18.5 2.3 27.7.7 5.1-3 9.5-7.3 11.7-3.7 2.3-8.1 2.7-12.2 4.1-.2 3.1-2.3 5.6-2.7 8.7 2-.9 3.8-3.5 6.3-2.4 2 .5 1.9 2.4 2 4.1.5-4 3-7.3 5.1-10.6 2.2-3.1 6.4-3.4 9.9-4 5.8.6 11.2-1.8 16.9-2.5 9.1-2.7 18.6-4 28-5.9 6.2-2.3 13-2.5 19.3-4.5 7.6-2.6 15.8-3.1 23.5-5.6 3.3-1.2 6.9-.8 10.2-2.1 3.2-1.2 6.5-1.7 9.8-2.6-.3-1.7-1.9-3.8 0-5.3-5.6-3.3-9.3-8.9-14.6-12.7-14.3-13.6-29.6-26.3-46.7-36.1-8.2-3.9-15.9-8.8-22.8-14.6l1-1.9c-.6-2.9.1-5.7 1-8.5 6.4-1 12.1 3 18.2 4 2.9-.6 5.8-1.6 8.8-2l-1.4 3.1c1.4 2.5 2.8 5.1 4.5 7.4 6.6 8.7 14.3 16.4 22.7 23.3 8.8 10.2 18.7 19.5 29 28.3 2 1.9 4.5 2.8 6.9 4 6.1-1.8 12.5-1.2 18.7-2.3 4.3.4 8.6 2.2 12 4.7 8.9-1.3 17.4-4.1 26.2-5.9 4.4-1.6 9.2-.7 13.6-2.3 6.3-2 13-2.3 18.9-5.4.3 1.1 0 1.9-1 2.4-3.8 2.8-8.8 2.9-13.2 3.8-3.4 1.2-6.9 2.5-10.5 2.7-9.7.5-18.6 4.6-28.1 6.2-3.3 1.2-7.6.3-9.9 3.5-5.9.5-12.7-.5-17.4 3.9-7.4 7.5-7.7 20.7-1 28.7 7-.3 13.3-4.3 20.3-4.7 6.1-2.4 12.7-3.1 19-4.7 6.1-.2 11.5-3.5 17.6-3.1l-.5 2.7c-3.8-.4-7.5.9-11.2 2-1.8.3-3.7.4-5.4 1.4-.3 3.5-.1 7.8-3.3 10-1.1-3-2.7-5.9-5-8-4.1.6-8.3 1.3-12.1 3l-4 .6c1.2 3.4 3.1 6.7 2.5 10.4.9-1.7 1.9-3.4 2.9-5.1-.2-1.8-.6-3.5-1.2-5.2h3.6c1.3 6.4-3.4 11.6-7.1 16.2-1.1 1.4-2.8 2.1-4.4 2.7.2-2.6 2.4-4.3 3.1-6.7 1.5-4-1.4-7.7-1.8-11.6l-4.2.9c1 3.4.7 8.5-3.2 9.9-.8-2.9-1.1-6.2-3.7-8 .6 2.7-.5 5-2.1 7.1.1 3.3 2.3 6.2 4.2 8.8 2.2 3.4 6.2 4.6 9 7.3-7.1 0-12.9-5-18.3-9.1-3.4-2.4-4.9-6.5-7.1-9.9-5 1.1-10 2.1-14.9 3.4 0-.7.1-2 .1-2.7 4.6-.1 8.6-3 13.2-2.7-.3-5.2-2.7-10.2-1.9-15.4.9-4.9 2.7-10.1 1.1-15-6.1 0-12 2.6-18.1 3.3-8.2 2.2-16.7 3.6-24.9 6-9.8 1.9-19.3 5.3-29.2 6.7-6 .8-11.9 2.4-17.8 3.7-6.3 1.8-12.9 2.6-19.2 4.7-1.1-2.6-3.9-.9-5.5.2-3.8 3.7-4.3 9.6-7.8 13.4l-1.6.5c-1.3 7-5.6 13.2-5.6 20.4 4.6-2.2 9.7-2.4 14.5-3.9 7.8-2.3 16-2 23.8-3.9 5.5-1.4 11.1-2.4 16.6-4.1 0 .8-.1 2.4-.1 3.1l-2.7.2c-1 3.9-.3 10-4.9 11.6.3-3.4-2-6-3.5-8.8-.8.1-1.6.1-2.4.2-1.2 2.9-1.8 6.5-4.8 8.1-2.9 1.6-6 3.7-9.4 3.8-3.2-.4-6.5-.6-9.7-.7.3-.9.7-1.7 1-2.5 4.1-.7 9.2.8 12.3-2.8 1.4-1.1 2.2-2.8 2.6-4.5-4.8.9-9.6 1.5-14.4 2-1.7.5-3.3 1.1-5 1.6-.8 2.9-2 5.7-2.8 8.6l-2.4 1c-.3-2.2-.3-4.5-.8-6.7-3.2-2.2-7.2.3-10.6.7-7 1.7-14.2 2.6-21.3 4.2 0-.7.1-2.3.1-3 2.3-.5 4.6-1.1 7-1.6l.4 1.4 1.1-1.8c4.2-.7 8.4-1.4 12.7-1.5-4.3-7.6-1.4-16.4-1.4-24.6-.6-2-.4-4 .7-5.8-2.3.5-4.7.8-7 .9-.7-.8-.9-1.5-.5-2.3 2.4-.8 5.1-.9 7.6-1.2.4-.9.8-1.9 1.3-2.8 6.4-3.3 15.2-3.1 19-10.2 2.5-11.8-.3-23.8-1.5-35.6-1.9-12.2-4.2-24.4-8.3-36.1-1.1-4.7-3.9-8.9-4.3-13.8.6-1.5 1.2-2.9 1.7-4.4-4.3-1.3-8.8-1.8-13-3.5-7.3-2.5-15-5.6-22.8-4.1-10.2 1.8-20.6 1.5-30.8 3.1-6.5.7-13-.2-19.4.4-4.9.2-10 2-14.7-.2-3.6 3-8 4.6-11.5 7.5-4.1 3.5-9.1 5.4-13.3 8.6-7.6 3.8-15.3 7.7-22.6 12.2V395c-2.1 4.3-7.6 5.3-11.3 8-6.1 3.1-12 6.7-17.8 10.4-12.4 7.07-24.3 14.8-36 22.9l-1.7-.03c-2.5 4.1-7.3 5.3-11.2 7.8l.6-4.45 2.5.6-1.9-.75c3.5-2.6 7.5-4.2 10.7-7.1 7.4-4.1 14.2-9.1 21-14 4.2-2.2 8.2-5 12.6-6.97.8.6 1.7.8 2.8.6l-2.1-1.33c7.9-4.3 15.3-9.44 23.4-13.34 13.3-9 27.9-15.8 41.7-24.1 3.8-1.7 6.4-5.1 10.2-6.9 6.7-4.7 13.4-9.5 20-14.5m129.4 17c-.8 2-1.3 4.15-2.5 6 4.6 5.34 11.3 8.23 17.2 12.1 2.9 2 6.4 2.75 9.2 4.85 7.2 6.1 15.9 9.96 22.7 16.5 9.6 7.6 17.9 16.6 27.5 24.2 3.3 2.8 6.3 6 9.7 8.7-.8 6 1.1 12.4-1.1 18.36-1.6 7.8-.3 16.5 4.4 23 1.8-2.3 4.5-2.1 6.9-1l-.3-2.8c-2.5-2.9-5.3-6-6-9.9-1-3.2-.2-6.6-.8-9.9.9-8.37 6-17.6 14.9-19.2 4.1-1.3 8.8.5 12.3-2.4-5.7-3.2-12.3-1.76-18.5-1.23-2.6-1.9-4.9 1.1-7.6.8-6.8-.7-11.9-5.9-16.3-10.6-9.6-7-16.6-17-25.6-24.8-6.18-5.4-12.08-11.3-17.1-17.8-2.6-3.9-6.4-7.1-7.8-11.8-7.2 3.8-14-4.2-21.4-2.8M394 483c-1.48 5.58-2.3 11.47-1.43 17.23 1.23-4.86 3.6-9.34 4.72-14.23l1.6-.8c-.8-1.33-1.3-2.74-1.3-4.25-1.2.68-2.5 1.3-3.6 2.05m139.2-.87c-1.6 3.6 2.6 6 4.7 8.14-.7-2.1-1.5-4.2-1.6-6.4-1.1-.64-2.1-1.2-3.1-1.77m-104.4 24.7c-1.1 1.1-2.4 2.03-3.6 2.98 3.9-1.02 6.6-4.06 7.7-7.93-2.7.13-3 3.16-4.2 4.95zm-267.5-60.67c3.4-2.9 7.7-4.34 11.4-6.9-.1 1-.1 3-.2 3.98-4.4 2.8-8.9 5.4-13.5 7.8-4.1 2.9-8.5 5.2-13.1 7.1-4.5 1.8-8.2 4.8-12.6 6.6-7.4 4.6-15.6 7.7-23.4 11.6-12.5 6.7-25.7 12-38 18.9-10.5 4.4-20.9 9.8-32.2 11.5l-1-3.4c-2.1 0-4.2-.3-6.3-.7l-2.1-3.7c2.3-3.5 7-4.4 9.1-8.1 1.3-.6 2.7-1.1 4.1-1.6 1.3-2.5 4.1-3.7 6.3-5.3.3 1.3.7 2.6 1.2 3.8l-2.7 1.3-.1-1.5-.1 1.7c-4.5 3.8-9.8 6.4-14.1 10.4 3 1 5.9-.1 8.7-1 2.3 1.1.7 3.9-.9 4.8 6.1-1.9 12.2-3.6 18.2-5.9 6-3.4 12.5-5.9 18.6-9.2 5.4-3 11.2-5.4 16.7-8.2 8.8-3.2 16.5-9 25.3-12.1 2.9-1 5.6-2.5 8.2-4.3.8-.6 1.5-.5 2.2.3l-.2-1.5c5.3-2.9 10.4-6.3 16.3-7.8 1-.9 2.1-1.7 3.1-2.6l.8 2.7c-1.4-2.9 1.3-4.2 3.8-4.2 1.6-1.2 3.2-2.5 4.7-3.9l1.2 1.9v-1.8z"/>
    <path d="M595.92 460.55c11.12-1.72 21.58-6.54 32.86-7.34-.3.9-.62 1.7-.98 2.5-4.14 1.2-8.6.9-12.57 2.7-6.27 2.7-13.1 3.3-19.53 5.4l.22-3.1zm-238.8 20.9c7.64-1.4 15.17-3.35 22.63-5.4.4.15 1.16.5 1.54.65.2.43.7 1.28 1 1.7-7 .45-13.5 3.43-20.3 4.5-9.7 2.2-19.8 2.73-29.1 6.46-5.4 1.74-10.6 4.6-16.4 4.8-1.8.88-3.7.52-5.5.4l1-3.2c8.9.44 16.8-3.93 25.2-6.17 6.3-2.4 13.2-2.4 19.8-3.8zm154.3-.35c-.13 1.13-.25 2.27-.34 3.42-10.32 2.1-20.56 4.86-31.03 6.17-4.1.9-8.08 2.2-12.2 3-6.2.9-11.95 3.8-18.26 4.2l.3-3.3c6.8-.1 12.9-3.4 19.5-4.6 5.1-1.4 10.5-2 15.6-3.5l1.1.4c8.2-2.4 17-3 25.1-6zM354.8 514.37c5.27-.85 10.46-2 15.6-3.45-.13 1.3-.25 2.58-.35 3.87l-.68-.8c-8.35 2.5-17.25 3-25.6 5.6-4.68.9-9.08 3.1-13.9 3.2.3-1.3 1.08-2.3 1.96-3.3 7.77-1.2 15.28-3.7 22.97-5.4z"/>
  </g>
</svg>