
<svg viewBox="0 0 195 196" xmlns="http://www.w3.org/2000/svg" fill="#ffd951" version="1.1">
    <path d="M175 119l11.9-21.2L175 77.1V52.2l-21.5-12.3L142 20h-23.2L97.3 7.7 76.2 20H52.4L40.5 40.9 20 52.9V77L8.1 98 20 118.6v24.1l20.7 11.8L53.1 176h25.2l19.9 11.4 19.2-11.3H143l12.6-22.5 19.4-11.4V119zm10.7-21.3L175 116.9V79.1l10.7 18.6zm-11.7 21l-19.1 34-37.8 22.3H78.5l-37-21.1L21 118.4V77.3l20.2-35.7L76.5 21h42l34.2 19.6L174 77.4v41.3zm0-65.9v22.6l-19.5-33.8L174 52.8zM141.4 21l10.3 17.9L120.5 21h20.9zM97.3 8.8L116.8 20H78.2L97.3 8.8zM53 21h21.5L42.3 39.9 53 21zM21 53.5l18.5-10.9L21 75.3V53.5zM9.3 98L20 79.1v37.6L9.3 98zM21 142.2v-21.8l18.7 32.5L21 142.2zM53.6 175l-11.2-19.4 34 19.4H53.6zm44.5 11.2L80.2 176h35.1l-17.2 10.2zm44.3-11.2h-23.3l34.8-20.5-11.5 20.5zm14.2-23.3l17.4-31v20.8l-17.4 10.2z"/>
    <path d="M108.188 167.432l-1.736 3.472 1.736 3.472-3.364 1.845-.76 3.8-3.797-.544-2.82 2.713-2.714-2.714-3.906.543-.65-3.8-3.365-1.844 1.627-3.472-1.628-3.472 3.364-1.736.65-3.907 3.907.542 2.713-2.605 2.82 2.605 3.8-.543.758 3.906"/>
    <path d="M104.95 181.308l-3.6-.5-2.1 2.1 4.7 8.1 2.2-4.7 5.3.4-5.3-9.2-.6.3M90.05 181.308l3.6-.5 2.1 2.1-4.7 8.1-2.2-4.7-5.3.4 5.3-9.2.6.3"/>
</svg>