
<svg viewBox="0 0 195 196" xmlns="http://www.w3.org/2000/svg" fill="#fff" version="1.1">
    <path d="M182,120.6L195,98l-13-22.6V49l-23-13.4L146,13h-25.6L98-0.1L75.4,13H49L35.7,35.8L13,48.9v26.2L-0.2,98L13,120.8v26.1L35.7,160L49,183h26.5L98,196l22.3-13H146l13-22.6l23-13.4V120.6z M193.8,98L182,118.5V77.5L193.8,98z M181,120.3l-22.7,39.4L120,182H75.8l-39.4-22.7L14,120.6V75.4l22.5-38.8L75.7,14h44.4l38.2,22.3L181,75.7V120.3z M181,49.6v24.1l-21-36.4L181,49.6z M145.4,14l11.9,20.6L122.1,14H145.4z M98,1.1L118.4,13h-41L98,1.1z M49.6,14h24.1L37.6,34.9L49.6,14z M14,49.5l20.7-11.9L14,73.4V49.5z M1,98l12-20.8v41.7L1,98z M14,146.4v-23.8l20.6,35.7L14,146.4z M49.6,182l-12.1-21l36.3,21H49.6z M98,194.8L77.5,183h40.8L98,194.8z M145.4,182H122l35.3-20.6L145.4,182z M160,158.7l21-36.4v24.1L160,158.7z"/>
    <path d="M175,119l11.9-21.2L175,77.1l0-24.9l-21.5-12.3L142,20l-23.2,0L97.3,7.7L76.2,20l-23.8,0L40.5,40.9L20,52.9L20,77L8.1,98L20,118.6l0,24.1l20.7,11.8L53.1,176l25.2,0l19.9,11.4l19.2-11.3l25.6,0l12.6-22.5l19.4-11.4L175,119z M185.7,97.7L175,116.9l0-37.8L185.7,97.7z M174,118.7l-19.1,34L117.1,175l-38.6,0l-37-21.1L21,118.4l0-41.1l20.2-35.7L76.5,21l42,0l34.2,19.6L174,77.4L174,118.7z M174,52.8l0,22.6l-19.5-33.8L174,52.8z M141.4,21l10.3,17.9L120.5,21L141.4,21z M97.3,8.8L116.8,20l-38.6,0L97.3,8.8z M53,21l21.5,0L42.3,39.9L53,21z M21,53.5l18.5-10.9L21,75.3L21,53.5z M9.3,98L20,79.1l0,37.6L9.3,98z M21,142.2l0-21.8l18.7,32.5L21,142.2z M53.6,175l-11.2-19.4l34,19.4L53.6,175z M98.1,186.2L80.2,176l35.1,0L98.1,186.2z M142.4,175l-23.3,0l34.8-20.5L142.4,175z M156.6,151.7l17.4-31l0,20.8L156.6,151.7z"/>
</svg>
