<?xml version="1.0" encoding="utf-8"?>
<!-- Generator: Adobe Illustrator 19.1.0, SVG Export Plug-In . SVG Version: 6.00 Build 0)  -->
<svg version="1.1" id="Layer_1" xmlns="http://www.w3.org/2000/svg" xmlns:xlink="http://www.w3.org/1999/xlink" x="0px" y="0px"
	 viewBox="0 0 195 196" style="enable-background:new 0 0 195 196;" xml:space="preserve">
<style type="text/css">
	.st0{fill:#771B1B;}
	.st1{opacity:0.15;}
	.st2{fill:#FFFFFF;}
</style>
<path class="st0" d="M172,125.1l15.8-27.5L172,70V54l-13.5-8.2L142.8,18H111l-13.7-7.9L83.7,18H51.8l-16,27.8L22,54v16L6.2,97.5
	L22,125.1v16l13.9,8.2l16,27.8h31.8l13.7,7.9L111,177h31.8l15.6-27.8l13.5-8.2V125.1z M186.7,97.5L172,123.1V72L186.7,97.5z
	 M171,124.8l-13.3,23.7l-47,27.5H83.9l-47.3-27.5L23,124.8V70.3l13.6-23.7L83.9,19h26.8l47,27.6L171,70.3V124.8z M171,54.6v13.7
	l-11.8-20.5L171,54.6z M142.2,19L157,44.6L112.7,19H142.2z M97.3,11.2L109,18H85.7L97.3,11.2z M52.4,19h29.5L37.7,44.6L52.4,19z
	 M23,54.6l11.8-6.8L23,68.3V54.6z M7.3,97.5L22,72v51L7.3,97.5z M23,140.5v-13.7l11.8,20.5L23,140.5z M52.4,176l-14.7-25.6L81.9,176
	H52.4z M97.3,183.8L85.7,177H109L97.3,183.8z M142.2,176h-29.5l44.3-25.6L142.2,176z M159.2,147.3l11.8-20.5v13.7L159.2,147.3z"/>
</svg>
