<?xml version="1.0" encoding="utf-8"?>
<!-- Generator: Adobe Illustrator 19.1.0, SVG Export Plug-In . SVG Version: 6.00 Build 0)  -->
<svg version="1.1" id="Layer_1" xmlns="http://www.w3.org/2000/svg" xmlns:xlink="http://www.w3.org/1999/xlink" x="0px" y="0px"
	 viewBox="0 0 195 196" style="enable-background:new 0 0 195 196;" xml:space="preserve">
<style type="text/css">
	.st0{fill:#771B1B;}
	.st1{opacity:0.15;}
	.st2{fill:#FFFFFF;}
</style>
<path class="st0" d="M178,127l16.9-29.4L178,68.1V51l-14.8-8.5l-17-29.5h-34L97.5,4.5L82.9,13h-34l-17,29.5L17,51v17.1L0.1,97.5
	L17,127v17.1l14.8,8.5l17,29.5h34l14.6,8.5l14.6-8.5h34l17-29.5l14.8-8.5V127z M193.8,97.5L178,125V70.1L193.8,97.5z M177,126.7
	l-14.5,25.1L111.8,181H83.1l-50.6-29.2L18,126.7V68.4l14.5-25.1L83.1,14h28.7l50.6,29.2L177,68.4V126.7z M177,51.6v14.8l-12.8-22.2
	L177,51.6z M145.6,14l15.8,27.5L113.8,14H145.6z M97.5,5.7l12.6,7.3H84.9L97.5,5.7z M49.4,14h31.7L33.6,41.5L49.4,14z M18,51.6
	l12.8-7.4L18,66.4V51.6z M1.2,97.5L17,70.1V125L1.2,97.5z M18,143.5v-14.8l12.8,22.2L18,143.5z M49.4,181l-15.8-27.5L81.1,181H49.4z
	 M97.5,189.3L84.9,182h25.2L97.5,189.3z M145.6,181h-31.7l47.6-27.5L145.6,181z M164.2,150.9l12.8-22.2v14.8L164.2,150.9z"/>
</svg>
