<?xml version="1.0" encoding="UTF-8" ?>
<!DOCTYPE svg PUBLIC "-//W3C//DTD SVG 1.1//EN" "http://www.w3.org/Graphics/SVG/1.1/DTD/svg11.dtd">
<svg width="800pt" height="600pt" viewBox="0 0 800 600" version="1.1" xmlns="http://www.w3.org/2000/svg">
<g id="#767676ff">
<path fill="#767676" opacity="1.00" d=" M 0.00 0.00 L 800.00 0.00 L 800.00 600.00 L 0.00 600.00 L 0.00 0.00 M 675.50 119.60 C 676.12 122.54 676.77 125.47 677.46 128.40 C 674.62 127.79 671.78 127.27 668.93 126.79 C 668.86 130.32 668.86 133.85 668.94 137.39 C 671.81 136.87 674.68 136.33 677.55 135.73 C 676.74 140.29 675.94 144.84 675.01 149.37 C 677.05 149.39 679.09 149.39 681.14 149.41 C 683.18 149.42 685.23 149.43 687.29 149.44 C 686.66 144.87 685.65 140.36 684.88 135.82 C 687.79 136.27 690.67 136.85 693.54 137.56 C 693.83 133.92 693.80 130.26 693.57 126.62 C 690.68 127.30 687.76 127.85 684.85 128.37 C 685.58 125.44 686.30 122.51 687.02 119.57 C 685.04 119.57 683.07 119.58 681.11 119.59 C 679.23 119.60 677.36 119.60 675.50 119.60 M 553.34 127.02 C 551.76 130.94 550.03 134.83 548.88 138.90 C 550.35 140.88 552.27 142.48 554.01 144.22 C 554.00 150.90 554.00 157.58 554.00 164.26 C 549.83 159.49 545.53 154.84 541.42 150.03 C 541.45 147.26 541.41 144.49 541.39 141.72 C 538.13 140.67 534.81 139.84 531.51 138.97 C 537.58 152.97 544.20 166.73 550.51 180.63 C 551.60 183.35 553.82 186.05 552.75 189.14 C 549.36 206.02 546.17 222.95 542.77 239.83 C 538.26 240.00 533.75 239.70 529.25 240.07 C 529.35 246.94 529.26 253.81 529.31 260.69 C 537.59 260.72 545.87 260.69 554.16 260.70 C 571.67 260.73 589.19 260.71 606.71 260.71 C 606.74 253.81 606.67 246.90 606.75 240.00 C 602.24 239.70 597.73 239.93 593.23 239.83 C 589.79 223.14 586.75 206.37 583.28 189.69 C 583.10 188.52 582.93 187.35 582.78 186.19 C 590.11 170.48 597.32 154.72 604.50 138.95 C 601.17 139.79 597.83 140.62 594.56 141.65 C 594.58 144.40 594.55 147.16 594.55 149.91 C 590.37 154.55 586.40 159.40 582.02 163.86 C 581.94 157.27 582.01 150.67 581.99 144.08 C 583.69 142.37 585.39 140.65 587.13 138.98 C 585.90 135.05 584.22 131.30 582.73 127.47 L 582.97 126.61 C 579.17 129.16 576.25 132.79 573.07 136.03 C 574.05 138.32 574.94 140.66 575.84 142.99 C 573.80 147.87 571.65 152.70 569.65 157.58 C 569.16 158.85 568.40 159.97 567.46 160.93 C 565.22 154.86 562.37 149.04 560.06 143.01 C 560.98 140.60 561.89 138.20 562.82 135.81 C 560.06 132.99 557.32 130.17 554.44 127.48 L 554.48 126.88 C 554.19 126.92 553.62 126.99 553.34 127.02 M 429.31 167.45 L 428.79 167.41 C 433.69 174.57 439.37 181.18 444.56 188.14 C 440.48 205.41 436.29 222.66 431.98 239.88 C 427.19 239.92 422.41 239.84 417.62 239.94 C 417.74 246.88 417.26 253.86 417.86 260.79 C 426.14 260.60 434.43 260.73 442.71 260.72 C 460.13 260.72 477.55 260.69 494.97 260.73 C 495.02 253.78 494.99 246.82 494.99 239.87 C 490.15 239.81 485.32 239.95 480.49 239.77 C 476.53 223.63 472.71 207.46 468.68 191.34 C 468.41 190.08 467.75 188.72 468.37 187.48 C 473.65 181.10 478.56 174.42 483.68 167.91 C 480.24 163.56 477.01 159.04 473.41 154.82 C 471.76 156.87 470.11 158.93 468.68 161.13 C 466.19 158.17 463.87 155.06 461.48 152.03 C 463.26 150.02 464.85 147.86 466.44 145.70 C 463.14 141.32 459.70 137.05 456.42 132.67 C 447.13 144.04 438.26 155.80 429.31 167.45 M 334.07 150.90 C 319.70 156.16 309.74 170.91 309.02 186.04 C 308.35 197.06 312.33 208.37 320.03 216.33 C 317.18 219.57 313.96 222.46 310.97 225.56 C 316.39 230.36 322.18 234.76 327.32 239.86 C 320.18 239.94 313.05 239.84 305.91 239.91 C 305.91 246.85 305.78 253.78 306.00 260.71 C 316.04 260.69 326.08 260.71 336.13 260.70 C 351.84 260.77 367.56 260.63 383.27 260.77 C 383.63 253.82 383.36 246.85 383.41 239.90 C 376.17 239.78 368.93 239.93 361.69 239.82 C 366.85 234.72 372.70 230.36 378.04 225.46 C 369.97 217.61 362.15 209.51 354.09 201.65 C 350.92 198.42 347.68 195.26 344.53 192.02 C 347.78 189.45 351.84 187.68 356.06 188.14 C 360.68 188.31 364.57 191.17 367.63 194.41 C 371.31 189.29 375.35 184.43 379.04 179.31 C 364.24 169.70 349.85 159.46 334.93 150.05 C 334.71 150.26 334.28 150.69 334.07 150.90 M 200.63 152.65 C 200.53 163.46 200.68 174.27 200.55 185.08 C 204.22 187.70 208.20 189.87 212.05 192.22 C 210.61 208.12 209.12 224.07 207.15 239.91 C 202.77 239.87 198.39 239.88 194.02 239.90 C 194.02 246.85 193.94 253.79 194.08 260.73 C 202.43 260.66 210.78 260.71 219.13 260.70 C 236.66 260.73 254.18 260.71 271.71 260.71 C 271.72 253.79 271.71 246.87 271.72 239.95 C 267.27 239.73 262.82 239.99 258.37 239.75 C 256.90 224.23 255.29 208.74 253.67 193.24 C 256.51 189.47 261.57 187.99 265.34 185.19 C 265.53 174.33 265.42 163.47 265.40 152.60 C 261.56 152.54 257.73 152.55 253.90 152.59 C 253.88 155.66 253.83 158.73 253.82 161.80 C 250.02 161.88 246.22 161.90 242.43 161.79 C 242.45 158.73 242.42 155.66 242.40 152.61 C 239.26 152.55 236.11 152.54 232.97 152.60 C 229.82 152.90 226.25 151.93 223.37 153.06 C 223.17 156.00 223.34 158.96 223.28 161.91 C 221.45 161.84 219.62 161.86 217.79 161.88 C 215.86 161.90 213.93 161.88 212.01 161.88 C 211.99 158.79 211.99 155.71 212.00 152.62 C 208.21 152.57 204.42 152.57 200.63 152.65 M 655.51 163.43 L 654.86 163.37 C 659.30 173.41 664.53 183.09 669.12 193.06 C 670.04 195.36 668.37 197.76 667.96 200.03 C 663.91 213.30 660.06 226.63 655.95 239.88 C 651.51 239.91 647.06 239.84 642.62 239.94 C 642.72 246.89 642.30 253.85 642.83 260.78 C 651.12 260.61 659.41 260.72 667.69 260.73 C 685.12 260.71 702.54 260.69 719.96 260.74 C 720.01 253.78 719.99 246.83 719.98 239.87 C 715.45 239.83 710.92 239.91 706.39 239.80 C 702.18 225.65 697.88 211.52 693.72 197.34 C 693.37 196.26 693.01 195.19 692.69 194.11 C 697.73 184.14 702.48 174.02 707.44 164.01 C 692.99 152.02 670.31 152.01 655.51 163.43 M 102.75 175.53 C 99.86 180.93 99.39 187.59 101.78 193.27 C 103.38 197.38 106.73 200.36 110.17 202.95 C 106.21 215.18 102.35 227.45 98.63 239.75 C 92.85 240.11 87.05 239.66 81.28 240.02 C 81.34 246.91 81.27 253.80 81.32 260.69 C 89.66 260.71 98.01 260.69 106.35 260.70 C 123.89 260.74 141.43 260.67 158.96 260.74 C 159.02 253.78 158.98 246.82 158.99 239.87 C 153.17 239.76 147.35 240.05 141.55 239.70 C 137.73 227.40 133.93 215.10 129.98 202.85 L 130.18 202.69 C 137.73 198.08 141.93 188.43 139.15 179.86 C 136.66 170.49 126.53 164.09 116.99 165.84 C 111.01 166.59 105.90 170.52 102.75 175.53 M 674.89 336.92 C 675.00 337.30 675.21 338.05 675.32 338.43 C 676.03 340.94 676.73 343.45 677.39 345.98 C 674.48 345.41 671.56 344.85 668.66 344.27 C 668.62 348.02 668.63 351.78 668.64 355.53 C 671.50 354.80 674.40 354.25 677.35 354.01 C 676.39 358.45 675.82 362.97 674.69 367.37 C 676.86 367.36 679.05 367.35 681.24 367.37 C 683.36 367.43 685.48 367.43 687.62 367.46 C 686.90 362.97 686.06 358.50 685.11 354.05 C 687.92 354.33 690.69 354.84 693.40 355.66 C 694.95 352.18 694.04 348.26 694.19 344.58 C 691.08 344.19 688.13 345.45 685.11 345.92 C 685.82 342.87 686.85 339.89 687.29 336.78 C 683.15 336.81 679.01 336.58 674.89 336.92 M 582.34 343.71 L 582.25 344.43 C 578.97 347.19 576.17 350.46 573.00 353.33 C 573.53 355.99 575.03 358.36 575.53 361.00 C 573.09 366.94 570.54 372.85 567.87 378.70 C 565.82 372.60 563.05 366.76 560.27 360.96 C 561.07 358.39 562.57 355.96 562.78 353.24 C 559.97 350.26 556.95 347.47 553.90 344.74 C 553.60 345.03 552.99 345.62 552.69 345.91 C 551.25 349.57 549.70 353.19 548.55 356.95 C 550.37 358.60 552.11 360.34 553.84 362.10 C 553.89 368.66 553.78 375.22 553.91 381.79 C 549.91 376.96 545.55 372.44 541.53 367.62 C 541.61 364.75 541.57 361.87 541.45 359.00 C 537.96 358.43 534.58 357.37 531.17 356.47 C 537.22 370.39 543.83 384.06 550.05 397.90 C 551.16 400.74 553.55 403.49 552.59 406.72 C 549.25 423.63 546.04 440.57 542.59 457.46 C 538.12 457.45 533.64 457.34 529.17 457.53 C 529.23 464.51 529.23 471.49 529.18 478.48 C 537.54 478.59 545.91 478.70 554.26 478.41 L 554.26 478.75 C 571.76 478.47 589.28 478.65 606.79 478.66 C 607.60 475.17 607.14 471.58 607.23 468.05 C 607.14 464.47 607.60 460.86 606.79 457.34 C 602.44 457.43 598.08 457.28 593.74 457.50 C 592.39 454.18 592.10 450.58 591.36 447.12 C 589.16 436.07 587.05 425.01 584.86 413.96 C 584.41 411.79 584.34 409.48 583.16 407.55 L 583.48 407.36 C 583.37 406.52 583.15 404.85 583.04 404.01 C 590.25 388.17 597.87 372.48 604.68 356.48 C 601.25 357.13 597.98 358.38 594.53 358.93 C 594.30 361.77 594.52 364.64 594.30 367.49 C 590.36 372.15 586.28 376.73 582.18 381.26 C 582.38 374.85 582.06 368.43 582.33 362.03 C 583.67 359.80 586.07 358.41 587.51 356.21 C 585.42 352.20 584.28 347.79 582.34 343.71 M 431.66 381.67 C 430.35 383.21 429.16 384.85 428.37 386.73 L 429.19 386.44 C 434.32 392.93 439.33 399.51 444.45 406.01 C 440.11 423.15 436.33 440.44 431.75 457.51 C 426.98 457.38 422.21 457.44 417.44 457.44 C 417.43 464.48 417.43 471.52 417.44 478.56 C 425.84 478.57 434.23 478.57 442.63 478.55 C 460.18 478.67 477.72 478.60 495.27 478.58 C 495.23 471.53 495.22 464.49 495.28 457.44 C 490.42 457.33 485.57 457.45 480.71 457.35 C 476.61 440.57 472.45 423.79 468.51 406.97 C 468.42 406.66 468.23 406.04 468.14 405.73 C 471.53 402.19 474.26 398.09 477.32 394.27 C 479.49 391.28 482.15 388.62 483.89 385.33 C 480.05 381.27 477.38 376.13 473.18 372.46 C 471.63 374.50 469.88 376.41 468.58 378.64 C 466.28 375.68 463.96 372.73 461.70 369.73 C 463.36 367.63 465.96 365.75 466.46 363.07 C 463.01 358.76 459.89 354.16 456.12 350.12 C 447.98 360.65 439.82 371.16 431.66 381.67 M 331.09 369.59 C 318.96 375.77 310.21 388.28 309.03 401.91 C 307.67 413.59 311.78 425.63 319.76 434.22 C 316.91 437.47 313.32 440.07 310.90 443.67 C 316.43 448.10 321.76 452.79 327.09 457.48 C 319.94 457.39 312.79 457.44 305.64 457.45 C 305.63 464.48 305.64 471.52 305.64 478.56 C 315.84 478.57 326.04 478.56 336.25 478.57 C 352.04 478.66 367.83 478.59 383.62 478.60 C 383.59 471.53 383.64 464.45 383.59 457.38 C 376.41 457.41 369.23 457.36 362.05 457.42 C 367.31 452.77 372.59 448.12 378.11 443.79 C 377.10 441.63 375.17 440.17 373.55 438.51 C 367.10 432.07 360.66 425.62 354.22 419.18 L 353.89 419.20 C 351.06 415.85 347.82 412.90 344.72 409.81 C 350.28 405.31 358.96 404.71 364.49 409.58 C 365.65 410.31 366.42 411.96 367.91 411.97 C 371.51 407.54 374.90 402.93 378.40 398.41 C 379.52 397.42 378.35 396.09 377.37 395.66 C 363.67 386.66 350.08 377.48 336.46 368.37 C 334.67 366.68 332.65 368.58 331.09 369.59 M 200.63 370.12 C 200.19 381.12 200.55 392.16 200.44 403.19 C 204.25 405.54 208.09 407.82 211.90 410.17 C 210.59 425.89 208.65 441.56 207.29 457.28 C 202.81 457.64 198.32 457.33 193.84 457.44 C 193.85 464.48 193.85 471.52 193.84 478.55 C 202.31 478.58 210.78 478.56 219.26 478.56 C 236.89 478.57 254.54 478.76 272.17 478.47 C 272.11 471.59 272.65 464.64 271.91 457.81 C 267.67 456.75 263.00 457.76 258.60 457.33 C 257.28 441.52 255.06 425.77 254.15 409.93 C 257.71 407.90 261.17 405.70 264.67 403.57 L 265.44 403.81 C 265.82 395.23 265.51 386.64 265.60 378.07 C 265.35 375.43 266.23 372.50 265.16 370.06 C 261.37 369.35 257.48 369.91 253.65 369.78 C 253.55 373.05 253.53 376.33 253.61 379.60 C 249.92 379.48 246.21 379.81 242.54 379.35 C 242.64 376.29 242.62 373.23 242.64 370.18 C 239.46 369.51 236.18 369.57 232.99 370.14 C 229.73 370.25 226.48 370.19 223.23 370.22 C 223.21 373.39 223.20 376.56 223.17 379.74 C 221.38 379.58 219.59 379.58 217.81 379.59 C 215.92 379.65 214.02 379.66 212.13 379.68 C 212.17 376.52 212.18 373.35 212.07 370.20 C 208.25 370.19 204.44 370.27 200.63 370.12 M 661.97 376.95 C 659.77 378.15 657.29 379.15 655.81 381.28 L 654.85 381.24 C 659.26 391.68 664.69 401.68 669.49 411.96 C 664.93 427.15 660.54 442.40 655.77 457.52 C 651.33 457.37 646.88 457.43 642.44 457.44 C 642.43 464.48 642.43 471.52 642.44 478.56 C 650.83 478.56 659.23 478.58 667.62 478.55 C 685.17 478.66 702.72 478.62 720.27 478.57 C 720.24 471.55 720.19 464.54 720.31 457.52 C 715.80 457.21 711.29 457.43 706.79 457.42 C 702.09 443.16 698.08 428.68 693.70 414.33 C 693.51 413.71 693.14 412.48 692.96 411.86 C 697.90 401.95 702.82 392.01 707.48 381.96 L 707.30 381.15 C 694.58 371.33 676.28 369.72 661.97 376.95 M 113.99 384.06 C 109.01 385.43 105.34 389.27 102.25 393.21 L 102.54 393.44 C 97.40 402.54 100.56 415.38 109.86 420.48 C 106.28 432.86 102.18 445.10 98.40 457.44 C 92.64 457.52 86.88 457.25 81.14 457.58 C 81.42 464.61 80.93 471.65 81.40 478.67 C 89.81 478.42 98.23 478.65 106.64 478.54 C 124.19 478.67 141.73 478.60 159.27 478.58 C 159.23 471.52 159.23 464.47 159.27 457.41 C 153.45 457.34 147.62 457.47 141.80 457.34 C 137.82 445.15 134.37 432.78 130.08 420.70 L 130.36 420.48 C 139.75 415.30 143.20 401.93 137.32 392.91 C 132.85 385.01 122.57 381.15 113.99 384.06 Z" />
</g>
<g id="#d1d2d4ff">
<path fill="#d1d2d4" opacity="1.00" d=" M 675.50 119.60 C 677.36 119.60 679.23 119.60 681.11 119.59 C 681.32 129.53 681.29 139.47 681.14 149.41 C 679.09 149.39 677.05 149.39 675.01 149.37 C 675.94 144.84 676.74 140.29 677.55 135.73 C 674.68 136.33 671.81 136.87 668.94 137.39 C 668.86 133.85 668.86 130.32 668.93 126.79 C 671.78 127.27 674.62 127.79 677.46 128.40 C 676.77 125.47 676.12 122.54 675.50 119.60 Z" />
<path fill="#d1d2d4" opacity="1.00" d=" M 553.34 127.02 C 553.62 126.99 554.19 126.92 554.48 126.88 L 554.44 127.48 C 554.35 128.76 554.30 130.07 554.54 131.35 C 558.62 149.53 562.29 167.80 566.25 186.01 C 571.75 186.53 577.27 186.21 582.78 186.19 C 582.93 187.35 583.10 188.52 583.28 189.69 C 577.21 193.05 571.30 196.70 565.42 200.39 C 564.42 213.52 563.51 226.65 562.69 239.80 C 559.87 239.95 557.05 240.04 554.24 240.18 C 554.17 247.02 554.37 253.86 554.16 260.70 C 545.87 260.69 537.59 260.72 529.31 260.69 C 529.26 253.81 529.35 246.94 529.25 240.07 C 533.75 239.70 538.26 240.00 542.77 239.83 C 546.17 222.95 549.36 206.02 552.75 189.14 C 553.82 186.05 551.60 183.35 550.51 180.63 C 544.20 166.73 537.58 152.97 531.51 138.97 C 534.81 139.84 538.13 140.67 541.39 141.72 C 541.41 144.49 541.45 147.26 541.42 150.03 C 545.53 154.84 549.83 159.49 554.00 164.26 C 554.00 157.58 554.00 150.90 554.01 144.22 C 552.27 142.48 550.35 140.88 548.88 138.90 C 550.03 134.83 551.76 130.94 553.34 127.02 Z" />
<path fill="#d1d2d4" opacity="1.00" d=" M 573.07 136.03 C 576.25 132.79 579.17 129.16 582.97 126.61 L 582.73 127.47 C 578.61 142.48 576.88 158.08 572.72 173.07 C 570.95 169.03 569.07 165.04 567.46 160.93 C 568.40 159.97 569.16 158.85 569.65 157.58 C 571.65 152.70 573.80 147.87 575.84 142.99 C 574.94 140.66 574.05 138.32 573.07 136.03 Z" />
<path fill="#d1d2d4" opacity="1.00" d=" M 309.02 186.04 C 309.74 170.91 319.70 156.16 334.07 150.90 C 328.91 155.67 324.19 161.08 321.50 167.65 C 315.54 180.88 317.56 197.16 326.29 208.69 C 333.37 218.45 344.84 224.30 356.71 225.58 C 355.26 230.41 353.48 235.13 351.88 239.91 C 346.68 240.11 341.46 239.89 336.26 240.12 C 336.13 246.98 336.39 253.84 336.13 260.70 C 326.08 260.71 316.04 260.69 306.00 260.71 C 305.78 253.78 305.91 246.85 305.91 239.91 C 313.05 239.84 320.18 239.94 327.32 239.86 C 322.18 234.76 316.39 230.36 310.97 225.56 C 313.96 222.46 317.18 219.57 320.03 216.33 C 312.33 208.37 308.35 197.06 309.02 186.04 Z" />
<path fill="#d1d2d4" opacity="1.00" d=" M 456.95 158.05 C 458.03 155.75 459.85 153.94 461.48 152.03 C 463.87 155.06 466.19 158.17 468.68 161.13 C 467.22 163.31 465.60 165.38 463.89 167.36 C 461.36 164.44 458.51 161.63 456.95 158.05 Z" />
<path fill="#d1d2d4" opacity="1.00" d=" M 200.63 152.65 C 204.42 152.57 208.21 152.57 212.00 152.62 C 211.99 155.71 211.99 158.79 212.01 161.88 C 213.93 161.88 215.86 161.90 217.79 161.88 C 217.72 169.56 217.65 177.25 217.87 184.94 C 233.69 185.20 249.52 184.73 265.34 185.19 C 261.57 187.99 256.51 189.47 253.67 193.24 C 251.84 193.66 250.11 194.40 248.56 195.47 C 241.82 199.80 234.76 203.64 228.11 208.12 C 227.27 218.69 227.25 229.31 226.14 239.85 C 223.84 239.94 221.55 240.09 219.26 240.18 C 219.15 247.02 219.40 253.86 219.13 260.70 C 210.78 260.71 202.43 260.66 194.08 260.73 C 193.94 253.79 194.02 246.85 194.02 239.90 C 198.39 239.88 202.77 239.87 207.15 239.91 C 209.12 224.07 210.61 208.12 212.05 192.22 C 208.20 189.87 204.22 187.70 200.55 185.08 C 200.68 174.27 200.53 163.46 200.63 152.65 Z" />
<path fill="#d1d2d4" opacity="1.00" d=" M 223.37 153.06 C 226.25 151.93 229.82 152.90 232.97 152.60 C 233.01 155.73 233.00 158.86 232.93 161.99 C 229.71 162.05 226.49 162.01 223.28 161.91 C 223.34 158.96 223.17 156.00 223.37 153.06 Z" />
<path fill="#d1d2d4" opacity="1.00" d=" M 654.86 163.37 L 655.51 163.43 C 661.97 164.18 668.47 163.40 674.94 163.94 C 677.24 173.88 679.13 183.91 681.30 193.88 C 685.09 193.98 688.89 194.08 692.69 194.11 C 693.01 195.19 693.37 196.26 693.72 197.34 C 689.19 199.47 684.93 202.15 680.78 204.92 C 679.63 205.57 679.58 207.00 679.34 208.13 C 677.85 218.71 676.40 229.29 674.88 239.87 C 672.48 239.94 670.08 240.05 667.69 240.12 C 667.42 246.98 667.52 253.86 667.69 260.73 C 659.41 260.72 651.12 260.61 642.83 260.78 C 642.30 253.85 642.72 246.89 642.62 239.94 C 647.06 239.84 651.51 239.91 655.95 239.88 C 660.06 226.63 663.91 213.30 667.96 200.03 C 668.37 197.76 670.04 195.36 669.12 193.06 C 664.53 183.09 659.30 173.41 654.86 163.37 Z" />
<path fill="#d1d2d4" opacity="1.00" d=" M 428.79 167.41 L 429.31 167.45 C 436.82 168.29 444.40 167.24 451.91 167.96 C 458.09 173.78 461.87 181.92 468.37 187.48 C 467.75 188.72 468.41 190.08 468.68 191.34 C 464.11 193.83 459.56 196.38 455.29 199.33 C 454.01 200.09 454.19 201.72 453.94 202.98 C 452.83 215.27 451.79 227.57 450.69 239.87 C 448.03 239.97 445.37 240.01 442.72 240.08 C 442.40 246.96 442.50 253.85 442.71 260.72 C 434.43 260.73 426.14 260.60 417.86 260.79 C 417.26 253.86 417.74 246.88 417.62 239.94 C 422.41 239.84 427.19 239.92 431.98 239.88 C 436.29 222.66 440.48 205.41 444.56 188.14 C 439.37 181.18 433.69 174.57 428.79 167.41 Z" />
<path fill="#d1d2d4" opacity="1.00" d=" M 101.78 193.27 C 99.39 187.59 99.86 180.93 102.75 175.53 C 112.06 184.42 120.94 193.73 130.18 202.69 L 129.98 202.85 C 126.60 205.52 123.29 208.28 119.96 211.01 C 118.76 212.10 117.20 213.16 117.17 214.97 C 115.95 223.24 115.46 231.61 114.09 239.86 C 111.65 239.95 109.21 240.06 106.78 240.14 C 106.22 246.98 106.85 253.85 106.35 260.70 C 98.01 260.69 89.66 260.71 81.32 260.69 C 81.27 253.80 81.34 246.91 81.28 240.02 C 87.05 239.66 92.85 240.11 98.63 239.75 C 102.35 227.45 106.21 215.18 110.17 202.95 C 106.73 200.36 103.38 197.38 101.78 193.27 Z" />
<path fill="#d1d2d4" opacity="1.00" d=" M 334.38 182.06 C 337.95 185.18 341.21 188.63 344.53 192.02 C 347.68 195.26 350.92 198.42 354.09 201.65 C 347.53 201.75 340.98 201.86 334.42 201.66 C 334.44 195.12 334.47 188.59 334.38 182.06 Z" />
</g>
<g id="#f3f3f4ff">
<path fill="#f3f3f4" opacity="1.00" d=" M 681.11 119.59 C 683.07 119.58 685.04 119.57 687.02 119.57 C 686.30 122.51 685.58 125.44 684.85 128.37 C 687.76 127.85 690.68 127.30 693.57 126.62 C 693.80 130.26 693.83 133.92 693.54 137.56 C 690.67 136.85 687.79 136.27 684.88 135.82 C 685.65 140.36 686.66 144.87 687.29 149.44 C 685.23 149.43 683.18 149.42 681.14 149.41 C 681.29 139.47 681.32 129.53 681.11 119.59 Z" />
<path fill="#f3f3f4" opacity="1.00" d=" M 554.54 131.35 C 554.30 130.07 554.35 128.76 554.44 127.48 C 557.32 130.17 560.06 132.99 562.82 135.81 C 561.89 138.20 560.98 140.60 560.06 143.01 C 562.37 149.04 565.22 154.86 567.46 160.93 C 569.07 165.04 570.95 169.03 572.72 173.07 C 576.88 158.08 578.61 142.48 582.73 127.47 C 584.22 131.30 585.90 135.05 587.13 138.98 C 585.39 140.65 583.69 142.37 581.99 144.08 C 582.01 150.67 581.94 157.27 582.02 163.86 C 586.40 159.40 590.37 154.55 594.55 149.91 C 594.55 147.16 594.58 144.40 594.56 141.65 C 597.83 140.62 601.17 139.79 604.50 138.95 C 597.32 154.72 590.11 170.48 582.78 186.19 C 577.27 186.21 571.75 186.53 566.25 186.01 C 562.29 167.80 558.62 149.53 554.54 131.35 Z" />
<path fill="#f3f3f4" opacity="1.00" d=" M 429.31 167.45 C 438.26 155.80 447.13 144.04 456.42 132.67 C 459.70 137.05 463.14 141.32 466.44 145.70 C 464.85 147.86 463.26 150.02 461.48 152.03 C 459.85 153.94 458.03 155.75 456.95 158.05 C 458.51 161.63 461.36 164.44 463.89 167.36 C 465.60 165.38 467.22 163.31 468.68 161.13 C 470.11 158.93 471.76 156.87 473.41 154.82 C 477.01 159.04 480.24 163.56 483.68 167.91 C 478.56 174.42 473.65 181.10 468.37 187.48 C 461.87 181.92 458.09 173.78 451.91 167.96 C 444.40 167.24 436.82 168.29 429.31 167.45 Z" />
<path fill="#f3f3f4" opacity="1.00" d=" M 334.07 150.90 C 334.28 150.69 334.71 150.26 334.93 150.05 C 349.85 159.46 364.24 169.70 379.04 179.31 C 375.35 184.43 371.31 189.29 367.63 194.41 C 364.57 191.17 360.68 188.31 356.06 188.14 C 351.84 187.68 347.78 189.45 344.53 192.02 C 341.21 188.63 337.95 185.18 334.38 182.06 C 334.47 188.59 334.44 195.12 334.42 201.66 C 340.98 201.86 347.53 201.75 354.09 201.65 C 362.15 209.51 369.97 217.61 378.04 225.46 C 372.70 230.36 366.85 234.72 361.69 239.82 C 368.93 239.93 376.17 239.78 383.41 239.90 C 383.36 246.85 383.63 253.82 383.27 260.77 C 367.56 260.63 351.84 260.77 336.13 260.70 C 336.39 253.84 336.13 246.98 336.26 240.12 C 341.46 239.89 346.68 240.11 351.88 239.91 C 353.48 235.13 355.26 230.41 356.71 225.58 C 344.84 224.30 333.37 218.45 326.29 208.69 C 317.56 197.16 315.54 180.88 321.50 167.65 C 324.19 161.08 328.91 155.67 334.07 150.90 Z" />
<path fill="#f3f3f4" opacity="1.00" d=" M 232.97 152.60 C 236.11 152.54 239.26 152.55 242.40 152.61 C 242.42 155.66 242.45 158.73 242.43 161.79 C 246.22 161.90 250.02 161.88 253.82 161.80 C 253.83 158.73 253.88 155.66 253.90 152.59 C 257.73 152.55 261.56 152.54 265.40 152.60 C 265.42 163.47 265.53 174.33 265.34 185.19 C 249.52 184.73 233.69 185.20 217.87 184.94 C 217.65 177.25 217.72 169.56 217.79 161.88 C 219.62 161.86 221.45 161.84 223.28 161.91 C 226.49 162.01 229.71 162.05 232.93 161.99 C 233.00 158.86 233.01 155.73 232.97 152.60 Z" />
<path fill="#f3f3f4" opacity="1.00" d=" M 655.51 163.43 C 670.31 152.01 692.99 152.02 707.44 164.01 C 702.48 174.02 697.73 184.14 692.69 194.11 C 688.89 194.08 685.09 193.98 681.30 193.88 C 679.13 183.91 677.24 173.88 674.94 163.94 C 668.47 163.40 661.97 164.18 655.51 163.43 Z" />
<path fill="#f3f3f4" opacity="1.00" d=" M 102.75 175.53 C 105.90 170.52 111.01 166.59 116.99 165.84 C 126.53 164.09 136.66 170.49 139.15 179.86 C 141.93 188.43 137.73 198.08 130.18 202.69 C 120.94 193.73 112.06 184.42 102.75 175.53 Z" />
<path fill="#f3f3f4" opacity="1.00" d=" M 565.42 200.39 C 571.30 196.70 577.21 193.05 583.28 189.69 C 586.75 206.37 589.79 223.14 593.23 239.83 C 597.73 239.93 602.24 239.70 606.75 240.00 C 606.67 246.90 606.74 253.81 606.71 260.71 C 589.19 260.71 571.67 260.73 554.16 260.70 C 554.37 253.86 554.17 247.02 554.24 240.18 C 557.05 240.04 559.87 239.95 562.69 239.80 C 563.51 226.65 564.42 213.52 565.42 200.39 Z" />
<path fill="#f3f3f4" opacity="1.00" d=" M 455.29 199.33 C 459.56 196.38 464.11 193.83 468.68 191.34 C 472.71 207.46 476.53 223.63 480.49 239.77 C 485.32 239.95 490.15 239.81 494.99 239.87 C 494.99 246.82 495.02 253.78 494.97 260.73 C 477.55 260.69 460.13 260.72 442.71 260.72 C 442.50 253.85 442.40 246.96 442.72 240.08 C 445.37 240.01 448.03 239.97 450.69 239.87 C 451.79 227.57 452.83 215.27 453.94 202.98 C 454.19 201.72 454.01 200.09 455.29 199.33 Z" />
<path fill="#f3f3f4" opacity="1.00" d=" M 248.56 195.47 C 250.11 194.40 251.84 193.66 253.67 193.24 C 255.29 208.74 256.90 224.23 258.37 239.75 C 262.82 239.99 267.27 239.73 271.72 239.95 C 271.71 246.87 271.72 253.79 271.71 260.71 C 254.18 260.71 236.66 260.73 219.13 260.70 C 219.40 253.86 219.15 247.02 219.26 240.18 C 221.55 240.09 223.84 239.94 226.14 239.85 C 227.25 229.31 227.27 218.69 228.11 208.12 C 234.76 203.64 241.82 199.80 248.56 195.47 Z" />
<path fill="#f3f3f4" opacity="1.00" d=" M 680.78 204.92 C 684.93 202.15 689.19 199.47 693.72 197.34 C 697.88 211.52 702.18 225.65 706.39 239.80 C 710.92 239.91 715.45 239.83 719.98 239.87 C 719.99 246.83 720.01 253.78 719.96 260.74 C 702.54 260.69 685.12 260.71 667.69 260.73 C 667.52 253.86 667.42 246.98 667.69 240.12 C 670.08 240.05 672.48 239.94 674.88 239.87 C 676.40 229.29 677.85 218.71 679.34 208.13 C 679.58 207.00 679.63 205.57 680.78 204.92 Z" />
<path fill="#f3f3f4" opacity="1.00" d=" M 119.96 211.01 C 123.29 208.28 126.60 205.52 129.98 202.85 C 133.93 215.10 137.73 227.40 141.55 239.70 C 147.35 240.05 153.17 239.76 158.99 239.87 C 158.98 246.82 159.02 253.78 158.96 260.74 C 141.43 260.67 123.89 260.74 106.35 260.70 C 106.85 253.85 106.22 246.98 106.78 240.14 C 109.21 240.06 111.65 239.95 114.09 239.86 C 115.46 231.61 115.95 223.24 117.17 214.97 C 117.20 213.16 118.76 212.10 119.96 211.01 Z" />
</g>
<g id="#2d2d2eff">
<path fill="#2d2d2e" opacity="1.00" d=" M 674.89 336.92 C 679.01 336.58 683.15 336.81 687.29 336.78 C 686.85 339.89 685.82 342.87 685.11 345.92 C 688.13 345.45 691.08 344.19 694.19 344.58 C 694.04 348.26 694.95 352.18 693.40 355.66 C 690.69 354.84 687.92 354.33 685.11 354.05 C 686.06 358.50 686.90 362.97 687.62 367.46 C 685.48 367.43 683.36 367.43 681.24 367.37 C 681.20 357.43 681.37 347.50 681.16 337.56 C 679.16 337.50 677.16 337.60 675.32 338.43 C 675.21 338.05 675.00 337.30 674.89 336.92 Z" />
<path fill="#2d2d2e" opacity="1.00" d=" M 582.34 343.71 C 584.28 347.79 585.42 352.20 587.51 356.21 C 586.07 358.41 583.67 359.80 582.33 362.03 C 582.06 368.43 582.38 374.85 582.18 381.26 C 586.28 376.73 590.36 372.15 594.30 367.49 C 594.52 364.64 594.30 361.77 594.53 358.93 C 597.98 358.38 601.25 357.13 604.68 356.48 C 597.87 372.48 590.25 388.17 583.04 404.01 C 577.44 403.96 571.84 404.11 566.24 403.89 C 562.25 384.14 557.60 364.53 553.90 344.74 C 556.95 347.47 559.97 350.26 562.78 353.24 C 562.57 355.96 561.07 358.39 560.27 360.96 C 563.05 366.76 565.82 372.60 567.87 378.70 C 569.03 382.98 570.92 387.00 572.71 391.05 C 574.66 385.43 575.25 379.46 576.62 373.70 C 578.41 363.93 580.94 354.28 582.25 344.43 L 582.34 343.71 Z" />
<path fill="#2d2d2e" opacity="1.00" d=" M 431.66 381.67 C 439.82 371.16 447.98 360.65 456.12 350.12 C 459.89 354.16 463.01 358.76 466.46 363.07 C 465.96 365.75 463.36 367.63 461.70 369.73 C 459.81 371.64 458.09 373.72 456.65 375.98 C 458.82 379.13 461.20 382.13 463.56 385.14 C 465.77 383.44 467.23 381.04 468.58 378.64 C 469.88 376.41 471.63 374.50 473.18 372.46 C 477.38 376.13 480.05 381.27 483.89 385.33 C 482.15 388.62 479.49 391.28 477.32 394.27 C 474.26 398.09 471.53 402.19 468.14 405.73 C 463.07 399.77 458.48 393.43 453.63 387.30 C 451.73 384.42 447.89 385.82 445.02 385.50 C 439.76 385.94 434.23 384.54 429.19 386.44 L 428.37 386.73 C 429.16 384.85 430.35 383.21 431.66 381.67 Z" />
<path fill="#2d2d2e" opacity="1.00" d=" M 331.09 369.59 C 332.65 368.58 334.67 366.68 336.46 368.37 C 350.08 377.48 363.67 386.66 377.37 395.66 C 378.35 396.09 379.52 397.42 378.40 398.41 C 374.90 402.93 371.51 407.54 367.91 411.97 C 366.42 411.96 365.65 410.31 364.49 409.58 C 358.96 404.71 350.28 405.31 344.72 409.81 C 341.38 406.65 338.36 403.14 334.70 400.33 C 334.40 406.68 334.44 413.04 334.65 419.40 C 341.07 419.47 347.49 419.70 353.89 419.20 L 354.22 419.18 C 360.66 425.62 367.10 432.07 373.55 438.51 C 375.17 440.17 377.10 441.63 378.11 443.79 C 372.59 448.12 367.31 452.77 362.05 457.42 C 369.23 457.36 376.41 457.41 383.59 457.38 C 383.64 464.45 383.59 471.53 383.62 478.60 C 367.83 478.59 352.04 478.66 336.25 478.57 C 336.25 471.70 336.22 464.83 336.25 457.97 C 341.43 457.55 346.62 457.83 351.81 457.71 C 353.60 452.99 355.12 448.17 356.87 443.43 C 346.20 442.13 335.76 437.60 328.64 429.36 C 317.66 417.34 314.94 398.69 322.09 384.05 C 324.48 378.54 328.73 374.24 332.64 369.81 L 331.09 369.59 Z" />
<path fill="#2d2d2e" opacity="1.00" d=" M 232.99 370.14 C 236.18 369.57 239.46 369.51 242.64 370.18 C 242.62 373.23 242.64 376.29 242.54 379.35 C 246.21 379.81 249.92 379.48 253.61 379.60 C 253.53 376.33 253.55 373.05 253.65 369.78 C 257.48 369.91 261.37 369.35 265.16 370.06 C 266.23 372.50 265.35 375.43 265.60 378.07 C 265.51 386.64 265.82 395.23 265.44 403.81 L 264.67 403.57 C 262.84 402.92 260.91 402.65 258.98 402.70 C 245.32 402.81 231.65 402.72 217.99 402.77 C 217.47 395.06 217.82 387.32 217.81 379.59 C 219.59 379.58 221.38 379.58 223.17 379.74 C 226.42 380.02 229.70 380.09 232.97 379.98 C 233.01 376.70 233.03 373.42 232.99 370.14 Z" />
<path fill="#2d2d2e" opacity="1.00" d=" M 661.97 376.95 C 676.28 369.72 694.58 371.33 707.30 381.15 L 707.48 381.96 C 702.82 392.01 697.90 401.95 692.96 411.86 C 689.08 411.70 685.21 411.78 681.34 411.71 C 679.02 401.65 677.37 391.45 674.82 381.45 C 668.48 381.42 662.14 381.68 655.81 381.28 C 657.29 379.15 659.77 378.15 661.97 376.95 Z" />
<path fill="#2d2d2e" opacity="1.00" d=" M 113.99 384.06 C 122.57 381.15 132.85 385.01 137.32 392.91 C 143.20 401.93 139.75 415.30 130.36 420.48 C 120.76 411.82 112.32 401.91 102.54 393.44 L 102.25 393.21 C 105.34 389.27 109.01 385.43 113.99 384.06 Z" />
<path fill="#2d2d2e" opacity="1.00" d=" M 468.51 406.97 C 472.45 423.79 476.61 440.57 480.71 457.35 C 485.57 457.45 490.42 457.33 495.28 457.44 C 495.22 464.49 495.23 471.53 495.27 478.58 C 477.72 478.60 460.18 478.67 442.63 478.55 C 442.46 471.66 442.39 464.76 442.63 457.87 C 445.31 457.77 447.99 457.73 450.68 457.65 C 452.02 444.31 452.78 430.90 454.44 417.60 C 458.34 415.05 462.42 412.80 466.36 410.31 C 467.68 409.65 468.39 408.42 468.51 406.97 Z" />
<path fill="#2d2d2e" opacity="1.00" d=" M 565.39 418.28 C 571.19 414.50 577.12 410.93 583.16 407.55 C 584.34 409.48 584.41 411.79 584.86 413.96 C 587.05 425.01 589.16 436.07 591.36 447.12 C 592.10 450.58 592.39 454.18 593.74 457.50 C 598.08 457.28 602.44 457.43 606.79 457.34 C 607.60 460.86 607.14 464.47 607.23 468.05 C 607.14 471.58 607.60 475.17 606.79 478.66 C 589.28 478.65 571.76 478.47 554.26 478.75 L 554.26 478.41 C 554.24 471.59 554.23 464.78 554.24 457.96 C 557.04 457.77 559.85 457.71 562.66 457.66 C 563.58 444.54 564.45 431.41 565.39 418.28 Z" />
<path fill="#2d2d2e" opacity="1.00" d=" M 229.68 424.75 C 237.90 419.91 245.95 414.79 254.15 409.93 C 255.06 425.77 257.28 441.52 258.60 457.33 C 263.00 457.76 267.67 456.75 271.91 457.81 C 272.65 464.64 272.11 471.59 272.17 478.47 C 254.54 478.76 236.89 478.57 219.26 478.56 C 219.26 471.72 219.22 464.87 219.25 458.03 C 221.64 457.79 224.05 457.73 226.44 457.41 C 226.81 447.96 227.46 438.52 227.89 429.07 C 228.06 427.50 227.85 425.40 229.68 424.75 Z" />
<path fill="#2d2d2e" opacity="1.00" d=" M 693.70 414.33 C 698.08 428.68 702.09 443.16 706.79 457.42 C 711.29 457.43 715.80 457.21 720.31 457.52 C 720.19 464.54 720.24 471.55 720.27 478.57 C 702.72 478.62 685.17 478.66 667.62 478.55 C 667.46 471.63 667.41 464.71 667.63 457.81 C 670.02 457.78 672.42 457.74 674.83 457.73 C 676.72 446.25 677.88 434.66 679.91 423.20 C 684.42 420.11 689.45 417.80 693.70 414.33 Z" />
<path fill="#2d2d2e" opacity="1.00" d=" M 119.32 429.35 C 122.85 426.40 126.40 423.46 130.08 420.70 C 134.37 432.78 137.82 445.15 141.80 457.34 C 147.62 457.47 153.45 457.34 159.27 457.41 C 159.23 464.47 159.23 471.52 159.27 478.58 C 141.73 478.60 124.19 478.67 106.64 478.54 C 106.43 471.64 106.44 464.74 106.60 457.84 C 109.08 457.79 111.56 457.72 114.04 457.69 C 115.57 449.18 115.99 440.52 117.29 431.98 C 117.42 430.79 118.56 430.13 119.32 429.35 Z" />
</g>
<g id="#000000ff">
<path fill="#000000" opacity="1.00" d=" M 675.32 338.43 C 677.16 337.60 679.16 337.50 681.16 337.56 C 681.37 347.50 681.20 357.43 681.24 367.37 C 679.05 367.35 676.86 367.36 674.69 367.37 C 675.82 362.97 676.39 358.45 677.35 354.01 C 674.40 354.25 671.50 354.80 668.64 355.53 C 668.63 351.78 668.62 348.02 668.66 344.27 C 671.56 344.85 674.48 345.41 677.39 345.98 C 676.73 343.45 676.03 340.94 675.32 338.43 Z" />
<path fill="#000000" opacity="1.00" d=" M 552.69 345.91 C 552.99 345.62 553.60 345.03 553.90 344.74 C 557.60 364.53 562.25 384.14 566.24 403.89 C 571.84 404.11 577.44 403.96 583.04 404.01 C 583.15 404.85 583.37 406.52 583.48 407.36 L 583.16 407.55 C 577.12 410.93 571.19 414.50 565.39 418.28 C 564.45 431.41 563.58 444.54 562.66 457.66 C 559.85 457.71 557.04 457.77 554.24 457.96 C 554.23 464.78 554.24 471.59 554.26 478.41 C 545.91 478.70 537.54 478.59 529.18 478.48 C 529.23 471.49 529.23 464.51 529.17 457.53 C 533.64 457.34 538.12 457.45 542.59 457.46 C 546.04 440.57 549.25 423.63 552.59 406.72 C 553.55 403.49 551.16 400.74 550.05 397.90 C 543.83 384.06 537.22 370.39 531.17 356.47 C 534.58 357.37 537.96 358.43 541.45 359.00 C 541.57 361.87 541.61 364.75 541.53 367.62 C 545.55 372.44 549.91 376.96 553.91 381.79 C 553.78 375.22 553.89 368.66 553.84 362.10 C 552.11 360.34 550.37 358.60 548.55 356.95 C 549.70 353.19 551.25 349.57 552.69 345.91 Z" />
<path fill="#000000" opacity="1.00" d=" M 573.00 353.33 C 576.17 350.46 578.97 347.19 582.25 344.43 C 580.94 354.28 578.41 363.93 576.62 373.70 C 575.25 379.46 574.66 385.43 572.71 391.05 C 570.92 387.00 569.03 382.98 567.87 378.70 C 570.54 372.85 573.09 366.94 575.53 361.00 C 575.03 358.36 573.53 355.99 573.00 353.33 Z" />
<path fill="#000000" opacity="1.00" d=" M 200.63 370.12 C 204.44 370.27 208.25 370.19 212.07 370.20 C 212.18 373.35 212.17 376.52 212.13 379.68 C 214.02 379.66 215.92 379.65 217.81 379.59 C 217.82 387.32 217.47 395.06 217.99 402.77 C 231.65 402.72 245.32 402.81 258.98 402.70 C 260.91 402.65 262.84 402.92 264.67 403.57 C 261.17 405.70 257.71 407.90 254.15 409.93 C 245.95 414.79 237.90 419.91 229.68 424.75 C 227.85 425.40 228.06 427.50 227.89 429.07 C 227.46 438.52 226.81 447.96 226.44 457.41 C 224.05 457.73 221.64 457.79 219.25 458.03 C 219.22 464.87 219.26 471.72 219.26 478.56 C 210.78 478.56 202.31 478.58 193.84 478.55 C 193.85 471.52 193.85 464.48 193.84 457.44 C 198.32 457.33 202.81 457.64 207.29 457.28 C 208.65 441.56 210.59 425.89 211.90 410.17 C 208.09 407.82 204.25 405.54 200.44 403.19 C 200.55 392.16 200.19 381.12 200.63 370.12 Z" />
<path fill="#000000" opacity="1.00" d=" M 223.23 370.22 C 226.48 370.19 229.73 370.25 232.99 370.14 C 233.03 373.42 233.01 376.70 232.97 379.98 C 229.70 380.09 226.42 380.02 223.17 379.74 C 223.20 376.56 223.21 373.39 223.23 370.22 Z" />
<path fill="#000000" opacity="1.00" d=" M 309.03 401.91 C 310.21 388.28 318.96 375.77 331.09 369.59 L 332.64 369.81 C 328.73 374.24 324.48 378.54 322.09 384.05 C 314.94 398.69 317.66 417.34 328.64 429.36 C 335.76 437.60 346.20 442.13 356.87 443.43 C 355.12 448.17 353.60 452.99 351.81 457.71 C 346.62 457.83 341.43 457.55 336.25 457.97 C 336.22 464.83 336.25 471.70 336.25 478.57 C 326.04 478.56 315.84 478.57 305.64 478.56 C 305.64 471.52 305.63 464.48 305.64 457.45 C 312.79 457.44 319.94 457.39 327.09 457.48 C 321.76 452.79 316.43 448.10 310.90 443.67 C 313.32 440.07 316.91 437.47 319.76 434.22 C 311.78 425.63 307.67 413.59 309.03 401.91 Z" />
<path fill="#000000" opacity="1.00" d=" M 456.65 375.98 C 458.09 373.72 459.81 371.64 461.70 369.73 C 463.96 372.73 466.28 375.68 468.58 378.64 C 467.23 381.04 465.77 383.44 463.56 385.14 C 461.20 382.13 458.82 379.13 456.65 375.98 Z" />
<path fill="#000000" opacity="1.00" d=" M 654.85 381.24 L 655.81 381.28 C 662.14 381.68 668.48 381.42 674.82 381.45 C 677.37 391.45 679.02 401.65 681.34 411.71 C 685.21 411.78 689.08 411.70 692.96 411.86 C 693.14 412.48 693.51 413.71 693.70 414.33 C 689.45 417.80 684.42 420.11 679.91 423.20 C 677.88 434.66 676.72 446.25 674.83 457.73 C 672.42 457.74 670.02 457.78 667.63 457.81 C 667.41 464.71 667.46 471.63 667.62 478.55 C 659.23 478.58 650.83 478.56 642.44 478.56 C 642.43 471.52 642.43 464.48 642.44 457.44 C 646.88 457.43 651.33 457.37 655.77 457.52 C 660.54 442.40 664.93 427.15 669.49 411.96 C 664.69 401.68 659.26 391.68 654.85 381.24 Z" />
<path fill="#000000" opacity="1.00" d=" M 429.19 386.44 C 434.23 384.54 439.76 385.94 445.02 385.50 C 447.89 385.82 451.73 384.42 453.63 387.30 C 458.48 393.43 463.07 399.77 468.14 405.73 C 468.23 406.04 468.42 406.66 468.51 406.97 C 468.39 408.42 467.68 409.65 466.36 410.31 C 462.42 412.80 458.34 415.05 454.44 417.60 C 452.78 430.90 452.02 444.31 450.68 457.65 C 447.99 457.73 445.31 457.77 442.63 457.87 C 442.39 464.76 442.46 471.66 442.63 478.55 C 434.23 478.57 425.84 478.57 417.44 478.56 C 417.43 471.52 417.43 464.48 417.44 457.44 C 422.21 457.44 426.98 457.38 431.75 457.51 C 436.33 440.44 440.11 423.15 444.45 406.01 C 439.33 399.51 434.32 392.93 429.19 386.44 Z" />
<path fill="#000000" opacity="1.00" d=" M 102.54 393.44 C 112.32 401.91 120.76 411.82 130.36 420.48 L 130.08 420.70 C 126.40 423.46 122.85 426.40 119.32 429.35 C 118.56 430.13 117.42 430.79 117.29 431.98 C 115.99 440.52 115.57 449.18 114.04 457.69 C 111.56 457.72 109.08 457.79 106.60 457.84 C 106.44 464.74 106.43 471.64 106.64 478.54 C 98.23 478.65 89.81 478.42 81.40 478.67 C 80.93 471.65 81.42 464.61 81.14 457.58 C 86.88 457.25 92.64 457.52 98.40 457.44 C 102.18 445.10 106.28 432.86 109.86 420.48 C 100.56 415.38 97.40 402.54 102.54 393.44 Z" />
<path fill="#000000" opacity="1.00" d=" M 334.70 400.33 C 338.36 403.14 341.38 406.65 344.72 409.81 C 347.82 412.90 351.06 415.85 353.89 419.20 C 347.49 419.70 341.07 419.47 334.65 419.40 C 334.44 413.04 334.40 406.68 334.70 400.33 Z" />
</g>
</svg>
