<?xml version="1.0" encoding="utf-8"?>
<!-- Generator: Adobe Illustrator 19.1.0, SVG Export Plug-In . SVG Version: 6.00 Build 0)  -->
<svg version="1.1" id="Layer_1" xmlns="http://www.w3.org/2000/svg" xmlns:xlink="http://www.w3.org/1999/xlink" x="0px" y="0px"
	 viewBox="0 0 71 76" style="enable-background:new 0 0 71 76;" xml:space="preserve">
<style type="text/css">
	.st0{fill-rule:evenodd;clip-rule:evenodd;fill:#FFD951;}
</style>
<path class="st0" d="M43.6,5h-16L17,11.6l18.5,18.6l18.5-18.6L43.6,5z M35.6,24.6l-8-10.6h16L35.6,24.6z"/>
<path class="st0" d="M29.5,15.1h12l-6,8L29.5,15.1z"/>
<path class="st0" d="M41.6,47.2h-12l6-8L41.6,47.2z"/>
<path class="st0" d="M35.6,32.2L17,50.8l10.5,6.5h2l6-6.5l6,6.5h2l10.5-6.5L35.6,32.2z M27.5,48.3l8-10.6l8,10.6H27.5z"/>
<path class="st0" d="M40.1,57.3h-9l4.5-5L40.1,57.3z"/>
<polygon class="st0" points="61.6,30.7 61.6,23.1 55.1,12.6 36.6,31.2 55.1,49.8 61.6,39.2 61.6,31.7 50.6,31.7 50.6,39.2 
	40.1,31.2 50.6,23.1 50.6,30.7 "/>
<path class="st0" d="M49.6,25.1v5.5h-7.3L49.6,25.1z"/>
<path class="st0" d="M49.6,37.2v-5.5h-7.3L49.6,37.2z"/>
<polygon class="st0" points="16,12.6 9.5,23.1 9.5,30.7 20.5,30.7 20.5,23.1 31,31.2 20.5,39.2 20.5,31.7 9.5,31.7 9.5,39.2 
	16,49.8 34.5,31.2 "/>
<path class="st0" d="M21.5,25.1v5.5h7.3L21.5,25.1z"/>
<path class="st0" d="M21.5,37.2v-5.5h7.3L21.5,37.2z"/>
<path class="st0" d="M29.5,4l6-4l6,4H29.5z"/>
<path class="st0" d="M44.4,4.2l7.2-0.2l3,6.6L44.4,4.2z"/>
<path class="st0" d="M26.7,4.2l-7.2-0.2l-3,6.6L26.7,4.2z"/>
<path class="st0" d="M44.4,58.1l7.2,0.2l3-6.6L44.4,58.1z"/>
<path class="st0" d="M26.7,58.1l-7.2,0.2l-3-6.6L26.7,58.1z"/>
<path class="st0" d="M62.4,22.3l0.2-7.2l-6.6-3L62.4,22.3z"/>
<path class="st0" d="M62.4,40l0.2,7.2l-6.6,3L62.4,40z"/>
<path class="st0" d="M8.7,22.3l-0.2-7.2l6.6-3L8.7,22.3z"/>
<path class="st0" d="M8.7,40l-0.2,7.2l6.6,3L8.7,40z"/>
<path class="st0" d="M62.6,30.7h3.6l-3.6-5.5V30.7z"/>
<path class="st0" d="M62.6,31.7h3.6l-3.6,5.5V31.7z"/>
<path class="st0" d="M8.5,30.7H4.9l3.6-5.5V30.7z"/>
<path class="st0" d="M8.5,31.7H4.9l3.6,5.5V31.7z"/>
<path class="st0" d="M29.5,58.2l6,4l6-4H29.5z"/>
<path class="st0" d="M43.2,59.4l9.2,0.2l3.6-7.7l14.4,14.5l-9.6,0.1L60.7,76L43.2,59.4z"/>
<path class="st0" d="M27.8,59.4l-9.2,0.2L15,51.9L0.6,66.3l9.6,0.1l0.1,9.6L27.8,59.4z"/>
</svg>
