<?xml version="1.0" encoding="utf-8"?>
<!-- Generator: Adobe Illustrator 19.1.0, SVG Export Plug-In . SVG Version: 6.00 Build 0)  -->
<svg version="1.1" id="Layer_1" xmlns="http://www.w3.org/2000/svg" xmlns:xlink="http://www.w3.org/1999/xlink" x="0px" y="0px"
	 viewBox="0 0 386 360" style="enable-background:new 0 0 386 360;" xml:space="preserve">
<style type="text/css">
	.st0{fill:#F7F953;}
	.st1{fill:#D85708;}
	.st2{fill:#B33035;}
	.st3{fill:#006CFF;}
	.st4{fill:#7C30B3;}
	.st5{fill:#FF8400;}
	.st6{fill:#00FCFF;}
	.st7{fill:#E35BF3;}
	.st8{fill:#933246;}
	.st9{fill:#45AD21;}
	.st10{fill:#FFC12C;}
	.st11{fill:#80A2C9;}
	.st12{fill:#208AE3;}
	.st13{fill:#94E515;}
</style>
<g id="PSILONS">
	<g>
		<path class="st7" d="M192.4,112.9c30.8,0,55.8-25.1,55.8-56c0-30.9-25-56-55.8-56c-30.8,0-55.8,25.1-55.8,56
			C136.5,87.9,161.5,112.9,192.4,112.9z M192.4,3.2C221.9,3.2,246,27.3,246,57c0,29.6-24,53.7-53.6,53.7
			c-29.6,0-53.6-24.1-53.6-53.7C138.8,27.3,162.8,3.2,192.4,3.2z M192.4,91.8c18.7,0,34-15.3,34-34.1s-15.2-34.1-34-34.1
			s-34,15.3-34,34.1S173.6,91.8,192.4,91.8z M192.4,25.9c17.5,0,31.8,14.2,31.8,31.8s-14.2,31.8-31.8,31.8
			c-17.5,0-31.8-14.2-31.8-31.8S174.8,25.9,192.4,25.9z M306.2,221.2c-18.7,0-34,15.3-34,34.1s15.2,34.1,34,34.1s34-15.3,34-34.1
			S325,221.2,306.2,221.2z M306.2,287.1c-17.5,0-31.8-14.2-31.8-31.8c0-17.6,14.2-31.8,31.8-31.8c17.5,0,31.8,14.2,31.8,31.8
			C338,272.8,323.8,287.1,306.2,287.1z M306.2,198.5c-30.8,0-55.8,25.1-55.8,56s25,56,55.8,56s55.8-25.1,55.8-56
			S337.1,198.5,306.2,198.5z M306.2,308.2c-29.6,0-53.6-24.1-53.6-53.7c0-29.6,24-53.7,53.6-53.7c29.6,0,53.6,24.1,53.6,53.7
			C359.8,284.1,335.8,308.2,306.2,308.2z M134.3,254.5c0-30.9-25-56-55.8-56c-30.8,0-55.8,25.1-55.8,56s25,56,55.8,56
			C109.3,310.5,134.3,285.4,134.3,254.5z M78.5,308.2c-29.6,0-53.6-24.1-53.6-53.7c0-29.6,24-53.7,53.6-53.7
			c29.6,0,53.6,24.1,53.6,53.7C132.1,284.1,108.1,308.2,78.5,308.2z M78.5,221.2c-18.7,0-34,15.3-34,34.1s15.2,34.1,34,34.1
			s34-15.3,34-34.1S97.3,221.2,78.5,221.2z M78.5,287.1c-17.5,0-31.8-14.2-31.8-31.8c0-17.6,14.2-31.8,31.8-31.8
			c17.5,0,31.8,14.2,31.8,31.8C110.3,272.8,96,287.1,78.5,287.1z M371.8,170.9c-14.1-18.1-43.2-39.3-78.2-41.6v-0.2
			c2.9-6.4,5.7-13.2,7.8-20.6c7.1-24.9,3.5-56.2-5.7-75.7c-2-4.1-8.7-20.5-14.8-20.5c-0.4,0-0.8,0.1-1.2,0.2c-2.2,0.8-3.9,5-3.1,8.7
			c1.2,4.3,2.3,8.6,3.5,12.9c2.4,11.8,1,27.6-1.4,38.1c-8.3,36.1-44.4,67.7-86.6,67.7c-10.4,0-21.2-1.9-32-6.1
			c-26.7-10.4-47.5-32.7-54.8-63.5c-3.8-16.1-2.5-34.7,2.4-48.6c1.3-3.7-0.8-9.3-4.5-9.4c-6.7,1.7-9.3,9.9-12.5,16.3
			C75.2,59.2,75.3,98,90.9,128.9c-35.1,3.5-61.4,21.6-77.9,42.7C9.6,176-3.5,191.3,0.9,198.9c1.2,0.6,2.3,0.9,3.3,0.9
			c4.6,0,8.1-5,10.6-7.5c9.3-9.4,21.5-17.4,35.7-21.5c9.3-2.7,18.3-3.9,26.9-3.9c45.3,0,79.6,34.1,87.2,71.9
			c8.2,41.2-13.8,75.9-36.2,91.3c-6.1,4.1-12.8,7.8-20.1,10.7c-4.6,1.3-9.2,2.6-13.9,3.8c-2.1,0.9-7.8,4.4-5.4,8.2
			c1.6,2.6,7.2,3.5,13.4,3.5c8,0,17.3-1.4,21.3-2.2c29-6.3,53.7-23,68.5-43.7c0.1-0.1,0.2-0.1,0.3-0.2
			c15.4,22.5,40.9,37.8,68.8,44.4c4.8,1.1,13,2.5,20.4,2.5c6.4,0,12.3-1,15-4.1c0.4-2.9-0.8-4.7-2.4-5.9c-3.7-2.9-10.5-3.3-15.3-5.1
			c-7.3-2.6-14.3-6.1-20.3-10.1c-21.6-14.5-44.5-46.5-39-86.7c5.5-40.7,40.1-77.8,88.2-77.8c8.3,0,16.9,1.1,25.9,3.5
			c15.6,4.1,30,14.8,38,22.9c1.7,1.8,5.8,6.8,9.9,6.8c0.9,0,1.9-0.3,2.8-0.9C391.1,194.9,374,173.7,371.8,170.9z M383.7,196.7
			c-0.1,0.6-0.3,0.8-0.5,1c-0.5,0.3-1,0.5-1.5,0.5c-2.6,0-5.7-3.4-7.4-5.2c-0.3-0.4-0.6-0.7-0.9-0.9c-8.5-8.6-23.1-19.3-39-23.5
			c-8.9-2.4-17.8-3.5-26.5-3.5c-51.6,0-85.1,41.1-90.4,79.7c-5.4,39.3,16.2,72.9,40,88.9c6.1,4.1,13.3,7.7,20.8,10.4
			c1.8,0.7,3.9,1.1,5.9,1.6c3.3,0.8,6.8,1.6,8.8,3.1c1.1,0.9,1.6,1.8,1.6,3.1c-2.2,1.8-6.7,2.8-12.9,2.8c-7,0-14.8-1.3-19.8-2.4
			c-28.6-6.7-53.2-22.6-67.5-43.5l-1.1-1.6l-1.7,0.9l-0.1,0.1l-0.2,0.1l-0.5,0.2l-0.3,0.5c-15.2,21.3-39.6,36.9-67.1,42.8
			c-3.9,0.8-13.1,2.2-20.8,2.2c-9.5,0-11.3-2-11.5-2.4c-0.3-0.4-0.3-0.8-0.2-1.1c0.4-1.4,2.8-3.1,4.4-3.8l12.1-3.4l1.6-0.4l0.1,0
			l0.1,0c7.1-2.7,14-6.4,20.6-10.9c23.7-16.2,45.4-52.4,37.2-93.6c-7.3-36.6-40.4-73.7-89.4-73.7c-9,0-18.3,1.3-27.5,4
			c-17.1,4.9-29.4,14.7-36.7,22.1c-0.5,0.5-1,1-1.5,1.7c-2.1,2.3-4.7,5.2-7.4,5.2c-0.5,0-1.1-0.1-1.7-0.3
			c-2.3-5.9,7.9-18.7,11.3-22.9c0.4-0.5,0.7-0.9,1-1.2c10.8-13.8,35.1-37.7,76.3-41.8l3.3-0.3l-1.5-2.9
			c-15.4-30.5-15.5-68.1-0.2-98.4c0.6-1.1,1.1-2.4,1.7-3.6c2.4-5.2,4.7-10.1,9-11.4c0.6,0.1,1.1,0.7,1.4,1.1c1,1.5,1.3,3.7,0.8,5.3
			c-5.3,15-6.2,34.2-2.5,49.9c7.2,30.2,27.7,53.9,56.2,65.1c10.7,4.2,21.7,6.3,32.8,6.3c40.8,0,79.8-30.5,88.8-69.4
			c2.5-10.7,3.8-26.9,1.4-39.1l0-0.1l0-0.1l-1.7-6.5l-1.7-6.4c-0.6-2.9,0.8-5.8,1.7-6.1c0.1-0.1,0.3-0.1,0.4-0.1
			c1.8,0,5.4,3,11.9,17.5c0.3,0.7,0.6,1.3,0.8,1.7c8.3,17.5,12.9,48.6,5.6,74.1c-1.8,6.3-4.2,12.7-7.7,20.3l-0.2,0.4v2.8l2.1,0.1
			c34.8,2.3,63,23.4,76.6,40.8l0.3,0.4C383.6,189.5,383.9,195.3,383.7,196.7z"/>
	</g>
</g>
</svg>
