<?xml version="1.0" encoding="utf-8"?>
<!-- Generator: Adobe Illustrator 19.1.0, SVG Export Plug-In . SVG Version: 6.00 Build 0)  -->
<svg version="1.1" id="Layer_1" xmlns="http://www.w3.org/2000/svg" xmlns:xlink="http://www.w3.org/1999/xlink" x="0px" y="0px"
	 viewBox="0 0 386 360" style="enable-background:new 0 0 386 360;" xml:space="preserve">
<style type="text/css">
	.st0{fill:#F7F953;}
	.st1{fill:#D85708;}
	.st2{fill:#B33035;}
	.st3{fill:#006CFF;}
	.st4{fill:#7C30B3;}
	.st5{fill:#FF8400;}
	.st6{fill:#00FCFF;}
	.st7{fill:#E35BF3;}
	.st8{fill:#933246;}
	.st9{fill:#45AD21;}
	.st10{fill:#FFC12C;}
	.st11{fill:#80A2C9;}
	.st12{fill:#208AE3;}
	.st13{fill:#94E515;}
</style>
<path id="SAKKRA-lines" class="st9" d="M197.4,2.7c-4.1,7.2-8.5,21.6-10.9,36.6c-2.3,14.5-4.6,41.3,5.8,58.1l1.6,2.6l1.7-2.6
	c15.2-23.4,33.3-40.8,53.8-52C270.1,34.3,288.8,32,300.9,32c11.2,0,22,2.1,29.8,5.6c-38.2,26.1-44.7,71.7-39.6,96.5l0.7,3.6l2.6-2.6
	c4.4-4.4,30.1-17.6,48.4-17.6c2.5,0,4.7,0.3,6.7,0.7c-7.6,4.8-15.8,15.3-21.2,27.3c-3,6.7-7.4,19.2-3.5,28.3l0.9,2.2l2-1.3
	c0.1-0.1,9.3-5.9,17.2-5.9c1.5,0,2.8,0.2,4,0.6c-18.1,15.1-21.4,30.5-24.1,43c-1.6,7.6-3.1,14.4-7.4,20c1.1-17-4.7-33.3-17-47.5
	c-20.1-23.2-55.1-37.6-91.3-37.6c-1.7,0-3.5,0-5.2,0.1c-23.8,0.9-42.5,8.8-55.7,23.5c-14.6,16.4-18.6,37.3-17.5,51.4
	c1.9,23.5,24.5,48.8,57.7,48.8c5.2,0,10.5-0.6,15.9-1.8c14.6-3.3,24.3-9.6,28.8-18.6c3.5-7.1,3.1-14.3,2.1-19.2
	c2.2,3.5,4.2,9.7,4.7,18.2c0.5,7.3,0.1,21.6-7.6,35.1c-7.3,12.7-19,20.8-34.8,24c-11.1,2.3-21.8,3.4-31.8,3.4
	c-37.2,0-67.1-15.4-88.8-45.9l-3.4-4.8l-0.2,5.9c0,1.3-0.6,32.5,38.3,64.5c15.5,12.8,35.1,19.3,58.2,19.3c17.5,0,34.9-3.9,47.4-8.3
	c-9.2,7.4-30.2,15.2-55.1,15.2c-18.6,0-46.2-4.4-71.8-25.3C38,290,29.5,233.2,33,202.5c3.6,5.4,10.1,13.7,18.1,15.8l3.3,0.9
	l-0.9-3.3c-11.1-40.9-8.1-74.7-3.6-95.9c4.2-20,11.8-38.2,20.6-50.4C69.2,88,73,116.7,89.8,133.2l3.7,3.6l-0.3-5.1
	c-1.9-32.9,9.4-64.5,32-89C144.5,21.6,170.6,7.3,197.4,2.7 M202,0C145.3,7.2,86.9,59,91.2,131.8c-19.5-19-20.4-53.8-17.8-68.8
	c-18.5,20.3-41.9,79.3-21.8,153.4c-11.2-2.9-19.8-19.7-19.8-19.7c-5.6,31.5,2,92.4,57.4,137.7c23.4,19.1,49.8,25.7,73,25.7
	c31.7,0,57.5-12.3,61.5-21.8c-9.6,4.1-30.5,11-53.8,11c-19,0-39.6-4.6-57-18.8c-38.6-31.8-37.6-62.9-37.6-62.9
	c15.3,21.5,42.7,46.7,90.5,46.7c9.8,0,20.6-1.1,32.2-3.5c57.4-11.8,47.2-83.6,33.6-84.6c0,0,14.5,31.8-27.7,41.3
	c-5.4,1.2-10.6,1.8-15.5,1.8c-33.3,0-54-25.9-55.7-47c-2-24.3,12.2-70.5,71.2-72.8c1.7-0.1,3.4-0.1,5.1-0.1
	c58.2,0,113.4,37.9,105.7,88.6c18.8-15.7,3.6-42.3,37.6-68.8c-2.1-1.7-4.8-2.3-7.5-2.3c-8.6,0-18.2,6.2-18.2,6.2
	c-6.6-15.7,12.9-49.8,27.7-55.1c-3.2-1.8-7.1-2.5-11.5-2.5c-18.6,0-44.8,13.2-49.8,18.2c-4.6-22.3,0-70.1,41.5-96.4
	c-7.2-4.1-19.1-7.4-33.7-7.4c-30.7,0-73,14.5-106.8,66.4C176.6,68.2,194.1,5.2,202,0L202,0z"/>
</svg>
