<svg class="race_border" viewBox="0 0 195 196" xmlns="http://www.w3.org/2000/svg">
  <path d="M86.47 14.57c3.72-1.9 7.06-4.87 11.08-6.01 6.42 3 12.26 7.13 18.54 10.42 2.1 1.19 4.59 1.02 6.92 1.08 6.32-.1 12.65-.05 18.98-.06 3.47 5.86 6.77 11.81 10.21 17.69 1.17 2.13 2.99 3.83 5.12 4.99 5.91 3.35 11.82 6.7 17.69 10.12.02 7.06-.05 14.12-.04 21.18-.26 4.09 2.52 7.33 4.38 10.7 2.27 4.08 4.88 7.98 6.95 12.16.67.98-.25 2.06-.57 2.99-3.14 5.8-6.58 11.44-9.7 17.26-1.17 2.1-1.04 4.58-1.1 6.91.11 6.22.08 12.43.05 18.64-4.92 2.85-9.77 5.81-14.72 8.6-2.49 1.43-5.15 2.91-6.54 5.56-3.6 6.39-7.12 12.83-10.77 19.2-7.32.06-14.65-.08-21.97-.01-2.98-.17-5.49 1.61-7.93 3.05-4.92 3.04-9.94 5.9-14.92 8.84-5.33-3.03-10.68-6.02-15.95-9.15-2.19-1.25-4.43-2.78-7.07-2.72-7.33-.12-14.66.06-21.99-.01-2.97-5.07-5.93-10.16-8.78-15.3-1.43-2.5-2.91-5.16-5.49-6.64-5.45-3.27-11.07-6.23-16.57-9.43-.93-.63-2.28-1.15-2.12-2.53-.43-7.04.17-14.1-.13-21.14.05-2.89-1.67-5.31-3.03-7.71-3.03-5.04-5.9-10.17-8.84-15.27 3.45-6.16 6.98-12.29 10.49-18.42 1.59-2.56 1.45-5.67 1.46-8.57-.09-5.85-.06-11.71-.02-17.56 5.32-3.09 10.63-6.22 15.97-9.27 2.34-1.29 4.48-3.02 5.75-5.41 3.54-6.23 7.04-12.48 10.56-18.72 7.21-.1 14.41.02 21.62 0 4.83.24 8.46-3.4 12.48-5.46m-7.46 5.41c12.33.02 24.67.06 37-.02-6.34-3.41-12.45-7.21-18.77-10.65-6.02 3.65-12.12 7.17-18.23 10.67M52.92 21c-3.63 6.58-7.49 13.04-11.04 19.67 11.15-6.54 22.35-13 33.45-19.63-7.47-.08-14.94-.03-22.41-.04m24.37.32c-1.39.45-2.64 1.2-3.89 1.92-9.77 5.94-19.69 11.61-29.56 17.37-2.17 1.23-3.9 3.1-5.06 5.3C33.43 55.49 27.95 65 22.52 74.53c-1.81 2.84-1.51 6.28-1.51 9.49.15 10.68-.03 21.36.05 32.04-.07 2.36 1.08 4.47 2.23 6.44 5.63 9.48 11.09 19.06 16.53 28.64 1.24 2.39 3.19 4.32 5.56 5.6 8.75 4.91 17.48 9.88 26.16 14.92 2.63 1.48 5.25 3.47 8.43 3.35 11.67.01 23.35-.04 35.02.02 3.56.25 6.49-1.96 9.38-3.67 8.98-5.4 18.05-10.65 27.08-15.96 2.33-1.29 4.01-3.42 5.27-5.73 5.17-9.45 10.47-18.83 15.81-28.18 1.4-2.24 1.57-4.91 1.53-7.47-.14-11.35-.02-22.7-.04-34.04.1-2.21-.81-4.25-1.94-6.1-5.68-9.62-11.25-19.32-16.78-29.03-1.29-2.39-3.29-4.29-5.66-5.58-9.78-5.52-19.52-11.08-29.2-16.76-4.05-2.49-8.99-1.28-13.47-1.52-9.89.27-19.84-.48-29.68.33m42.45-.3c10.78 6.28 21.62 12.46 32.45 18.64-3.47-6.22-7.16-12.31-10.57-18.57-7.29-.16-14.58-.08-21.88-.07M155 42.43c6.28 10.97 12.6 21.93 18.97 32.85.05-7.31.03-14.62.02-21.93-6.3-3.69-12.63-7.34-18.99-10.92M21.07 53.95c-.01 7.07-.03 14.14 0 21.21 6.02-10.54 12.05-21.08 17.98-31.67-6 3.49-11.97 7.02-17.98 10.46M9.24 97.99c3.56 6.14 7.06 12.32 10.72 18.41.2-12.47.09-24.94.06-37.41-3.56 6.36-7.19 12.66-10.78 19m165.77-18.98c.02 12.66-.09 25.32.07 37.98 3.48-6.42 7.03-12.81 10.7-19.14-3.48-6.34-7.21-12.54-10.77-18.84M21.04 142.74c6.34 3.72 12.77 7.3 19.14 10.97-6.27-11.1-12.67-22.12-19.06-33.15-.12 7.39-.03 14.78-.08 22.18m135.07 9.87c5.97-3.51 11.94-7 17.89-10.52-.01-7.09.02-14.17-.02-21.26-6.01 10.56-11.93 21.18-17.87 31.78M42.93 156.4c3.6 6.06 6.81 12.37 10.66 18.26 7.23.85 14.56.11 21.83.3-10.8-6.23-21.65-12.39-32.49-18.56m77.16 18.59c7.49 0 14.97.07 22.46-.06 3.53-6.56 7.26-13 10.85-19.53-11.16 6.44-22.23 13.03-33.31 19.59m-40.75 1.08c6.24 3.58 12.5 7.14 18.75 10.72 6.07-3.55 12.14-7.11 18.15-10.77-12.3-.01-24.6-.09-36.9.05z"/>
</svg>
