<?xml version="1.0" encoding="utf-8"?>
<!-- Generator: Adobe Illustrator 19.1.0, SVG Export Plug-In . SVG Version: 6.00 Build 0)  -->
<svg version="1.1" id="Layer_1" xmlns="http://www.w3.org/2000/svg" xmlns:xlink="http://www.w3.org/1999/xlink" x="0px" y="0px"
	 viewBox="0 0 386 360" style="enable-background:new 0 0 386 360;" xml:space="preserve">
<style type="text/css">
	.st0{fill:#F7F953;}
	.st1{fill:#D85708;}
	.st2{fill:#B33035;}
	.st3{fill:#006CFF;}
	.st4{fill:#7C30B3;}
	.st5{fill:#FF8400;}
	.st6{fill:#00FCFF;}
	.st7{fill:#E35BF3;}
	.st8{fill:#933246;}
	.st9{fill:#45AD21;}
	.st10{fill:#FFC12C;}
	.st11{fill:#80A2C9;}
	.st12{fill:#208AE3;}
	.st13{fill:#94E515;}
</style>
<g id="MEKLAR">
	<g>
	<path d="M194.3,104.1l38.6-38.6l1.3-1.3l-1.3-1.3l-38.6-38.6l-1.3-1.3l-1.3,1.3L153.1,63l-1.3,1.3l1.3,1.3l38.6,38.6l1.3,1.3L194.3,104.1z M154.4,64.3L193,25.7l38.6,38.6L193,102.9L154.4,64.3z M257.3,64.3L193,0l-64.3,64.3l64.3,64.3L257.3,64.3z M193,2.6l61.7,61.7L193,126l-61.7-61.7L193,2.6z M208.1,63.9L193,48.8l-15.1,15.1L193,79L208.1,63.9z M193,51.4l12.5,12.5L193,76.5l-12.5-12.5L193,51.4z M334.4,141.4l-64.3-64.3L193,154.3l-77.1-77.1l-64.3,64.3L90.1,180l-38.6,38.6l25.7,25.7l64.3-64.3L103,141.4l12.9-12.9l51.4,51.4l-77.1,77.1L193,360l25.7-25.7l-77.1-77.1l128.6-128.6l12.9,12.9L244.4,180l64.3,64.3l25.7-25.7L295.9,180L334.4,141.4z M331.9,218.6l-23.1,23.1L247,180l37.3-37.3l1.3-1.3l-1.3-1.3l-12.9-12.9l-1.3-1.3L139,257.1l1.3,1.3l75.9,75.9L193,357.4L92.7,257.1l75.9-75.9l1.3-1.3l-52.7-52.7l-1.3-1.3l-14.1,14.1l-1.3,1.3l1.3,1.3L139,180l-61.7,61.7l-23.1-23.1l37.3-37.3l1.3-1.3l-1.3-1.3l-37.3-37.3l61.7-61.7l75.9,75.9l1.3,1.3l77.1-77.1l61.7,61.7l-37.3,37.3l-1.3,1.3l1.3,1.3L331.9,218.6z M347.3,154.3L321.6,180l25.7,25.7L373,180L347.3,154.3z M324.1,180l23.1-23.1l23.1,23.1l-23.1,23.1L324.1,180z M257.3,218.6l-25.7-25.7l-25.7,25.7l25.7,25.7L257.3,218.6z M231.6,195.4l23.1,23.1l-23.1,23.1l-23.1-23.1L231.6,195.4z M244.4,257.1l25.7,25.7l25.7-25.7l-25.7-25.7L244.4,257.1z M270.1,280.3L247,257.1l23.1-23.1l23.1,23.1L270.1,280.3z M167.3,257.1l25.7,25.7l25.7-25.7L193,231.4L167.3,257.1z M193,280.3l-23.1-23.1L193,234l23.1,23.1L193,280.3z M205.9,295.7l25.7,25.7l25.7-25.7L231.6,270L205.9,295.7z M231.6,318.9l-23.1-23.1l23.1-23.1l23.1,23.1L231.6,318.9z M38.7,154.3L13,180l25.7,25.7L64.4,180L38.7,154.3z M15.6,180l23.1-23.1L61.9,180l-23.1,23.1L15.6,180z"/>
	</g>
</g>
</svg>
