<?xml version="1.0" encoding="utf-8"?>
<!-- Generator: Adobe Illustrator 19.1.0, SVG Export Plug-In . SVG Version: 6.00 Build 0)  -->
<svg version="1.1" id="Layer_1" xmlns="http://www.w3.org/2000/svg" xmlns:xlink="http://www.w3.org/1999/xlink" x="0px" y="0px"
	 viewBox="0 0 386 360" style="enable-background:new 0 0 386 360;" xml:space="preserve">
<style type="text/css">
	.st0{fill:#F7F953;}
	.st1{fill:#D85708;}
	.st2{fill:#B33035;}
	.st3{fill:#006CFF;}
	.st4{fill:#7C30B3;}
	.st5{fill:#FF8400;}
	.st6{fill:#00FCFF;}
	.st7{fill:#E35BF3;}
	.st8{fill:#933246;}
	.st9{fill:#45AD21;}
	.st10{fill:#FFC12C;}
	.st11{fill:#80A2C9;}
	.st12{fill:#208AE3;}
	.st13{fill:#94E515;}
</style>
<g id="DARLOCK">
	<path d="M193,115c14.1,0,25.5,11.4,25.5,25.4c0,14-11.5,25.4-25.5,25.4c-14.1,0-25.5-11.4-25.5-25.4C167.5,126.4,178.9,115,193,115 M193,113.2c-15.1,0-27.4,12.2-27.4,27.2c0,15,12.3,27.2,27.4,27.2c15.1,0,27.4-12.2,27.4-27.2C220.4,125.3,208.1,113.2,193,113.2L193,113.2z"/>
	<path d="M193,15l56.4,85.3c1.1,1.5,2.1,3,3,4.5l0.4,0.6c6.3,10.6,9.6,22.7,9.6,35c0,38-31.1,68.9-69.3,68.9c-38.2,0-69.3-30.9-69.3-68.9c0-12.3,3.3-24.5,9.6-35l0.2-0.3c1-1.6,2-3.2,3.2-4.8L193,15 M193,11.7l-57.8,87.5c-1.2,1.6-2.3,3.3-3.3,5.1l-0.1,0.2h0c-6.3,10.5-9.9,22.8-9.9,36c0,39.1,31.9,70.7,71.2,70.7s71.2-31.7,71.2-70.7c0-13.1-3.6-25.4-9.9-36h0l-0.1-0.2c-1-1.7-2.2-3.4-3.3-5L193,11.7L193,11.7z"/>
	<path d="M117.5,55.9L133,71.4c-20.2,17.4-31.8,42.4-31.8,69c0,12.2,2.4,24,7.1,35.1l-16.5,16.4c-8.2-15.9-12.5-33.6-12.5-51.5C79.3,108.1,93.2,77.4,117.5,55.9 M117.5,53.5C93,74.5,77.4,105.6,77.4,140.4c0,19.7,5,38.3,13.9,54.5l19.1-19c-4.8-10.9-7.4-22.9-7.4-35.6c0-27.7,12.7-52.5,32.7-68.9L117.5,53.5L117.5,53.5z"/>
	<path d="M268.6,56c24.3,21.5,38.2,52.1,38.2,84.4c0,17.7-4.2,35.3-12.2,51L278,175c4.6-11,6.9-22.6,6.9-34.6c0-26.5-11.6-51.6-31.8-69L268.6,56 M268.5,53.5l-18.1,18c19.9,16.4,32.7,41.2,32.7,68.9c0,12.4-2.6,24.3-7.2,35l19.1,19c8.7-16.1,13.6-34.5,13.6-54.1C308.6,105.6,293,74.5,268.5,53.5L268.5,53.5z"/>
	<path d="M118.3,193.4c14.7,20.3,37,33.8,61.8,37.3v20.8v1.8h1.8h21.9h1.8v-1.8v-20.7c24.8-3.4,47.1-16.8,61.8-37.1l15.7,15.6L193.9,343l-91.3-133.9L118.3,193.4 M118.6,190.6l-18.3,18.2l93.7,137.4l91.6-137.1l-18.3-18.2c-14.3,20.7-37.1,35.1-63.4,38.3v22.3h-21.9v-22.4C155.6,225.9,132.8,211.4,118.6,190.6L118.6,190.6z"/>
	<path d="M382.6,55.3l-55,80.8c0-0.9,0-1.8,0-2.7c0-28.8-10.4-57-28.6-78H382.6 M386,53.5h-91.1c19.1,20.5,30.9,49.7,30.9,79.8c0,3.1-0.1,6.1-0.4,9.2L386,53.5L386,53.5z"/>
	<path d="M87,55.3c-18.2,21-28.6,49.2-28.6,78c0,0.9,0,1.8,0,2.7l-55-80.8H87 M91.1,53.5H0l60.6,89c-0.2-3-0.4-6.1-0.4-9.2C60.2,103.2,71.9,74,91.1,53.5L91.1,53.5z"/>
</g>
</svg>
