<svg class="race_border-selected" viewBox="0 0 195 196" version="1.1" xmlns="http://www.w3.org/2000/svg">
<path d=" M 96.49 0.00 L 98.60 0.00 C 105.42 4.31 111.99 9.27 119.65 12.00 C 128.58 13.40 137.66 13.04 146.68 13.27 C 150.72 20.94 154.75 28.79 160.70 35.20 C 167.02 40.56 174.51 44.22 181.64 48.32 C 181.91 57.12 181.41 66.01 182.54 74.76 C 185.48 82.59 190.58 89.35 195.00 96.38 L 195.00 98.48 C 191.39 105.54 186.41 111.90 183.43 119.29 C 181.47 128.35 182.10 137.74 181.78 146.96 C 173.08 152.61 161.76 155.91 156.92 165.94 C 153.64 171.39 150.72 177.05 147.71 182.65 C 139.17 182.81 130.60 182.59 122.10 183.46 C 113.42 185.89 106.53 191.95 98.62 196.00 L 97.40 196.00 C 90.42 192.37 84.15 187.38 76.87 184.34 C 67.71 182.42 58.24 183.11 48.94 182.82 C 44.44 175.72 40.81 168.02 35.55 161.43 C 28.94 155.68 20.88 152.03 13.34 147.70 C 12.97 138.64 13.76 129.42 12.32 120.44 C 9.31 112.59 3.98 105.92 0.00 98.57 L 0.00 97.35 C 4.08 89.80 9.46 82.87 12.41 74.75 C 13.39 66.21 13.11 57.59 13.23 49.01 C 20.59 44.54 28.59 40.89 35.00 35.04 C 40.16 28.29 43.68 20.46 48.02 13.19 C 57.57 12.87 67.31 13.64 76.70 11.55 C 83.78 8.63 89.72 3.55 96.49 0.00 M 77.70 12.88 C 90.89 13.01 104.08 12.40 117.27 12.81 C 110.52 9.05 103.80 5.22 96.99 1.58 C 90.59 5.39 84.13 9.10 77.70 12.88 M 49.14 14.01 C 45.36 20.72 41.49 27.38 38.00 34.25 C 49.51 27.69 61.00 21.09 72.28 14.13 C 64.57 14.02 56.86 14.01 49.14 14.01 M 62.72 21.75 C 54.08 27.14 44.52 31.12 36.56 37.55 C 31.51 43.84 28.34 51.34 24.24 58.24 C 21.09 64.29 16.85 69.80 14.52 76.27 C 13.48 90.94 13.25 105.79 14.83 120.43 C 17.03 126.37 21.01 131.45 24.05 136.97 C 28.68 144.40 32.02 152.63 37.52 159.49 C 43.19 163.79 49.95 166.28 55.94 170.04 C 62.63 173.98 68.95 178.75 76.26 181.50 C 88.84 181.79 101.44 181.70 114.03 181.75 C 119.60 182.60 124.60 179.55 128.37 175.82 C 134.75 171.86 140.98 167.62 147.73 164.28 C 152.05 162.30 156.92 160.82 160.21 157.23 C 163.71 151.94 165.07 145.61 168.13 140.08 C 171.57 132.86 178.14 127.53 180.54 119.77 C 181.57 106.55 181.35 93.25 180.78 80.01 C 181.20 73.27 176.21 68.28 173.30 62.69 C 167.64 53.71 163.29 43.84 156.47 35.63 C 148.22 30.36 139.35 26.10 131.08 20.84 C 126.04 17.99 121.22 13.75 114.99 14.22 C 103.34 13.60 91.66 13.58 80.01 14.23 C 73.22 13.77 68.23 18.72 62.72 21.75 M 122.65 14.23 C 133.81 20.52 144.79 27.15 156.05 33.27 C 152.80 26.60 148.95 20.25 144.99 13.98 C 137.54 14.02 130.09 14.10 122.65 14.23 M 14.00 50.10 C 14.02 57.52 14.10 64.94 14.22 72.35 C 20.77 61.39 26.76 50.10 33.24 39.10 C 26.81 42.73 20.40 46.40 14.00 50.10 M 161.84 38.78 C 167.43 50.36 174.20 61.32 180.88 72.28 C 180.96 64.63 180.94 56.97 180.89 49.31 C 174.61 45.68 168.35 42.01 161.84 38.78 M 3.37 94.38 C 2.41 96.17 1.73 98.34 2.72 100.27 C 5.49 106.27 9.32 111.71 12.88 117.26 C 13.11 104.08 13.05 90.90 12.84 77.73 C 9.68 83.28 6.33 88.73 3.37 94.38 M 182.23 78.62 C 181.97 91.55 182.53 104.47 182.38 117.39 C 185.98 111.05 190.62 105.01 192.78 98.00 C 191.24 90.72 185.85 84.94 182.23 78.62 M 14.16 123.68 C 14.03 131.34 14.07 139.00 14.11 146.67 C 20.78 150.53 27.42 154.44 34.25 158.01 C 27.69 146.49 21.07 135.00 14.16 123.68 M 162.68 156.23 C 168.90 152.99 174.94 149.41 181.01 145.90 C 180.97 138.47 180.87 131.04 180.73 123.61 C 175.12 134.71 168.40 145.19 162.68 156.23 M 122.70 181.88 C 130.66 182.00 138.62 181.93 146.59 181.86 C 150.14 175.13 154.13 168.62 157.27 161.68 C 145.84 168.57 134.50 175.61 122.70 181.88 M 38.98 162.70 C 42.49 169.24 46.29 175.61 50.03 182.02 C 57.47 181.98 64.91 181.87 72.35 181.72 C 61.34 175.20 49.98 169.27 38.98 162.70 M 78.57 183.31 C 84.21 186.75 89.72 190.49 95.73 193.26 C 97.41 194.10 99.35 193.82 100.96 192.98 C 106.66 190.16 111.93 186.56 117.29 183.16 C 104.38 183.68 91.47 183.21 78.57 183.31 Z" />
</svg>
