<?xml version="1.0" encoding="utf-8"?>
<!-- Generator: Adobe Illustrator 19.1.0, SVG Export Plug-In . SVG Version: 6.00 Build 0)  -->
<svg version="1.1" id="Layer_1" xmlns="http://www.w3.org/2000/svg" xmlns:xlink="http://www.w3.org/1999/xlink" x="0px" y="0px"
	 viewBox="0 0 386 360" style="enable-background:new 0 0 386 360;" xml:space="preserve">
<style type="text/css">
	.st0{fill:#F7F953;}
	.st1{fill:#D85708;}
	.st2{fill:#B33035;}
	.st3{fill:#006CFF;}
	.st4{fill:#7C30B3;}
	.st5{fill:#FF8400;}
	.st6{fill:#00FCFF;}
	.st7{fill:#E35BF3;}
	.st8{fill:#933246;}
	.st9{fill:#45AD21;}
	.st10{fill:#FFC12C;}
	.st11{fill:#80A2C9;}
	.st12{fill:#208AE3;}
	.st13{fill:#94E515;}
</style>
<g id="KLACKON">
	<g>
		<path class="st1" d="M86.6,163.9c1,0,2.1,0,3.1-0.1c16.5-0.7,36.8-10.9,35.6-17.7c-0.5-2.8-8.8-20-8.8-20s-6.8,5.3-14.2,5.3
			c-4.7,0-9.7-2.2-13.4-9.2C74.5,77.3,126.7,11.1,184.8,1.8c0.2,0,0.3,0,0.4,0c1.1,0-3.6-1.9-13.2-1.9c-14.4,0-39.6,4.2-71.9,25.4
			C80.9,37.9,63.1,54.6,53.8,73.8c-1.2,2.4,25.6,33.3,9.8,50.5c-3.4,3.7-6.2,5.1-8.6,5.1c-6.7,0-9.8-10.8-10.9-10.8
			c-0.3,0-0.5,1-0.5,3.7c0.8,9.3,3.9,16.8,8.1,22.7C61.7,158.9,71.8,163.9,86.6,163.9z M55.1,131.1c3.2,0,6.5-1.8,9.9-5.6
			c12.9-14.1-0.3-36-6.6-46.6c-1.1-1.9-2.4-4-2.7-4.8C66.2,52.7,86.1,36.6,101,26.8C134.3,5,159.8,1.8,171.9,1.8
			c1.4,0,2.7,0,3.9,0.1c-29.7,7.7-59,29.9-76.6,58.6c-13.5,22.1-17.8,44.2-12,62.3l0,0.1l0.1,0.1c4.3,8.4,10.5,10.2,14.9,10.2
			c5.7,0,10.9-2.8,13.5-4.5c3.2,6.6,7.5,16,7.8,17.6c0.2,0.9-0.5,2-1.1,2.8c-4.4,5.5-19.6,12.3-32.8,12.8c-1,0-2.1,0.1-3,0.1
			c-14.6,0-24-5.1-33.4-18.2c-4-5.6-6.6-12.2-7.5-19.5C47.6,127.6,50.6,131.1,55.1,131.1z M97.8,282.8c-5.3-10-19.7-57.1,56.3-91.6
			c-5.2-8.8-9.5-17.5-15.7-27.9C117.4,196,90.7,199,81,199c-1.2,0-2.2,0-2.8-0.1c-5.7-0.4-26.1-9.8-36.6-17.3
			c-0.8,7-1.1,40.3,0,47.5c3.5-3.1,9.5-4.3,14-4.3c12.5,0,22.6,14,22.6,31.3c0,13.2-5.9,24.5-14.3,29.1
			c56,71.1,104.2,73.5,110.4,73.5c0.5,0,0.7,0,0.7,0S108.8,328.8,97.8,282.8z M165.8,356.1c-16.8-2.9-55.7-15.5-99.4-70.4
			c8.2-5.6,13.4-16.9,13.4-29.6c0-18.2-10.9-33.1-24.4-33.1c-3.6,0-8.6,0.8-12.6,2.9c-0.7-9.4-0.5-31.8,0.1-41.2
			c11.1,7.2,29.3,15.5,35,15.9c1,0.1,1.9,0.1,2.9,0.1c10.4,0,36.4-3.4,57.4-34.2c2.8,4.8,5.2,9.2,7.6,13.5c1.9,3.5,3.8,6.9,5.7,10.3
			c-30.9,14.3-50.1,32.3-57.3,53.5c-7.1,20.9,0.5,36.9,1.8,39.5c5.9,24.2,26.8,43.8,43.3,56C149.5,346.9,159.3,352.5,165.8,356.1z
			 M344.5,181.8c-10.5,7.4-30.8,16.9-36.6,17.3c-0.6,0-1.6,0.1-2.8,0.1c-9.7,0-36.3-3-57.4-35.7c-6.3,10.4-10.5,19.1-15.7,27.9
			c75.9,34.4,61.6,81.5,56.2,91.5c-11,46-77,75.8-77,75.8s0.2,0,0.7,0c6.3,0,54.4-2.4,110.2-73.4c-8.4-4.6-14.3-15.9-14.3-29.1
			c0-17.3,10.1-31.3,22.6-31.3c4.4,0,10.5,1.2,14,4.3C345.7,222.1,345.3,188.8,344.5,181.8z M343.1,226.1c-3.9-2.1-8.9-2.9-12.5-2.9
			c-13.4,0-24.4,14.8-24.4,33c0,12.6,5.2,24,13.4,29.5c-43.6,54.8-82.4,67.4-99.2,70.3c6.6-3.5,16.3-9.2,26.3-16.6
			c16.5-12.2,37.4-31.8,43.2-55.9c1.3-2.6,8.8-18.6,1.8-39.5c-7.1-21.1-26.4-39.1-57.2-53.4c2-3.4,3.8-6.7,5.7-10.3
			c2.3-4.3,4.8-8.7,7.6-13.5c20.9,30.7,46.9,34.1,57.3,34.1c1,0,2,0,2.9-0.1c5.7-0.4,23.9-8.7,35-15.9
			C343.6,194.4,343.7,216.8,343.1,226.1z M201.5,2.1c0.1,0,0.2,0,0.4,0c57.7,9.3,109.7,75.4,95.4,120.3c-3.6,7.1-8.6,9.2-13.3,9.2
			c-7.4,0-14.2-5.3-14.2-5.3s-8.3,17.2-8.8,20c-1.2,6.8,19,17,35.4,17.7c1.1,0,2.1,0.1,3.1,0.1c14.7,0,24.7-5,34.6-19
			c4.2-5.9,7.3-13.4,8.1-22.7c0-2.7-0.1-3.7-0.5-3.7c-1.1,0-4.2,10.8-10.9,10.8c-2.4,0-5.2-1.4-8.6-5c-15.7-17.3,10.9-48.1,9.8-50.5
			c-9.3-19.2-26.9-35.8-46-48.4C254.1,4.5,229,0.3,214.7,0.3c0,0,0,0,0,0l0,1.8c12.1,0,37.4,3.3,70.6,25.1
			c14.8,9.8,34.7,25.8,45.2,47.2c-0.4,0.9-1.6,3-2.7,4.8c-6.3,10.5-19.4,32.4-6.6,46.5c3.4,3.8,6.7,5.6,9.9,5.6
			c4.4,0,7.4-3.5,9.3-6.7c-1,7.3-3.5,13.9-7.5,19.5c-9.3,13.1-18.7,18.2-33.2,18.2c-1,0-2,0-3-0.1c-13.3-0.6-28.2-7.2-32.6-12.8
			c-0.6-0.8-1.3-1.9-1.1-2.8c0.3-1.7,4.6-11,7.7-17.6c2.6,1.7,7.8,4.4,13.5,4.4c4.4,0,10.6-1.8,14.9-10.2l0.1-0.1l0-0.1
			c5.8-18.1,1.5-40.3-12.1-62.4c-17.5-28.6-46.7-50.7-76.1-58.4c1.2-0.1,2.5-0.1,3.9-0.1V0.3C205.1,0.3,200.4,2.1,201.5,2.1z
			 M175.1,39.1c-90.5,16.8-32.3,99.3-32.3,99.3l50.6-25.4l51.4,25.4c0,0,59-82.5-32.8-99.3c16.9,32.3-12.5,39.7-18.5,40.8
			C187.4,78.8,158.4,71.4,175.1,39.1z M193.4,81.8l0.3-0.1c4.1-0.8,17.8-4.2,23.1-15.2c3.3-6.8,2.7-15.2-1.7-24.9
			c23.2,4.9,37.8,14.7,43.7,29.1c10.3,25.6-10.1,58.7-14.6,65.5l-50-24.7l-0.8-0.4l-0.8,0.4l-49.2,24.7
			c-4.5-6.8-24.7-40.1-14.3-65.7c5.8-14.3,20.2-24,42.9-28.9c-4.4,9.8-4.9,18.2-1.6,25c5.3,10.9,18.7,14.3,22.7,15.1L193.4,81.8z
			 M211.3,142.3c-1.8,7.7-8.6,13.4-16.8,13.4c-8.6,0-15.7-6.3-17-14.5l-26.1,15.1l42,66.4l42-66.4L211.3,142.3z M153.8,156.9
			l22.4-13c2.4,8,9.7,13.6,18.2,13.6c8.1,0,15.1-5,17.8-12.5l20.6,11.9l-39.5,62.4L153.8,156.9z M127.2,263.7
			c0,22.3,16,40.7,37.1,44.6C154,302,147,290.7,147,277.7c0-19.7,15.9-35.6,35.5-35.6c-9.3-15.1-10.6-17-15.3-23.5
			C144.7,221.2,127.2,240.4,127.2,263.7z M145.3,277.7c0,10,3.9,19.4,10.8,26.3c-16.1-6.6-27-22.3-27-40.3c0-21.8,16-40.2,37.5-43.2
			c3.8,5.3,5.4,7.6,13,19.9C160.3,242,145.3,258.1,145.3,277.7z M243.4,278.1c0,13.1-7,24.6-17.5,30.9c21.4-3.9,37.6-22.6,37.6-45.1
			c0-23.5-17.7-42.9-40.5-45.6c-4.8,6.5-6.1,8.4-15.5,23.7C227.3,242.1,243.4,258.2,243.4,278.1z M223.7,220.3
			c21.7,3,38,21.6,38,43.7c0,18.2-11.1,34.2-27.5,40.8c7-7,11-16.4,11-26.6c0-19.8-15.3-36.1-34.7-37.7
			C218.2,227.9,219.8,225.6,223.7,220.3z"/>
	</g>
</g>
</svg>
