<svg class="race_border" width="195px" height="196px" viewBox="0 0 195 196" version="1.1" xmlns="http://www.w3.org/2000/svg">
<path d=" M 86.47 14.57 C 90.19 12.67 93.53 9.70 97.55 8.56 C 103.97 11.56 109.81 15.69 116.09 18.98 C 118.19 20.17 120.68 20.00 123.01 20.06 C 129.33 19.96 135.66 20.01 141.99 20.00 C 145.46 25.86 148.76 31.81 152.20 37.69 C 153.37 39.82 155.19 41.52 157.32 42.68 C 163.23 46.03 169.14 49.38 175.01 52.80 C 175.03 59.86 174.96 66.92 174.97 73.98 C 174.71 78.07 177.49 81.31 179.35 84.68 C 181.62 88.76 184.23 92.66 186.30 96.84 C 186.97 97.82 186.05 98.90 185.73 99.83 C 182.59 105.63 179.15 111.27 176.03 117.09 C 174.86 119.19 174.99 121.67 174.93 124.00 C 175.04 130.22 175.01 136.43 174.98 142.64 C 170.06 145.49 165.21 148.45 160.26 151.24 C 157.77 152.67 155.11 154.15 153.72 156.80 C 150.12 163.19 146.60 169.63 142.95 176.00 C 135.63 176.06 128.30 175.92 120.98 175.99 C 118.00 175.82 115.49 177.60 113.05 179.04 C 108.13 182.08 103.11 184.94 98.13 187.88 C 92.80 184.85 87.45 181.86 82.18 178.73 C 79.99 177.48 77.75 175.95 75.11 176.01 C 67.78 175.89 60.45 176.07 53.12 176.00 C 50.15 170.93 47.19 165.84 44.34 160.70 C 42.91 158.20 41.43 155.54 38.85 154.06 C 33.40 150.79 27.78 147.83 22.28 144.63 C 21.35 144.00 20.00 143.48 20.16 142.10 C 19.73 135.06 20.33 128.00 20.03 120.96 C 20.08 118.07 18.36 115.65 17.00 113.25 C 13.97 108.21 11.10 103.08 8.16 97.98 C 11.61 91.82 15.14 85.69 18.65 79.56 C 20.24 77.00 20.10 73.89 20.11 70.99 C 20.02 65.14 20.05 59.28 20.09 53.43 C 25.41 50.34 30.72 47.21 36.06 44.16 C 38.40 42.87 40.54 41.14 41.81 38.75 C 45.35 32.52 48.85 26.27 52.37 20.03 C 59.58 19.93 66.78 20.05 73.99 20.03 C 78.82 20.27 82.45 16.63 86.47 14.57 M 79.01 19.98 C 91.34 20.00 103.68 20.04 116.01 19.96 C 109.67 16.55 103.56 12.75 97.24 9.31 C 91.22 12.96 85.12 16.48 79.01 19.98 M 52.92 21.00 C 49.29 27.58 45.43 34.04 41.88 40.67 C 53.03 34.13 64.23 27.67 75.33 21.04 C 67.86 20.96 60.39 21.01 52.92 21.00 M 77.29 21.32 C 75.90 21.77 74.65 22.52 73.40 23.24 C 63.63 29.18 53.71 34.85 43.84 40.61 C 41.67 41.84 39.94 43.71 38.78 45.91 C 33.43 55.49 27.95 65.00 22.52 74.53 C 20.71 77.37 21.01 80.81 21.01 84.02 C 21.16 94.70 20.98 105.38 21.06 116.06 C 20.99 118.42 22.14 120.53 23.29 122.50 C 28.92 131.98 34.38 141.56 39.82 151.14 C 41.06 153.53 43.01 155.46 45.38 156.74 C 54.13 161.65 62.86 166.62 71.54 171.66 C 74.17 173.14 76.79 175.13 79.97 175.01 C 91.64 175.02 103.32 174.97 114.99 175.03 C 118.55 175.28 121.48 173.07 124.37 171.36 C 133.35 165.96 142.42 160.71 151.45 155.40 C 153.78 154.11 155.46 151.98 156.72 149.67 C 161.89 140.22 167.19 130.84 172.53 121.49 C 173.93 119.25 174.10 116.58 174.06 114.02 C 173.92 102.67 174.04 91.32 174.02 79.98 C 174.12 77.77 173.21 75.73 172.08 73.88 C 166.40 64.26 160.83 54.56 155.30 44.85 C 154.01 42.46 152.01 40.56 149.64 39.27 C 139.86 33.75 130.12 28.19 120.44 22.51 C 116.39 20.02 111.45 21.23 106.97 20.99 C 97.08 21.26 87.13 20.51 77.29 21.32 M 119.74 21.02 C 130.52 27.30 141.36 33.48 152.19 39.66 C 148.72 33.44 145.03 27.35 141.62 21.09 C 134.33 20.93 127.04 21.01 119.74 21.02 M 155.00 42.43 C 161.28 53.40 167.60 64.36 173.97 75.28 C 174.02 67.97 174.00 60.66 173.99 53.35 C 167.69 49.66 161.36 46.01 155.00 42.43 M 21.07 53.95 C 21.06 61.02 21.04 68.09 21.07 75.16 C 27.09 64.62 33.12 54.08 39.05 43.49 C 33.05 46.98 27.08 50.51 21.07 53.95 M 9.24 97.99 C 12.80 104.13 16.30 110.31 19.96 116.40 C 20.16 103.93 20.05 91.46 20.02 78.99 C 16.46 85.35 12.83 91.65 9.24 97.99 M 175.01 79.01 C 175.03 91.67 174.92 104.33 175.08 116.99 C 178.56 110.57 182.11 104.18 185.78 97.85 C 182.30 91.51 178.57 85.31 175.01 79.01 M 21.04 142.74 C 27.38 146.46 33.81 150.04 40.18 153.71 C 33.91 142.61 27.51 131.59 21.12 120.56 C 21.00 127.95 21.09 135.34 21.04 142.74 M 156.11 152.61 C 162.08 149.10 168.05 145.61 174.00 142.09 C 173.99 135.00 174.02 127.92 173.98 120.83 C 167.97 131.39 162.05 142.01 156.11 152.61 M 42.93 156.40 C 46.53 162.46 49.74 168.77 53.59 174.66 C 60.82 175.51 68.15 174.77 75.42 174.96 C 64.62 168.73 53.77 162.57 42.93 156.40 M 120.09 174.99 C 127.58 174.99 135.06 175.06 142.55 174.93 C 146.08 168.37 149.81 161.93 153.40 155.40 C 142.24 161.84 131.17 168.43 120.09 174.99 M 79.34 176.07 C 85.58 179.65 91.84 183.21 98.09 186.79 C 104.16 183.24 110.23 179.68 116.24 176.02 C 103.94 176.01 91.64 175.93 79.34 176.07 Z" />
</svg>
