<svg class="race_border-selected" viewBox="0 0 195 196" xmlns="http://www.w3.org/2000/svg">
  <path d="M96.5 0h2.1c6.82 4.3 13.4 9.27 21.05 12 8.93 1.4 18 1.04 27.03 1.27 4.04 7.67 8.07 15.52 14.02 21.93 6.32 5.36 13.8 9.02 20.94 13.12.27 8.8-.23 17.7.9 26.44 2.94 7.83 8.04 14.6 12.46 21.62v2.1c-3.6 7.06-8.6 13.42-11.57 20.8-1.96 9.07-1.33 18.46-1.65 27.68-8.7 5.65-20.02 8.95-24.86 18.98-3.28 5.45-6.2 11.1-9.2 16.7-8.55.17-17.12-.05-25.62.82-8.68 2.43-15.57 8.5-23.48 12.54H97.4c-6.98-3.63-13.25-8.62-20.53-11.66-9.16-1.92-18.63-1.23-27.93-1.52-4.5-7.1-8.13-14.8-13.4-21.4-6.6-5.74-14.66-9.4-22.2-13.72-.37-9.06.42-18.28-1.02-27.26-3-7.85-8.34-14.52-12.32-21.87v-1.22c4.08-7.55 9.46-14.48 12.4-22.6 1-8.54.7-17.16.83-25.74C20.6 44.6 28.6 40.9 35 35.1c5.16-6.75 8.68-14.58 13.02-21.85 9.55-.32 19.3.45 28.68-1.64 7.08-2.9 13.02-8 19.8-11.5M77.7 12.9c13.2.13 26.38-.48 39.57-.07C110.52 9.08 103.8 5.25 97 1.6c-6.4 3.8-12.87 7.52-19.3 11.3M49.14 14C45.36 20.73 41.5 27.4 38 34.26 49.5 27.7 61 21.1 72.28 14.13c-7.7-.1-15.42-.12-23.14-.12m13.58 7.8c-8.64 5.4-18.2 9.4-26.16 15.8-5.05 6.3-8.22 13.8-12.32 20.7-3.15 6.1-7.4 11.6-9.72 18-1.04 14.7-1.27 29.5.3 44.2 2.2 6 6.2 11 9.23 16.6 4.63 7.4 7.97 15.7 13.47 22.5 5.67 4.3 12.43 6.8 18.42 10.6 6.7 3.94 13 8.7 20.32 11.46 12.58.3 25.18.2 37.77.27 5.57.86 10.57-2.2 14.34-5.92 6.38-3.94 12.6-8.2 19.36-11.52 4.32-2 9.2-3.5 12.48-7.06 3.5-5.3 4.9-11.63 8-17.16 3.5-7.22 10-12.55 12.4-20.3 1.1-13.23.8-26.53.3-39.77.4-6.75-4.5-11.7-7.5-17.3-5.6-9-10-18.88-16.8-27.1-8.2-5.27-17.1-9.53-25.4-14.8-5-2.84-9.8-7.1-16.1-6.6-11.6-.63-23.3-.65-35 0-6.7-.46-11.7 4.5-17.2 7.5m59.93-7.5c11.16 6.3 22.14 12.9 33.4 19.04-3.25-6.67-7.1-13.02-11.06-19.3-7.5.05-14.9.13-22.37.26M14 50.1c.02 7.42.1 14.84.22 22.25C20.77 61.4 26.76 50.1 33.24 39.1 26.8 42.73 20.4 46.4 14 50.1m147.84-11.32c5.6 11.58 12.36 22.54 19.04 33.5.08-7.65.06-15.3 0-22.97-6.27-3.6-12.53-7.3-19.04-10.5M3.37 94.4c-.96 1.8-1.64 3.96-.65 5.9 2.77 6 6.6 11.43 10.16 16.98.23-13.18.17-26.36-.04-39.53-3.16 5.55-6.5 11-9.47 16.65m178.86-15.8c-.26 12.94.3 25.86.15 38.78 3.6-6.36 8.24-12.4 10.4-19.4-1.54-7.3-6.93-13.07-10.55-19.4M14.16 123.7c-.13 7.66-.1 15.32-.05 23 6.7 3.85 13.4 7.76 20.2 11.33-6.5-11.5-13.2-23-20.1-34.3m148.6 32.54c6.2-3.24 12.3-6.82 18.4-10.33-.03-7.42-.13-14.85-.27-22.3-5.6 11.1-12.33 21.6-18.05 32.64m-39.96 25.65c7.97.1 15.93.04 23.9-.03 3.55-6.73 7.54-13.24 10.68-20.18-11.44 6.9-22.8 13.92-34.6 20.2M39 162.72c3.5 6.54 7.3 12.9 11.05 19.32 7.44-.04 14.88-.15 22.32-.3-11-6.52-22.37-12.45-33.37-19.02m39.6 20.6c5.63 3.45 11.14 7.2 17.15 9.96 1.68.84 3.62.56 5.23-.28 5.7-2.82 10.97-6.42 16.33-9.82-12.9.52-25.8.05-38.7.15z"/>
</svg>
