<?xml version="1.0" encoding="utf-8"?>
<!-- Generator: Adobe Illustrator 19.1.0, SVG Export Plug-In . SVG Version: 6.00 Build 0)  -->
<svg version="1.1" id="Layer_1" xmlns="http://www.w3.org/2000/svg" xmlns:xlink="http://www.w3.org/1999/xlink" x="0px" y="0px"
	 viewBox="0 0 386 360" style="enable-background:new 0 0 386 360;" xml:space="preserve">
<style type="text/css">
	.st0{fill:#F7F953;}
	.st1{fill:#D85708;}
	.st2{fill:#B33035;}
	.st3{fill:#006CFF;}
	.st4{fill:#7C30B3;}
	.st5{fill:#FF8400;}
	.st6{fill:#00FCFF;}
	.st7{fill:#E35BF3;}
	.st8{fill:#933246;}
	.st9{fill:#45AD21;}
	.st10{fill:#FFC12C;}
	.st11{fill:#80A2C9;}
	.st12{fill:#208AE3;}
	.st13{fill:#94E515;}
</style>
<g id="ALKARI">
	<g>
		<path class="st0" d="M192.9,248.1c16.2,0,30.8,7.9,41.3,20.6c-4.6-22.2-21.3-38.6-41.3-38.6c-20,0-36.8,16.5-41.3,38.6
			C162.1,256,176.7,248.1,192.9,248.1z M192.9,232c16.6,0,31.2,11.9,37.5,29.8c-10.6-10.1-23.7-15.6-37.5-15.6
			c-13.8,0-26.9,5.5-37.5,15.6C161.7,243.9,176.3,232,192.9,232z M192.9,259.1c-32.1,0-58.1,30.3-58.1,67.6
			c18.9-27.4,35.7-33.6,35.7-33.6l22.5,26.7l23.1-27.2c0,0,17.5,9.8,35,34.2C251.1,289.4,225,259.1,192.9,259.1z M217,290.9
			l-1.3-0.8l-1,1.2l-21.7,25.5l-21-25l-0.9-1l-1.2,0.5c-0.7,0.2-15.4,6-32.9,29.2c2.7-33.4,26.8-59.6,56-59.6
			c29.3,0,53.4,26.3,56,59.8C232.7,299.9,217.6,291.3,217,290.9z M182.5,220.4C182.5,220.4,182.5,220.4,182.5,220.4L182.5,220.4
			c0.1,0,7.4-1.6,10.2-1.6c2.8,0,10.4,1.6,10.4,1.6l0,0c0,0,0,0,0.1,0c1.4-24.2,32.8-30.9,32.5-35.5c-0.1-2.7-7.6-5.3-15.9-5.3
			c-6,0-12.5,1.4-16.7,5.3c-6.4-48.3-9.9-49.8-10.4-49.8c-0.5,0-3.9,1.5-10.3,49.8c-4.2-3.9-10.6-5.3-16.6-5.3
			c-8.2,0-15.6,2.6-15.7,5.3C149.9,189.5,181.1,196.2,182.5,220.4z M165.9,181.5c3.8,0,10.8,0.6,15.3,4.8l2.7,2.5l0.5-3.6
			c4.2-31.8,7-42.8,8.4-46.6c1.4,3.8,4.4,14.8,8.6,46.6l0.5,3.6l2.7-2.5c4.5-4.2,11.6-4.8,15.4-4.8c7.6,0,12.9,2.2,13.9,3.4
			c-0.8,0.9-3.6,2.4-6,3.7c-8.9,4.9-23.4,12.9-26.1,28.5l-0.6-0.4l0.1,1.5c-2.5-0.5-6.4-1.2-8.4-1.2c-2,0-5.7,0.7-8.2,1.2l0.1-1.6
			L184,217c-2.7-15.5-17.1-23.5-25.9-28.4c-2.3-1.3-5.1-2.8-5.9-3.7C153.1,183.8,158.3,181.5,165.9,181.5z M139.3,260.8
			c-22.1-0.9-47.8-10.1-67-21.9c-32-19.8-41.3-48.4-22.9-93.4C64.2,118,82,123.1,83.8,33.3C71.5,62.1,55.2,78.8,41.6,90.2
			C23.5,105.4-33.2,168.7,27,239.5c20.3,23.8,50.2,31.5,74.2,31.5C120.2,271,135.5,266.1,139.3,260.8z M101.2,269.1
			c-14,0-49.1-3-72.7-30.8C9,215.4,0.1,191.2,2.2,166.3C5.7,124,39,94.8,42.8,91.7c11-9.2,26.4-24.1,38.8-49.2
			c-2.1,59.6-12.2,72.4-22.8,85.9c-3.7,4.7-7.5,9.5-11.1,16.2l0,0.1l0,0.1c-18,44.2-10.5,74.6,23.7,95.7
			c19.2,11.9,43,20.1,63.3,21.9C128.6,266,116.3,269.1,101.2,269.1z M60.7,156c0,0-10.2,27.7,10.6,56.9
			c15.5,21.7,36.9,29.4,59.1,29.4c7.6,0,15.3-0.9,22.9-2.4C84.5,239.5,60.7,156,60.7,156z M130.4,240.4c-24.7,0-44-9.6-57.5-28.6
			c-14.3-20-13.5-39.4-11.8-49c2.9,7.8,8.8,21.9,18.7,36.1c15.8,22.7,35.5,36.7,57.8,41.2C135.1,240.3,132.7,240.4,130.4,240.4z
			 M87.3,175.9c12.7,34.7,41.9,48.3,71.9,52.1c-65.8-22.4-67.8-110-67.8-110S74.6,141.2,87.3,175.9z M98.8,165.2
			c9.4,26.7,24.8,46.5,45,58c-27.3-7.1-45.7-23.2-54.8-47.9c-8.7-23.7-3.1-42,0.8-50.7C90.7,132.9,92.8,148.3,98.8,165.2z
			 M344.3,89.9c-13.6-11.4-30-28-42.2-56.7c1.8,89.4,19.6,84.3,34.5,111.7c18.4,44.8,9.1,73.2-23,92.9
			c-19.2,11.8-44.9,20.9-67.1,21.8c3.8,5.3,19.1,10.1,38.2,10.1c24,0,54-7.6,74.3-31.3C419.3,168.1,362.4,105.1,344.3,89.9z
			 M357.5,237.3c-23.7,27.7-58.9,30.7-72.9,30.7c-15.1,0-27.5-3-33.5-6.6c20.3-1.8,44.1-10,63.4-21.8c34.3-21,41.8-51.3,23.7-95.3
			l0-0.1l0-0.1c-3.6-6.7-7.4-11.5-11.1-16.2c-10.7-13.4-20.7-26.1-22.9-85.5c12.4,25,27.9,39.8,38.9,49c3.8,3.2,37.2,32.2,40.7,74.3
			C385.9,190.4,377,214.5,357.5,237.3z M312.7,212.1c20.9-29.1,10.6-56.6,10.6-56.6s-23.8,83.1-92.7,83.4c7.6,1.5,15.3,2.4,22.9,2.4
			C275.7,241.3,297.1,233.7,312.7,212.1z M304.3,198.1c9.9-14.2,15.8-28.1,18.7-35.9c1.7,9.5,2.5,28.9-11.8,48.8
			c-13.6,18.9-33,28.4-57.7,28.4c-2.3,0-4.6-0.1-7-0.3C268.7,234.6,288.5,220.7,304.3,198.1z M296.6,175.2
			c12.7-34.5-4.1-57.7-4.1-57.7s-2,87.3-68,109.5C254.7,223.3,283.9,209.7,296.6,175.2z M285.1,164.6c6-16.8,8.1-32.2,8.9-40.5
			c4,8.6,9.6,26.8,0.9,50.5c-9.1,24.6-27.5,40.6-54.8,47.7C260.2,210.8,275.7,191.2,285.1,164.6z"/>
	</g>
</g>
</svg>
