<?xml version="1.0" encoding="utf-8"?>
<!-- Generator: Adobe Illustrator 19.1.0, SVG Export Plug-In . SVG Version: 6.00 Build 0)  -->
<svg version="1.1" id="Layer_1" xmlns="http://www.w3.org/2000/svg" xmlns:xlink="http://www.w3.org/1999/xlink" x="0px" y="0px"
	 viewBox="0 0 386 360" style="enable-background:new 0 0 386 360;" xml:space="preserve">
<style type="text/css">
	.st0{fill:#F7F953;}
	.st1{fill:#D85708;}
	.st2{fill:#B33035;}
	.st3{fill:#006CFF;}
	.st4{fill:#7C30B3;}
	.st5{fill:#FF8400;}
	.st6{fill:#00FCFF;}
	.st7{fill:#E35BF3;}
	.st8{fill:#933246;}
	.st9{fill:#45AD21;}
	.st10{fill:#FFC12C;}
	.st11{fill:#80A2C9;}
	.st12{fill:#208AE3;}
	.st13{fill:#94E515;}
</style>
<g id="HUMANS">
	<g>
		<path class="st12" d="M65.5,82.8c3.9-16.2,44.1-66.4,44.1-66.4S57.2,59.2,55.7,63.1C54.2,67,62.1,80.3,65.5,82.8z M57.4,63.8
			c1.6-2.7,22.1-20.2,40.3-35.2c-11.3,14.8-28.2,38.2-33,50.6C61.2,75,56.7,66.2,57.4,63.8z M50.2,151.4c0.6,0,0.9-0.7,0.6-2.1
			c-2-11.8,4.4-43.3,9.8-54.1c-5.9-0.5-22.1-36.9-22.1-36.9s-14.2,46.3-14.7,54.1C23.4,119.2,45.9,151.4,50.2,151.4z M38.9,63.5
			c1.7,3.5,4.1,8.7,6.8,13.8C52,89.5,55.7,94.3,58.1,96c-5.3,12.2-10.8,40.1-9.3,52.4c-6.4-5.6-23.4-30.5-23.1-36
			C26,106.9,33.8,80.3,38.9,63.5z M63.6,221.6c0.3,0,0.1-0.3-0.5-1c-7.4-7.9-11.3-36.9-12.3-49.2c-7.8-4.4-19.6-20.7-39.2-51.7
			C9.1,125.1,13,163,14,176.3C14.9,188.4,60.8,221.6,63.6,221.6z M12.7,125c18.8,29.5,29,42.8,36.3,47.5c0.5,5.3,3.1,30.7,9.2,43.8
			c-12.9-8.8-41.6-31.6-42.3-40.2c-0.2-2.5-0.5-5.9-0.8-9.8C14.1,154.5,12.3,134.3,12.7,125z M104.7,272.3c0,0-23.5-16.2-31.9-32
			c-36.8-5.4-71.1-49.2-71.1-49.2s7.8,46.3,22.1,61.5c19.3,17.6,52.3,20.1,69.6,20.1C100.3,272.7,104.7,272.3,104.7,272.3z M5,197.9
			c10.6,12,37.5,39.4,66.6,44.1c6.6,11.7,20.6,23.3,27.7,28.7c-1.7,0.1-3.7,0.1-5.9,0.1c-17.5,0-49.6-2.5-68.3-19.5
			C14.8,240.1,7.8,211.3,5,197.9z M129.2,289.5c-10.6,1.8-20.6,2.5-29.8,2.5c-44.3,0-70.8-17.3-70.8-17.3s30.1,49.4,100,49.4
			c2.6,0,5.2-0.1,7.9-0.2c-0.5,9.4,0,19.7,0,19.7h39.2c0,0,0-20.7,0-41.8c-4.3-0.8-10.2-1.8-18.3-3.8
			C150.1,296.2,139.1,289.5,129.2,289.5z M173.9,341.8h-35.5c-0.1-3.4-0.3-10.8,0.1-17.7l0.1-2.1l-2.1,0.1c-2.6,0.1-5.3,0.2-7.8,0.2
			c-35.5,0-60.3-13.2-74.9-24.2c-8.5-6.4-14.6-12.9-18.5-17.6c10.9,5.2,33.1,13.5,64.2,13.5c9.8,0,19.9-0.9,29.9-2.5
			c5.9,0,12.5,2.7,18.4,5.1c3.4,1.4,6.5,2.7,9.3,3.3c7.2,1.8,12.7,2.8,16.9,3.5V341.8z M330.3,63.1c-1.5-3.9-53.9-46.8-53.9-46.8
			s40.2,50.2,44.1,66.4C323.9,80.3,331.8,67,330.3,63.1z M328.6,63.8c0.7,2.3-3.8,11.1-7.2,15.4c-4.8-12.5-21.8-35.8-33-50.6
			C306.5,43.7,326.9,61.1,328.6,63.8z M325.4,95.1c5.4,10.8,11.8,42.3,9.8,54.1c-0.2,1.5,0,2.1,0.6,2.1c4.3,0,26.8-32.2,26.4-39
			c-0.5-7.9-14.7-54.1-14.7-54.1S331.3,94.6,325.4,95.1z M340.3,77.3c2.7-5.1,5.1-10.3,6.8-13.8c5.1,16.8,12.8,43.4,13.2,48.9
			c0.3,5.5-16.7,30.3-23.1,36c1.4-12.3-4.1-40.2-9.3-52.4C330.3,94.3,334,89.5,340.3,77.3z M335.2,171.4c-1,12.3-4.9,41.3-12.3,49.2
			c-0.7,0.7-0.8,1-0.5,1c2.8,0,48.7-33.3,49.6-45.3c1-13.3,4.9-51.2,2.5-56.6C354.8,150.7,343.1,167,335.2,171.4z M373.3,125
			c0.3,9.3-1.4,29.5-2.4,41.4c-0.3,3.9-0.6,7.3-0.8,9.8c-0.6,8.6-29.4,31.4-42.3,40.2c6.1-13.1,8.7-38.6,9.2-43.8
			C344.3,167.8,354.5,154.5,373.3,125z M313.2,240.3c-8.3,15.7-31.9,32-31.9,32s4.4,0.4,11.3,0.4c17.3,0,50.3-2.5,69.6-20.1
			c14.2-15.3,22.1-61.5,22.1-61.5S349.9,234.9,313.2,240.3z M360.9,251.3c-18.7,17-50.8,19.5-68.3,19.5c-2.3,0-4.3,0-5.9-0.1
			c7.1-5.4,21.2-17,27.7-28.7c29.1-4.8,56-32.1,66.6-44.1C378.2,211.3,371.2,240.1,360.9,251.3z M256.8,289.5
			c-9.8,0-20.8,6.7-28.3,8.5c-8.1,2-14,3-18.3,3.8c0,21.2,0,41.8,0,41.8h39.2c0,0,0.5-10.3,0-19.7c2.7,0.1,5.3,0.2,7.9,0.2
			c69.9,0,100-49.4,100-49.4s-26.5,17.3-70.8,17.3C277.3,292.1,267.4,291.3,256.8,289.5z M332.2,298.1
			c-14.6,11.1-39.4,24.2-74.9,24.2c-2.6,0-5.2-0.1-7.8-0.2l-2.1-0.1l0.1,2.1c0.4,6.9,0.2,14.3,0.1,17.7h-35.5v-38.4
			c4.2-0.7,9.7-1.8,16.9-3.5c2.8-0.7,5.9-2,9.3-3.3c5.8-2.4,12.5-5.1,18.4-5.1c10,1.7,20.1,2.5,29.9,2.5c31,0,53.2-8.3,64.2-13.5
			C346.8,285.1,340.7,291.6,332.2,298.1z M101.3,90.7c-14.8,19.3-23.6,43.4-23.6,69.7c0,12.7,2.1,25,5.9,36.4
			c28.8,17.9,66.6,28.8,108.1,28.8c41.5,0,79.3-10.9,108.1-28.8c3.8-11.4,5.9-23.7,5.9-36.4c0-26.2-8.8-50.4-23.6-69.7
			c-25.9,12.1-57,19.2-90.4,19.2C158.3,109.9,127.2,102.8,101.3,90.7z M303.9,160.3c0,12-1.9,23.8-5.6,35.2
			c-29.5,18.2-67.3,28.2-106.5,28.2c-39.3,0-77-10-106.5-28.2c-3.7-11.4-5.6-23.2-5.6-35.2c0-24.5,7.7-47.7,22.3-67.3
			c26.8,12.3,57.8,18.7,89.8,18.7c32.1,0,63.1-6.5,89.9-18.7C296.2,112.6,303.9,135.8,303.9,160.3z M291,216.6
			c-27.5,14.8-61.9,23.7-99.3,23.7c-37.3,0-71.7-8.8-99.2-23.7c19.6,34.7,56.7,58.1,99.2,58.1C234.3,274.7,271.4,251.3,291,216.6z
			 M191.7,272.9c-38.1,0-73.6-19.6-94.2-51.5c27.7,13.6,60.1,20.8,94.2,20.8c34.1,0,66.5-7.2,94.2-20.8
			C265.3,253.3,229.8,272.9,191.7,272.9z M272.9,79.9c-20.7-21-49.4-34.1-81.1-34.1c-31.8,0-60.5,13-81.1,34.1
			c23.9,9.6,51.6,15.2,81.1,15.2C221.3,95.1,249,89.6,272.9,79.9z M191.7,47.8c29.3,0,56.7,11.2,77.7,31.5
			c-23.7,9.1-50.5,14-77.8,14c-27.2,0-54-4.8-77.7-14C135,58.9,162.5,47.8,191.7,47.8z"/>
	</g>
</g>
</svg>
