<?xml version="1.0" encoding="utf-8"?>
<!-- Generator: Adobe Illustrator 19.1.0, SVG Export Plug-In . SVG Version: 6.00 Build 0)  -->
<svg version="1.1" id="Layer_1" xmlns="http://www.w3.org/2000/svg" xmlns:xlink="http://www.w3.org/1999/xlink" x="0px" y="0px"
	 viewBox="0 0 386 360" style="enable-background:new 0 0 386 360;" xml:space="preserve">
<style type="text/css">
	.st0{fill:#F7F953;}
	.st1{fill:#D85708;}
	.st2{fill:#B33035;}
	.st3{fill:#006CFF;}
	.st4{fill:#7C30B3;}
	.st5{fill:#FF8400;}
	.st6{fill:#00FCFF;}
	.st7{fill:#E35BF3;}
	.st8{fill:#933246;}
	.st9{fill:#45AD21;}
	.st10{fill:#FFC12C;}
	.st11{fill:#80A2C9;}
	.st12{fill:#208AE3;}
	.st13{fill:#94E515;}
</style>
<g id="SILICOIDS">
	<g>
	<path d="M192.9,238.2l56.3-110.8L193.8-0.5l-59.1,126.9L192.9,238.2z M247.3,127.3l-54.4,107.1l-56.2-108L193.8,3.8L247.3,127.3z M166.2,216.5l-38.1-75l-26.9,61.8l60.5,47.5L166.2,216.5z M103.4,202.7l24.8-57.1l36.1,71.2l-4,30.6L103.4,202.7z M258.3,148l-38.2,72.3l3.9,30.1l60.5-45.6l-5.5-11.9L258.3,148z M225.4,247.2l-3.5-26.6l36.3-68.7l19.3,41.7l4.9,10.6L225.4,247.2z M193.2,295.1l-70.6-53.7l-3.8,6l73.8,112.2l73.2-109.9l-4.7-6.9L193.2,295.1z M192.6,356.3l-71.7-109l2.2-3.4l69.1,52.6l1.1,0.8l1.1-0.8l66.4-51.2l3,4.4L192.6,356.3z M138.5,77.2l3.8-11.4l-41.3-26.5l5.6,37.9H138.5z M140.1,66.6l-2.9,8.9h-29.1l-4.8-32.6L140.1,66.6z M134.7,86.7H52.1l54.4,62.5L134.7,86.7z M56,88.4h76L106.1,146L56,88.4z M89.7,182.4l-52.6,38l61.9,28.3l-20.6-39.8L89.7,182.4z M95.2,245l-54.6-25l45-32.5l-8.8,20.7l-0.3,0.8l0.4,0.7L95.2,245z M279.2,77.2l5.6-37.9l-41.3,26.5l3.8,11.4H279.2z M282.5,42.9l-4.8,32.6h-29.1l-2.9-8.9L282.5,42.9z M279.2,149.2l54.4-62.5h-82.6L279.2,149.2z M279.7,146l-25.9-57.6h76L279.7,146z M348.7,220.3l-52.6-38l11.3,26.5l-20.6,39.8L348.7,220.3z M309,208.2l-8.8-20.7l45,32.5l-54.6,25l18.3-35.3l0.4-0.7L309,208.2z"/>
	</g>
</g>
</svg>
