<?xml version="1.0" encoding="utf-8"?>
<!-- Generator: Adobe Illustrator 19.1.0, SVG Export Plug-In . SVG Version: 6.00 Build 0)  -->
<svg version="1.1" id="Layer_1" xmlns="http://www.w3.org/2000/svg" xmlns:xlink="http://www.w3.org/1999/xlink" x="0px" y="0px"
	 viewBox="0 0 386 360" style="enable-background:new 0 0 386 360;" xml:space="preserve">
<style type="text/css">
	.st0{fill:#F7F953;}
	.st1{fill:#D85708;}
	.st2{fill:#B33035;}
	.st3{fill:#006CFF;}
	.st4{fill:#7C30B3;}
	.st5{fill:#FF8400;}
	.st6{fill:#00FCFF;}
	.st7{fill:#E35BF3;}
	.st8{fill:#933246;}
	.st9{fill:#45AD21;}
	.st10{fill:#FFC12C;}
	.st11{fill:#80A2C9;}
	.st12{fill:#208AE3;}
	.st13{fill:#94E515;}
</style>
<g id="GNOLAM">
	<g>
	<path d="M195.1,124.4L181.4,165l-39.3,14.1l38.9,15l14.1,41.4l12.8-41.2l38.9-15.2L208.6,165L195.1,124.4z M207.2,192.5l-0.9,0.3l-0.3,0.9L195,229.3l-12.2-35.8l-0.3-0.9l-0.8-0.3l-34.1-13.1l34.4-12.4l0.9-0.3l0.3-0.9l11.8-35.1l11.7,35.1l0.3,0.9l0.9,0.3l33.5,12.4L207.2,192.5z M251.9,44.9c0,0-18.3-14.1-56.8-14.1c-38.5,0-56.8,14.1-56.8,14.1s45.7,21.7,56.8,32.8C205.2,67.5,251.9,44.9,251.9,44.9z M195.1,32.7c29.1,0,46.5,8.3,52.9,12c-10.2,5-42.3,21.2-52.9,30.4c-11.1-9.8-42.7-25.5-52.8-30.4C148.7,40.9,166.1,32.7,195.1,32.7z M138.2,309.5c0,0,18.3,14.1,56.8,14.1c38.5,0,56.8-14.1,56.8-14.1s-45.7-21.7-56.8-32.8C184.9,286.9,138.2,309.5,138.2,309.5z M195,321.7c-29.1,0-46.5-8.3-52.9-12c10.2-5,42.3-21.2,52.8-30.4c11.1,9.8,42.7,25.5,52.8,30.4C241.5,313.5,224,321.7,195,321.7z M320.1,119.9c0,0-22.4,47.1-32.5,57.3c11,11.2,32.5,57.3,32.5,57.3s14-18.5,14-57.3C334.1,138.4,320.1,119.9,320.1,119.9z M290.2,177.2c9.1-10.6,25.1-43.1,30.1-53.4c3.7,6.4,11.8,24,11.8,53.4c0,29.3-8.1,46.9-11.8,53.3C315.5,220.3,299.9,188.4,290.2,177.2z M66,120c0,0-14,18.5-14,57.3s14,57.3,14,57.3s22.4-47.1,32.5-57.3C87.5,166.2,66,120,66,120z M65.8,230.7c-3.7-6.4-11.8-24.1-11.8-53.4c0-29.3,8.1-46.9,11.8-53.3c4.9,10.3,20.4,42.2,30.1,53.3C86.8,188,70.8,220.4,65.8,230.7z M195.1,102.1c0,0-30.5,24.4-41.2,35.3c-10.7,10.8-34.3,41.7-34.3,41.7s17.2,23.5,34.9,41.3c17.7,17.8,40.6,35.7,40.6,35.7s27.8-24,42.3-38.7c14.5-14.7,33.2-38.3,33.2-38.3s-13.3-19.2-35.3-41.5C213.2,115.3,195.1,102.1,195.1,102.1z M236,216.1c-12.6,12.7-35.5,32.8-41,37.5c-5-4-24.1-19.4-39.2-34.6c-15.1-15.3-30.2-35-33.9-39.9c4.4-5.7,23.9-31,33.2-40.4c9.3-9.4,34.2-29.6,39.9-34.2c4.3,3.3,20.2,15.7,38.8,34.4c18.6,18.8,31.1,35.6,34.3,40.1C264.3,184,248.5,203.5,236,216.1z M138.5,123.2c11.7-13.9,39.1-33.4,39.1-33.4s-43.9-25.2-62.5-34.4c-26.8,18-39.6,42.5-39.6,42.5l32.8,62.5C108.3,160.3,126.8,137.1,138.5,123.2z M115.3,57.6c16.1,8.1,49.2,26.9,58.8,32.4c-7,5.1-27.2,20.3-37,31.9c-9.5,11.2-23.4,28.7-28.4,34.9l-31-58.9C80.3,93.5,92.7,73.2,115.3,57.6z M249.6,123.1c11.7,13.9,30.2,37.2,30.2,37.2l32.8-62.4c0,0-12.9-24.5-39.6-42.5c-18.6,9.2-62.4,34.4-62.4,34.4S237.8,109.2,249.6,123.1z M310.4,97.8l-30.9,58.9c-5-6.2-18.9-23.7-28.4-34.9c-9.8-11.6-30-26.8-37-31.9c9.5-5.4,42.6-24.3,58.7-32.4C295.4,73.1,307.8,93.4,310.4,97.8z M138.6,233.4c-11.7-13.9-30.2-37.2-30.2-37.2l-32.8,62.5c0,0,12.9,24.5,39.6,42.5c18.6-9.2,62.5-34.4,62.5-34.4S150.3,247.3,138.6,233.4z M77.8,258.7l30.9-58.9c5,6.2,18.9,23.7,28.4,34.9c9.8,11.7,30,26.8,37,31.9c-9.5,5.4-42.6,24.3-58.8,32.4C92.8,283.4,80.3,263.1,77.8,258.7z M249.6,228.2c-11.7,13.9-39.1,33.3-39.1,33.3s43.9,25.2,62.4,34.4c26.7-18,39.6-42.5,39.6-42.5L279.7,191C279.7,191,261.3,214.3,249.6,228.2z M272.8,293.7c-16.1-8.1-49.2-26.9-58.7-32.4c7-5.1,27.2-20.3,37-31.9c9.4-11.2,23.4-28.7,28.4-34.9l30.9,58.9C307.8,257.9,295.4,278.2,272.8,293.7z M193.2,12.4c-87.2,0-158,74.7-158,166.8S106,346,193.2,346c87.2,0,158-74.7,158-166.8S280.5,12.4,193.2,12.4z M193.2,344c-86,0-156-73.9-156-164.8c0-90.9,70-164.8,156-164.8c86,0,156,73.9,156,164.8C349.3,270.1,279.3,344,193.2,344z M193.2-0.4C99.3-0.4,23.1,80,23.1,179.2s76.2,179.6,170.2,179.6c94,0,170.2-80.4,170.2-179.6S287.2-0.4,193.2-0.4z M193.2,356.9C100.5,356.9,25,277.2,25,179.2S100.5,1.5,193.2,1.5c92.8,0,168.2,79.7,168.2,177.7S286,356.9,193.2,356.9z"/>
	</g>
</g>
</svg>
