<?xml version="1.0" encoding="utf-8"?>
<!-- Generator: Adobe Illustrator 19.1.0, SVG Export Plug-In . SVG Version: 6.00 Build 0)  -->
<svg version="1.1" id="Layer_1" xmlns="http://www.w3.org/2000/svg" xmlns:xlink="http://www.w3.org/1999/xlink" x="0px" y="0px"
	 viewBox="0 0 386 360" style="enable-background:new 0 0 386 360;" xml:space="preserve">
<style type="text/css">
	.st0{fill:#F7F953;}
	.st1{fill:#D85708;}
	.st2{fill:#B33035;}
	.st3{fill:#006CFF;}
	.st4{fill:#7C30B3;}
	.st5{fill:#FF8400;}
	.st6{fill:#00FCFF;}
	.st7{fill:#E35BF3;}
	.st8{fill:#933246;}
	.st9{fill:#45AD21;}
	.st10{fill:#FFC12C;}
	.st11{fill:#80A2C9;}
	.st12{fill:#208AE3;}
	.st13{fill:#94E515;}
</style>
<g id="MRRSHAN">
	<g>
	<path d="M235.1,274c-14.5,30.5-19.2,60.9-20.6,81.2c52.1-7.7,79.3-42.3,79.3-42.3S279.6,285.4,235.1,274z M216.9,352.6c1.5-19.6,6.2-47.8,19.4-76.1c36.4,9.9,51.6,30.8,54.9,36.1C286.1,318.5,260.6,345.3,216.9,352.6z M386,69c-20.6,25.9-31.4,31.3-66.4,62.5c-26.5,23.7-53.7,73.1-68.4,117.7c13.3,5.2,41.8,19.1,57.6,37.7c17.3-14.5,35.1-43.8,51.6-66.5c-21.3,19.1-44.6,15.6-79.4,18.6C301.8,224.6,381.3,171.4,386,69z M281.3,241c7.2-0.6,13.8-1,20.3-1.3c19.1-1,35-1.8,49.5-10c-1.7,2.5-3.5,5-5.2,7.4c-12.1,17.6-24.6,35.7-36.8,46.5c-17.4-19.4-46.7-32.4-55-35.9c15.5-46.2,42.9-93.2,67.1-114.8c10.7-9.6,19-16.6,26.3-22.8c14.5-12.2,23.8-20.1,35.9-34.7c-3.2,39.8-18.1,76.3-44.5,108.7c-22.4,27.5-47.4,44.7-58.1,52.1l-1,0.7l-6.8,4.7L281.3,241z M92.1,312.9c0,0,27.2,34.7,79.3,42.3c-1.4-20.3-6-50.8-20.6-81.2C106.4,285.4,92.1,312.9,92.1,312.9z M94.8,312.6c3.3-5.3,18.5-26.2,54.9-36.1c13.2,28.3,17.8,56.5,19.4,76.1C125.4,345.3,99.9,318.5,94.8,312.6z M66.4,131.5C31.4,100.3,20.6,94.9,0,69c4.7,102.4,84.2,155.6,104.9,169.9c-34.8-3-58.1,0.6-79.4-18.6c16.5,22.7,34.3,52.1,51.6,66.5c15.7-18.6,44.2-32.5,57.6-37.7C120.1,204.6,92.8,155.2,66.4,131.5z M77,283.8c-12.2-10.8-24.7-28.9-36.8-46.5c-1.7-2.5-3.4-5-5.2-7.4c14.5,8.2,30.4,9,49.5,10c6.4,0.3,13.1,0.7,20.3,1.3l8.2,0.7l-6.8-4.7l-1-0.7c-10.7-7.3-35.6-24.5-58.1-52.1C20.7,152,5.8,115.4,2.6,75.7c12.1,14.5,21.5,22.4,35.9,34.7c7.3,6.2,15.6,13.2,26.3,22.8c24.2,21.6,51.6,68.6,67.1,114.8C123.6,251.4,94.4,264.4,77,283.8z M279.8,122.6C329.7,77.3,329.2,86.4,381,8.5c1.7-3.5,2.2-5,1.4-5c-3.7,0-37.1,37.7-79.2,37.7c-0.8,0-1.6,0-2.5,0c-51-1.8-47.5-27.2-104-27.8c-0.4,0-1.9,0-3.4,0c-1.2,0-2.5,0-3.2,0c-57.7,0.5-54,26.3-105.9,28.1c-0.8,0-1.7,0-2.5,0C39,41.4,5.2,3.8,1.4,3.8c-0.7,0-0.3,1.5,1.4,5c52.5,77.8,52.4,68.8,103.1,114c50.7,45.2,80.7,196.9,80.7,196.9h13.2C199.8,319.7,229.8,167.9,279.8,122.6z M198.1,317.5h-9.6c-3.7-17.9-32.8-153.2-81.1-196.3c-10.8-9.6-19.1-16.7-26.4-22.9C55,76.4,46.1,68.8,6.1,9.7c0.3,0.3,0.7,0.6,1,0.8C20.4,21.3,48,43.6,81.8,43.6c0.9,0,1.7,0,2.6,0c25.4-0.9,38.1-7.5,50.2-14c12.9-6.8,26.2-13.8,55.6-14.1c0.7,0,1.9,0,3.1,0c1.5,0,2.9,0,3.3,0c28.7,0.3,41.8,7.3,54.4,14c12,6.4,24.4,13,49.5,13.9c0.8,0,1.7,0,2.5,0c33.3,0,60.5-22.4,73.6-33.1c0.3-0.2,0.6-0.5,0.9-0.7c-39.7,59.6-47.8,66.6-74,89.3c-7.1,6.1-15.1,13-25.4,22.3C230.7,164.2,201.7,299.6,198.1,317.5z M193.3,51.5c-18.1,0-50.4,6.7-50.4,32.7c33.6,53.4,46,91.6,46,91.6h8.8c0,0,12.4-38.2,46-91.6C243.7,58.1,211.4,51.5,193.3,51.5z M196.1,173.6h-5.6c-2.7-7.6-16-43.1-45.4-90c0.5-23.6,30.5-29.9,48.2-29.9c17.8,0,47.7,6.3,48.2,29.9C212.1,130.4,198.8,166,196.1,173.6z"/>
	</g>
</g>
</svg>
