<svg class="race_background" width="195px" height="196px" viewBox="0 0 195 196" version="1.1" xmlns="http://www.w3.org/2000/svg">
<path d=" M 51.21 22.37 C 52.46 19.93 55.60 20.06 57.95 19.96 C 84.31 20.02 110.68 20.03 137.04 19.96 C 139.10 20.06 141.76 19.95 142.97 22.00 C 144.71 24.65 145.99 27.58 147.80 30.19 C 151.07 34.83 152.57 40.46 156.11 44.92 C 158.14 47.85 161.94 49.33 163.09 52.88 C 164.15 56.19 166.50 58.77 168.21 61.72 C 169.66 65.67 169.81 70.14 172.38 73.65 C 176.91 79.85 180.34 86.79 185.28 92.71 C 186.89 94.39 187.92 97.13 186.26 99.14 C 183.44 102.84 181.82 107.27 178.92 110.91 C 175.90 115.06 174.37 120.02 172.72 124.81 C 171.49 128.55 168.87 131.56 167.01 134.97 C 163.66 141.14 160.57 147.59 155.81 152.83 C 154.04 154.80 152.60 157.04 151.52 159.46 C 148.98 165.33 145.00 170.39 141.87 175.95 C 119.58 176.09 97.29 175.96 75.00 176.01 C 67.67 176.07 60.30 175.51 53.01 176.50 C 49.35 171.31 46.03 165.89 42.10 160.90 C 37.99 155.79 36.84 149.10 33.33 143.64 C 30.38 139.09 28.33 134.05 25.60 129.38 C 23.36 125.73 22.83 121.28 20.23 117.83 C 16.19 112.33 12.97 106.30 9.92 100.21 C 9.33 99.08 9.25 97.74 9.64 96.53 C 12.69 86.48 20.90 79.02 24.00 68.99 C 25.10 65.75 27.94 63.63 29.86 60.91 C 32.76 57.16 34.11 52.54 36.48 48.49 C 38.38 45.10 40.94 42.07 42.38 38.43 C 44.55 32.67 48.50 27.86 51.21 22.37 Z" />
</svg>
