<svg xmlns="http://www.w3.org/2000/svg" viewBox="0 0 579.365 579.365">
    <path id="eagle" d="M56.07 267.187c.71 1.342 1.343 2.725 2.15 4.44.303.64.054.872-.562.52-6.202-3.544-11.942-6.825-17.654-10.093-.616-.35-1.514-.225-2.007.286-.167.17-.33.343-.498.514-.5.51-.59 1.407-.22 2.01 2.77 4.518 5.26 9.27 8.61 13.31 3.22 3.892 7.24 7.34 11.47 10.155 13.01 8.67 26.01 17.42 39.59 25.12 5.58 3.16 12.62 3.74 19.02 5.42 48.75 12.75 36.48 7.47 68.46 38.53 2.7 2.63 4.62 6.64 5.51 10.34.61 2.54-.65 5.95-2.01 8.46-6.93 12.8-18.33 21.45-29.09 30.69-.77.66-.78 2.32-.95 3.54-1.19 8.63-2.75 17.24-3.3 25.91-.32 4.99.33 10.3 1.79 15.08 1.97 6.43 4.99 12.58 7.85 18.71 3.03 6.49 6.35 8.22 13.71 7.01.7-.12 1.23-.8 1.22-1.51-.18-13.58 8.38-22.54 17.51-31.53 9.92-9.77 21.51-10.26 33.75-8.44.7.11 1.46.74 1.67 1.42 4.96 15.43 1.13 30.95.76 46.4-.2 8.1-.57 16.24-.03 24.31.77 11.51-2.57 21.48-9.52 30.42-3.7 4.75-7.24 5.27-10.97.6-3.24-4.06-5.59-8.96-7.72-13.76-2.42-5.46-5.45-6.82-8.91-3.54-.51.48-.34 1.13.3 1.42 3.77 1.74 5.08 4.11 2.01 8.66-.92 1.36-.03 5.2 1.35 6.61 3.33 3.4 7.3 6.18 11.41 9.41.56.44.44.91-.25 1.03-9.9 1.63-18.36-1.35-26.35-6.33-7.96-4.96-15.18-2.01-16.61 6.41-.12.7.33.98.94.63l6.5-3.77c.61-.36 1.48-.45 1.94-.22.46.23.67.98.54 1.67-.93 4.99 2.13 6 6.22 6.56 3.77.51 7.4 2.01 11.16 2.78 3.16.66 6.39 1.01 9.87 2.35.66.25.63.66-.05.86-2.15.66-4.29 1.32-6.45 1.95-5.31 1.54-10.79 2.64-15.9 4.68-4.25 1.7-7.2 4.84-6.86 9.73.05.7.56 1.68 1.06 2.18l.9.9c.5.5.98.34 1.07-.37.48-3.83.78-5.65 7.78-4.8 8.53 1.03 18.75-3.66 26.71-8.42 8.33-4.99 15.87-7.1 25.09-4.41 4.68 1.36 9.6 1.96 14.44 2.73 1.19.19 2.99.15 3.67-.58 5.81-6.18 9.83-3.34 13.56 2.49.38.59.85.54 1-.15 1.3-5.92-2.08-9-6.15-10.45-4.01-1.43-9.05-2.18-13.02-1.05-7.34 2.09-12.44-.22-16.71-4.4-.51-.49-.59-1.4-.21-2l27.46-43.02c.38-.59.37-1.41-.03-1.81-.4-.41-.19-.51.45-.22l4.18 1.87c.65.29 1.15-.05 1.14-.76l-.23-8.66c-.02-.71.42-.938.99-.51l3.79 2.85c.57.424 1.59.652 2.28.51.02 0 .05-.01.07-.017.7-.15 1.18-.84 1.1-1.54-.48-3.86-.96-7.726-1.45-11.635-.085-.7.41-1.2 1.12-1.188 5.75.13 9.16-3.45 7.825-8.52-2.16-8.15-5.19-16.08-7.38-24.227-.83-3.07-.71-6.4-.88-9.78-.037-.704.47-1.11 1.15-.9.58.18 1.15.355 1.77.54.68.21 1.07-.18.89-.86l-.84-3.06c-.19-.69.233-1.22.94-1.195l9.87.3c.71.02 1.44.59 1.63 1.27 6.63 23.698 12.27 47.3-6.56 69.3-.46.54-1.314.63-1.89.22l-9.3-6.64c-.58-.41-1.02-.17-.99.54.09 2.42.07 3.29.21 4.13.42 2.51 2.05 6.65 1.22 7.2-2.2 1.47-5.08 1.9-7.83 2.55-.69.17-1.3-.25-1.37-.96-.04-.38-.08-.76-.11-1.14-.073-.7-.514-.85-.99-.32l-3.64 4.06c-.473.524-.3 1.083.39 1.246 2.87.68 5.26 1.248 7.95 1.89.69.16.84.704.25 1.09-5.43 3.46-14.63-2.026-16.647 8.23-.134.69.376 1.22 1.08 1.176 5.706-.31 11.565.1 16.775-1.55 10.96-3.46 19.276-.98 26.56 7.64 2.94 3.47 5.81 8.48 12.725 5.284.65-.3 1.11-.01 1.07.694-.13 2.38-.25 4.32-.34 6.03-.04.708.46 1.05 1.06.67 3.75-2.4 4.948-7.31 1.608-11.9-2.124-2.92-5.71-4.84-8.81-6.952-2.26-1.54-5.1-2.3-7.17-4.02-7.26-6.03-6.86-7.97-.19-14.38 6.7-6.44 12.64-13.68 19.01-20.48.88-.94 2.12-1.55 4.06-2.75.6-.37 1.2-1.25 1.347-1.94.4-1.89.945-4.48 1.537-7.26.15-.7.708-.89 1.24-.42l3.49 2.99c.54.46 1.1.28 1.29-.4.27-.93.49-1.64.44-2.33-.45-5.91 2.37-10.45 5.71-14.93.68-.92.17-2.92-.142-4.34-.86-3.976-1.87-7.92-2.892-12.12-.163-.69.24-1.05.9-.81l3.09 1.14c.67.24 1.04-.11.84-.79l-3.95-13.02c-.21-.68.08-.873.635-.44.705.55 1.3 1.02 1.844 1.446.56.44 1.333.68 1.732.54.4-.13.59-.81.42-1.49l-2.23-9.22c-.17-.69.18-1.56.78-1.933 4.683-2.9 9.96-5.17 11.573-11.76.346-1.39 4.16-3.88 5.606-4.63 9.59-4.93 19.77-8.84 30.04-12.27 2.72-.91 6.49.75 9.63 1.73 10.53 3.28 20.81 7.55 31.53 9.97 8.31 1.88 16.42-.79 23.57-5.97 8.78-6.36 18.08-12.03 26.66-18.64 10.23-7.88 19.91-16.47 29.853-24.71 6.02-4.99 12.203-9.78 18.11-14.89 5.89-5.1 11.63-10.4 17.21-15.84 1.93-1.88 3.18-4.45 4.8-6.68 1.64-2.28 3.2-4.64 5.05-6.75 2.08-2.38 4.95-4.21 6.51-6.85.97-1.64.824-3.93.393-6.19-.14-.7 0-1.766.325-2.4 3.11-6.135 2.09-7.29-4.19-12.29-6.61-5.28-13.02-5.44-20.23-2.35-25.7 11.01-51.44 21.937-77.126 32.99-33.21 14.29-33.23 15.13-69.01 13.446-20.77-.98-41.38-.91-61.94 1.008-.705.07-.79-.17-.18-.54 3.615-2.225 7.16-4.566 10.62-7.026.58-.41 1.57-.97 2.22-1.26 6.02-2.63 11.957-5.48 17.99-8.08 1.88-.82 4.036-1.1 6.097-1.38 9.664-1.31 17.42-5.31 21.61-14.71.444-1 1.61-1.71 2.51-2.48 1.77-1.52 4.4-2.64 5.22-4.55 1.85-4.32 3.54-8.23 7.97-10.85 1.05-.61.52-3.9.44-6.9-.02-.71.55-1.46 1.19-1.766 3.16-1.5 4.396-4.07 3.21-9.32-.82-3.63 3.65-8.15 4.41-12.51 1.204-6.94 4.272-13.8.86-21.24-1.58-3.45-1.13-7.82-1.66-11.77-1.214-9.03-1.87-18.2-3.984-27.02-.85-3.52-3.97-6.5-6.08-9.1-.45-.55-.38-1.43.12-1.93l5.49-5.49c.5-.5.5-1.31 0-1.81l-6.34-6.34c-.5-.5-.43-1.23.17-1.61 1.79-1.14 3.99-2.46 5.86-4.134 1.26-1.126 2.37-3.15 2.31-4.73-.03-.91-2.42-2.05-3.93-2.52-2.25-.706-4.61-1.07-7.29-1.587-.7-.135-.79-.59-.22-1l12.55-9.08c.58-.42 1.01-1.31.98-1.99-.04-.68-.62-1.38-1.31-1.56l-11.74-3.08c-.69-.18-.81-.7-.27-1.16 2.893-2.46 5.924-4.916 8.75-7.59 3.76-3.57 3.32-6.38-1.71-7.67-3.79-.977-8.11-1.22-11.93-.455-7.43 1.49-14.7 3.79-22.58 5.965-.68.19-.78-.01-.22-.436 34.99-26.58 36.9-28.09 37.43-35.14.052-.71-.43-1.04-1.07-.73-18.76 8.962-37.71 18.03-56.67 27.09-.64.3-.757.14-.25-.35 18.59-18.488 39.33-34.77 51.484-59.35.318-.64.098-.82-.48-.41-19.65 13.97-38.7 27.5-57.724 41.02-.58.413-1.31.515-1.638.225-.32-.284-.23-.97.2-1.53 5.34-6.81 10.79-13.53 15.92-20.5 7.69-10.44 15.43-20.87 22.515-31.73 2.61-3.99 3.77-8.92 5.43-13.53.24-.66.04-1.6-.46-2.11-.5-.5-1.31-.49-1.8.02-17.36 17.9-34.72 35.81-52.08 53.7-.5.51-.96.78-1.03.61-.08-.17.16-.8.52-1.41 9.06-15.14 18.33-30.15 27.06-45.48 5.22-9.16 4.6-19.34 2.96-29.41-.08-.5-.48-.96-1.24-1.57-.55-.44-1.08-.2-1.16.5-3.16 27-23.64 42.49-39.77 61.06-.47.53-.61.44-.34-.21 7.59-17.89 13.833-35.87 8.43-54.36-.2-.68-.58-.69-.83-.03-4.14 10.92-7.81 23.03-13.484 34.106-5.78 11.28-13.56 21.54-21.04 32.05-.41.58-.71.47-.667-.23 1.277-19.94 4.49-39.92-7.68-57.93-.39-.59-.68-.48-.62.22.36 3.9.85 7.793.91 11.693.26 16.46-3.423 31.98-9.47 47.38-8.41 21.43-16.47 43.13-18.83 66.37-.29 2.81-1.06 5.56-1.81 8.92-.157.7-.57.77-.94.16l-5.366-8.8c-.368-.6-.87-.56-1.147.1-1.056 2.46-2.17 4.24-2.04 5.924.56 7.34.93 14.82 2.73 21.9 2.91 11.5 6.99 22.7 10.35 34.09.51 1.734.74 3.48 1.61 4.77.39.59.67 1.42.43 2l-.43 1.054-.666 2.03c-.22.67-.93 1.02-1.6.76-1.11-.43-2.22-.86-3.28-1.34-1.97-.895-5.1-.87-5.96-2.31-4.62-7.8-10.83-7.41-18.15-4.5-.65.26-1.09-.08-.96-.77.93-5.14 2.04-9.86 2.34-14.63.15-2.487-.86-5.04-1.58-7.58-.2-.68-.87-1.06-1.55-.856-2.54.793-5.12 1.5-7.53 2.58-1.36.604-2.48 1.763-4.05 3.13-.53.47-1 .25-.98-.45.24-8.88 4.778-17.35-.403-25.97-.363-.61-1.14-.718-1.69-.27l-6.6 5.362c-.55.45-1.005.24-1.013-.47l-.2-17.71c-.01-.71-.517-1.48-1.13-1.72-.62-.23-1.52-.02-2.02.48l-12.526 12.53c-.507.5-1.107.72-1.34.48s-.31-.99-.16-1.68c1.653-7.67 3.31-15.335 4.97-23 .15-.69-.22-1.55-.83-1.918l-.637-.384c-.61-.37-1.53-.288-2.08.17-2.87 2.39-5.97 4.58-8.3 7.4-6.74 8.192-13.1 16.7-19.6 25.09-.43.56-1.22.79-1.74.5-.53-.28-.75-1.05-.51-1.71 1.04-2.8 2-5.64 3.23-8.35 4.25-9.288 8.783-18.44 12.87-27.79.79-1.808.58-4.04.07-6.44-.14-.69-.76-.92-1.33-.51-15.54 11.27-21.66 29.94-35.516 42.99-.516.49-.79.32-.62-.37.945-3.74 1.655-7.572 3.115-11.1 5.07-12.225 10.64-24.24 15.66-36.48 1-2.412.91-5.27.57-8.17-.08-.7-.68-1.03-1.31-.7-9.27 4.92-13.99 13.52-19.55 21.18-5.46 7.5-10.15 15.55-15.13 23.396-.38.6-1.03.95-1.44.79-.42-.16-.58-.85-.38-1.52 5.71-19.24 11.41-38.48 17.12-57.71.2-.68-.164-1.46-.81-1.75l-.615-.27c-.65-.29-1.62-.16-2.17.3-17.94 15.08-22.08 39.19-36.34 57.43-.435.56-.773.43-.765-.28.04-3.66-.26-7.4.56-10.87 3.45-14.55 7.56-28.95 10.97-43.5.854-3.64.46-7.56.454-11.4 0-.71-.52-1.47-1.19-1.71l-.07-.02c-.67-.23-1.587.01-2.07.53-2.19 2.38-4.6 4.63-6.265 7.34-11.145 18.04-16.47 38.35-22.34 58.43-1.08 3.71-1.85 7.51-2.97 12.3-.16.69-.54.73-.82.09-4.45-10.154-5.185-19.53-3.744-29.19 1.67-11.2 3.38-22.4 5.1-33.59.35-2.278.77-4.547 1.174-6.81.13-.7-.33-1.418-1.01-1.6l-.4-.11c-.69-.19-1.6.12-2.07.65-1.89 2.12-4.11 4.11-5.06 6.59-4.25 11.12-8.34 22.33-11.75 33.726-2.687 8.97-4.41 18.234-6.5 27.39-.16.685-.69 1.32-1.19 1.415-.497.1-.995-.39-1.11-1.09-2.48-14.72-4.95-29.44-7.43-44.16-.114-.7-.784-1.31-1.49-1.36l-.364-.03c-.71-.05-1.475.45-1.73 1.11-1.31 3.41-2.93 6.764-3.55 10.293-3.29 18.73-2.73 37.54.59 56.15 5.53 30.97 16.557 60.06 31.25 87.81z"/>
</svg>