<?xml version="1.0" encoding="iso-8859-1"?>
<!-- Generator: Adobe Illustrator 19.0.0, SVG Export Plug-In . SVG Version: 6.00 Build 0)  -->
<svg version="1.1" id="Capa_1" xmlns="http://www.w3.org/2000/svg" xmlns:xlink="http://www.w3.org/1999/xlink" x="0px" y="0px"
	 viewBox="0 0 439.725 439.725" style="enable-background:new 0 0 439.725 439.725;" xml:space="preserve">
<path id="XMLID_827_" d="M230.886,43.632c0,5.522-4.478,10-10,10h-2.047c-5.523,0-10-4.478-10-10s4.477-10,10-10h2.047
	C226.408,33.632,230.886,38.109,230.886,43.632z M434.293,226.555l-30.346,33.691c-3.696,4.104-10.021,4.434-14.123,0.738
	c-4.104-3.696-4.435-10.02-0.738-14.123l24.037-26.688l-16.677-16.908l-56.18,62.368c-3.696,4.105-10.021,4.434-14.122,0.737
	c-4.104-3.696-4.435-10.019-0.737-14.122l56.97-63.247l-15.769-15.986l-79.242,87.976c-3.696,4.104-10.021,4.434-14.123,0.738
	c-4.104-3.696-4.434-10.02-0.738-14.123l80.034-88.855l-16.76-16.991L233.318,255.506l71.689,79.588
	c3.696,4.104,3.367,10.426-0.737,14.122c-4.103,3.698-10.426,3.367-14.122-0.737l-15.831-17.574v61.048c0,5.522-4.478,10-10,10
	s-10-4.478-10-10v-83.251l-24.455-27.148v148.172c0,5.522-4.477,10-10,10s-10-4.478-10-10V281.548l-24.454,27.148v83.256
	c0,5.522-4.477,10-10,10s-10-4.478-10-10V330.9l-15.833,17.578c-3.696,4.104-10.021,4.434-14.123,0.738
	c-4.104-3.696-4.434-10.02-0.738-14.123l71.685-79.586L103.945,141.761l-16.761,16.992l80.033,88.854
	c3.696,4.104,3.366,10.427-0.737,14.123c-4.104,3.695-10.428,3.364-14.123-0.738l-79.242-87.975l-15.768,15.985l56.969,63.247
	c3.696,4.104,3.366,10.427-0.737,14.123c-4.105,3.695-10.427,3.364-14.123-0.738l-56.178-62.368l-16.677,16.908l24.038,26.688
	c3.696,4.104,3.366,10.427-0.738,14.123s-10.426,3.365-14.123-0.738L5.432,226.555c-3.543-3.934-3.407-9.946,0.311-13.715
	l103.501-104.932c1.879-1.905,4.444-2.978,7.12-2.978h43.226L180.823,20h-22.417c-5.523,0-10-4.478-10-10s4.477-10,10-10
	l87.689,0.001c4.589,0,8.589,3.123,9.701,7.574l24.34,97.355h43.227c2.676,0,5.24,1.072,7.119,2.978l103.5,104.932
	C437.699,216.608,437.835,222.621,434.293,226.555z M180.205,104.931h79.316l-21.233-84.93h-36.849L180.205,104.931z
	 M321.71,127.496l-2.53-2.565H120.546l-2.531,2.566l101.844,113.068L321.71,127.496z M262.824,143.3
	c-4.104-3.696-10.428-3.368-14.123,0.737l-28.84,32.016l-28.837-32.016c-3.696-4.104-10.02-4.433-14.123-0.738
	c-4.104,3.696-4.434,10.02-0.738,14.123l36.267,40.265c1.896,2.105,4.597,3.308,7.43,3.308s5.534-1.202,7.43-3.307l36.27-40.265
	C267.257,153.319,266.927,146.996,262.824,143.3z"/>
<g>
</g>
<g>
</g>
<g>
</g>
<g>
</g>
<g>
</g>
<g>
</g>
<g>
</g>
<g>
</g>
<g>
</g>
<g>
</g>
<g>
</g>
<g>
</g>
<g>
</g>
<g>
</g>
<g>
</g>
</svg>
