<svg xmlns="http://www.w3.org/2000/svg" viewBox="0 0 416 448">
    <path d="M405 102q-16.75 24.5-40.5 41.75.25 3.5.25 10.5 0 32.5-9.5 64.875t-28.875 62.125-46.125 52.625-64.5 36.5T135 384q-67.75 0-124-36.25 8.75 1 19.5 1 56.25 0 100.25-34.5-26.25-.5-47-16.125t-28.5-39.875q8.25 1.25 15.25 1.25 10.75 0 21.25-2.75-28-5.75-46.375-27.875T27 177.5v-1q17 9.5 36.5 10.25-16.5-11-26.25-28.75t-9.75-38.5q0-22 11-40.75 30.25 37.25 73.625 59.625T205 163.25q-2-9.5-2-18.5 0-33.5 23.625-57.125T283.75 64q35 0 59 25.5Q370 84.25 394 70q-9.25 28.75-35.5 44.5Q381.75 112 405 102z"/>
</svg>
